M48
; DRILL file {KiCad (5.1.5)-3} date 08/01/2020 15:24:14
; FORMAT={-:-/ absolute / inch / decimal}
; #@! TF.CreationDate,2020-01-08T15:24:14+01:00
; #@! TF.GenerationSoftware,Kicad,Pcbnew,(5.1.5)-3
; #@! TF.FileFunction,Plated,1,2,PTH
FMAT,2
INCH
T1C0.0157
T2C0.0315
T3C0.0320
T4C0.0354
T5C0.0394
T6C0.0400
T7C0.0598
%
G90
G05
T1
X5.07Y-2.01
X5.15Y-2.01
X5.23Y-2.01
X5.31Y-2.01
X5.31Y-3.505
X5.39Y-2.01
X5.46Y-2.01
X5.535Y-2.01
X5.61Y-2.01
X5.665Y-2.87
X5.67Y-2.03
X5.73Y-2.09
X5.795Y-2.155
X5.855Y-2.215
X5.91Y-2.27
X5.97Y-2.33
X5.9735Y-2.4335
X6.05Y-2.465
X6.11Y-2.265
X6.11Y-2.35
X6.11Y-2.4261
X6.175Y-2.2
X6.24Y-2.135
X6.3Y-2.075
X6.3513Y-2.0238
X6.4025Y-1.9725
X6.4537Y-1.9212
X6.5075Y-1.8675
X6.5625Y-1.8125
T2
X4.81Y-3.86
X5.21Y-3.86
X6.575Y-2.325
X6.575Y-2.725
X6.41Y-2.325
X6.41Y-2.725
X4.96Y-3.65
X5.0584Y-3.65
X6.525Y-3.74
X6.525Y-4.14
X6.36Y-3.74
X6.36Y-4.14
T3
X4.85Y-4.1
X4.85Y-4.3
X5.15Y-4.1
X5.15Y-4.3
T4
X6.765Y-2.59
X6.865Y-2.59
X6.765Y-2.37
X6.865Y-2.37
T5
X6.57Y-3.36
X6.67Y-3.36
X6.77Y-3.36
X6.57Y-3.08
X6.67Y-3.08
X6.77Y-3.08
X6.325Y-3.085
X6.325Y-3.185
X6.325Y-3.285
X4.83Y-2.38
X4.83Y-2.48
X4.83Y-2.58
X5.54Y-2.4
X5.64Y-2.4
X5.74Y-2.4
X5.84Y-2.4
X5.94Y-2.4
X6.04Y-2.4
X5.08Y-2.38
X5.08Y-2.48
X5.08Y-2.58
X4.84Y-3.19
X4.94Y-3.19
X5.04Y-3.19
X4.84Y-3.05
X4.94Y-3.05
X5.04Y-3.05
X6.78Y-3.71
X6.78Y-3.81
X6.78Y-3.91
X6.78Y-4.01
X6.78Y-4.11
X6.78Y-4.21
X4.84Y-2.91
X4.94Y-2.91
X5.04Y-2.91
X4.84Y-3.33
X4.94Y-3.33
X5.04Y-3.33
X6.57Y-2.94
X6.67Y-2.94
X6.77Y-2.94
X6.57Y-3.22
X6.67Y-3.22
X6.77Y-3.22
T6
X6.09Y-2.805
X6.09Y-2.905
X6.09Y-3.005
X6.09Y-3.105
X6.09Y-3.205
X6.09Y-3.305
X6.09Y-3.405
X6.09Y-3.505
X6.09Y-3.605
X6.09Y-3.705
X6.09Y-3.805
X6.09Y-3.905
X6.09Y-4.005
X6.09Y-4.105
X6.09Y-4.205
X5.49Y-2.805
X5.49Y-2.905
X5.49Y-3.005
X5.49Y-3.105
X5.49Y-3.205
X5.49Y-3.305
X5.49Y-3.405
X5.49Y-3.505
X5.49Y-3.605
X5.49Y-3.705
X5.49Y-3.805
X5.49Y-3.905
X5.49Y-4.005
X5.49Y-4.105
X5.49Y-4.205
T7
X6.675Y-1.81
X6.675Y-2.01
X4.95Y-1.81
X4.95Y-2.01
T0
M30
