G04 #@! TF.GenerationSoftware,KiCad,Pcbnew,(5.1.5)-3*
G04 #@! TF.CreationDate,2020-01-13T17:27:11+01:00*
G04 #@! TF.ProjectId,MPPT PCB,4d505054-2050-4434-922e-6b696361645f,rev?*
G04 #@! TF.SameCoordinates,Original*
G04 #@! TF.FileFunction,Soldermask,Bot*
G04 #@! TF.FilePolarity,Negative*
%FSLAX46Y46*%
G04 Gerber Fmt 4.6, Leading zero omitted, Abs format (unit mm)*
G04 Created by KiCad (PCBNEW (5.1.5)-3) date 2020-01-13 17:27:11*
%MOMM*%
%LPD*%
G04 APERTURE LIST*
%ADD10C,0.100000*%
G04 APERTURE END LIST*
D10*
G36*
X176850857Y-111972272D02*
G01*
X177051043Y-112055192D01*
X177051045Y-112055193D01*
X177141738Y-112115792D01*
X177231208Y-112175574D01*
X177384426Y-112328792D01*
X177504808Y-112508957D01*
X177587728Y-112709143D01*
X177630000Y-112921658D01*
X177630000Y-113138342D01*
X177587728Y-113350857D01*
X177504808Y-113551043D01*
X177504807Y-113551045D01*
X177384425Y-113731209D01*
X177231209Y-113884425D01*
X177051045Y-114004807D01*
X177051044Y-114004808D01*
X177051043Y-114004808D01*
X176850857Y-114087728D01*
X176638342Y-114130000D01*
X176421658Y-114130000D01*
X176209143Y-114087728D01*
X176008957Y-114004808D01*
X176008956Y-114004808D01*
X176008955Y-114004807D01*
X175828791Y-113884425D01*
X175675575Y-113731209D01*
X175555193Y-113551045D01*
X175555192Y-113551043D01*
X175472272Y-113350857D01*
X175430000Y-113138342D01*
X175430000Y-112921658D01*
X175472272Y-112709143D01*
X175555192Y-112508957D01*
X175675574Y-112328792D01*
X175828792Y-112175574D01*
X175918262Y-112115792D01*
X176008955Y-112055193D01*
X176008957Y-112055192D01*
X176209143Y-111972272D01*
X176421658Y-111930000D01*
X176638342Y-111930000D01*
X176850857Y-111972272D01*
G37*
G36*
X119700857Y-111972272D02*
G01*
X119901043Y-112055192D01*
X119901045Y-112055193D01*
X119991738Y-112115792D01*
X120081208Y-112175574D01*
X120234426Y-112328792D01*
X120354808Y-112508957D01*
X120437728Y-112709143D01*
X120480000Y-112921658D01*
X120480000Y-113138342D01*
X120437728Y-113350857D01*
X120354808Y-113551043D01*
X120354807Y-113551045D01*
X120234425Y-113731209D01*
X120081209Y-113884425D01*
X119901045Y-114004807D01*
X119901044Y-114004808D01*
X119901043Y-114004808D01*
X119700857Y-114087728D01*
X119488342Y-114130000D01*
X119271658Y-114130000D01*
X119059143Y-114087728D01*
X118858957Y-114004808D01*
X118858956Y-114004808D01*
X118858955Y-114004807D01*
X118678791Y-113884425D01*
X118525575Y-113731209D01*
X118405193Y-113551045D01*
X118405192Y-113551043D01*
X118322272Y-113350857D01*
X118280000Y-113138342D01*
X118280000Y-112921658D01*
X118322272Y-112709143D01*
X118405192Y-112508957D01*
X118525574Y-112328792D01*
X118678792Y-112175574D01*
X118768262Y-112115792D01*
X118858955Y-112055193D01*
X118858957Y-112055192D01*
X119059143Y-111972272D01*
X119271658Y-111930000D01*
X119488342Y-111930000D01*
X119700857Y-111972272D01*
G37*
G36*
X123393745Y-108548342D02*
G01*
X123520862Y-108600996D01*
X123520864Y-108600997D01*
X123635268Y-108677439D01*
X123732561Y-108774732D01*
X123809003Y-108889136D01*
X123809004Y-108889138D01*
X123861658Y-109016255D01*
X123888500Y-109151202D01*
X123888500Y-109288798D01*
X123861658Y-109423745D01*
X123809004Y-109550862D01*
X123809003Y-109550864D01*
X123732561Y-109665268D01*
X123635268Y-109762561D01*
X123520864Y-109839003D01*
X123520863Y-109839004D01*
X123520862Y-109839004D01*
X123393745Y-109891658D01*
X123258798Y-109918500D01*
X123121202Y-109918500D01*
X122986255Y-109891658D01*
X122859138Y-109839004D01*
X122859137Y-109839004D01*
X122859136Y-109839003D01*
X122744732Y-109762561D01*
X122647439Y-109665268D01*
X122570997Y-109550864D01*
X122570996Y-109550862D01*
X122518342Y-109423745D01*
X122491500Y-109288798D01*
X122491500Y-109151202D01*
X122518342Y-109016255D01*
X122570996Y-108889138D01*
X122570997Y-108889136D01*
X122647439Y-108774732D01*
X122744732Y-108677439D01*
X122859136Y-108600997D01*
X122859138Y-108600996D01*
X122986255Y-108548342D01*
X123121202Y-108521500D01*
X123258798Y-108521500D01*
X123393745Y-108548342D01*
G37*
G36*
X131013745Y-108548342D02*
G01*
X131140862Y-108600996D01*
X131140864Y-108600997D01*
X131255268Y-108677439D01*
X131352561Y-108774732D01*
X131429003Y-108889136D01*
X131429004Y-108889138D01*
X131481658Y-109016255D01*
X131508500Y-109151202D01*
X131508500Y-109288798D01*
X131481658Y-109423745D01*
X131429004Y-109550862D01*
X131429003Y-109550864D01*
X131352561Y-109665268D01*
X131255268Y-109762561D01*
X131140864Y-109839003D01*
X131140863Y-109839004D01*
X131140862Y-109839004D01*
X131013745Y-109891658D01*
X130878798Y-109918500D01*
X130741202Y-109918500D01*
X130606255Y-109891658D01*
X130479138Y-109839004D01*
X130479137Y-109839004D01*
X130479136Y-109839003D01*
X130364732Y-109762561D01*
X130267439Y-109665268D01*
X130190997Y-109550864D01*
X130190996Y-109550862D01*
X130138342Y-109423745D01*
X130111500Y-109288798D01*
X130111500Y-109151202D01*
X130138342Y-109016255D01*
X130190996Y-108889138D01*
X130190997Y-108889136D01*
X130267439Y-108774732D01*
X130364732Y-108677439D01*
X130479136Y-108600997D01*
X130479138Y-108600996D01*
X130606255Y-108548342D01*
X130741202Y-108521500D01*
X130878798Y-108521500D01*
X131013745Y-108548342D01*
G37*
G36*
X172459935Y-106116664D02*
G01*
X172614624Y-106180739D01*
X172614626Y-106180740D01*
X172753844Y-106273762D01*
X172872238Y-106392156D01*
X172927534Y-106474913D01*
X172965261Y-106531376D01*
X173029336Y-106686065D01*
X173062000Y-106850281D01*
X173062000Y-107017719D01*
X173029336Y-107181935D01*
X172984943Y-107289107D01*
X172965260Y-107336626D01*
X172872238Y-107475844D01*
X172753844Y-107594238D01*
X172614626Y-107687260D01*
X172614625Y-107687261D01*
X172614624Y-107687261D01*
X172459935Y-107751336D01*
X172295719Y-107784000D01*
X172128281Y-107784000D01*
X171964065Y-107751336D01*
X171809376Y-107687261D01*
X171809375Y-107687261D01*
X171809374Y-107687260D01*
X171670156Y-107594238D01*
X171551762Y-107475844D01*
X171458740Y-107336626D01*
X171439057Y-107289107D01*
X171394664Y-107181935D01*
X171362000Y-107017719D01*
X171362000Y-106850281D01*
X171394664Y-106686065D01*
X171458739Y-106531376D01*
X171496466Y-106474913D01*
X171551762Y-106392156D01*
X171670156Y-106273762D01*
X171809374Y-106180740D01*
X171809376Y-106180739D01*
X171964065Y-106116664D01*
X172128281Y-106084000D01*
X172295719Y-106084000D01*
X172459935Y-106116664D01*
G37*
G36*
X154923112Y-105947565D02*
G01*
X155007695Y-105955896D01*
X155170484Y-106005278D01*
X155170487Y-106005279D01*
X155320507Y-106085466D01*
X155320508Y-106085467D01*
X155320512Y-106085469D01*
X155452012Y-106193388D01*
X155559931Y-106324888D01*
X155559933Y-106324892D01*
X155559934Y-106324893D01*
X155640121Y-106474913D01*
X155640122Y-106474916D01*
X155689504Y-106637705D01*
X155706178Y-106807000D01*
X155689504Y-106976295D01*
X155676938Y-107017718D01*
X155640121Y-107139087D01*
X155559934Y-107289107D01*
X155559931Y-107289112D01*
X155452012Y-107420612D01*
X155320512Y-107528531D01*
X155320508Y-107528533D01*
X155320507Y-107528534D01*
X155170487Y-107608721D01*
X155170484Y-107608722D01*
X155007695Y-107658104D01*
X154923112Y-107666435D01*
X154880821Y-107670600D01*
X154491179Y-107670600D01*
X154448888Y-107666435D01*
X154364305Y-107658104D01*
X154201516Y-107608722D01*
X154201513Y-107608721D01*
X154051493Y-107528534D01*
X154051492Y-107528533D01*
X154051488Y-107528531D01*
X153919988Y-107420612D01*
X153812069Y-107289112D01*
X153812066Y-107289107D01*
X153731879Y-107139087D01*
X153695062Y-107017718D01*
X153682496Y-106976295D01*
X153665822Y-106807000D01*
X153682496Y-106637705D01*
X153731878Y-106474916D01*
X153731879Y-106474913D01*
X153812066Y-106324893D01*
X153812067Y-106324892D01*
X153812069Y-106324888D01*
X153919988Y-106193388D01*
X154051488Y-106085469D01*
X154051492Y-106085467D01*
X154051493Y-106085466D01*
X154201513Y-106005279D01*
X154201516Y-106005278D01*
X154364305Y-105955896D01*
X154448888Y-105947565D01*
X154491179Y-105943400D01*
X154880821Y-105943400D01*
X154923112Y-105947565D01*
G37*
G36*
X139683112Y-105947565D02*
G01*
X139767695Y-105955896D01*
X139930484Y-106005278D01*
X139930487Y-106005279D01*
X140080507Y-106085466D01*
X140080508Y-106085467D01*
X140080512Y-106085469D01*
X140212012Y-106193388D01*
X140319931Y-106324888D01*
X140319933Y-106324892D01*
X140319934Y-106324893D01*
X140400121Y-106474913D01*
X140400122Y-106474916D01*
X140449504Y-106637705D01*
X140466178Y-106807000D01*
X140449504Y-106976295D01*
X140436938Y-107017718D01*
X140400121Y-107139087D01*
X140319934Y-107289107D01*
X140319931Y-107289112D01*
X140212012Y-107420612D01*
X140080512Y-107528531D01*
X140080508Y-107528533D01*
X140080507Y-107528534D01*
X139930487Y-107608721D01*
X139930484Y-107608722D01*
X139767695Y-107658104D01*
X139683112Y-107666435D01*
X139640821Y-107670600D01*
X139251179Y-107670600D01*
X139208888Y-107666435D01*
X139124305Y-107658104D01*
X138961516Y-107608722D01*
X138961513Y-107608721D01*
X138811493Y-107528534D01*
X138811492Y-107528533D01*
X138811488Y-107528531D01*
X138679988Y-107420612D01*
X138572069Y-107289112D01*
X138572066Y-107289107D01*
X138491879Y-107139087D01*
X138455062Y-107017718D01*
X138442496Y-106976295D01*
X138425822Y-106807000D01*
X138442496Y-106637705D01*
X138491878Y-106474916D01*
X138491879Y-106474913D01*
X138572066Y-106324893D01*
X138572067Y-106324892D01*
X138572069Y-106324888D01*
X138679988Y-106193388D01*
X138811488Y-106085469D01*
X138811492Y-106085467D01*
X138811493Y-106085466D01*
X138961513Y-106005279D01*
X138961516Y-106005278D01*
X139124305Y-105955896D01*
X139208888Y-105947565D01*
X139251179Y-105943400D01*
X139640821Y-105943400D01*
X139683112Y-105947565D01*
G37*
G36*
X165968351Y-104386743D02*
G01*
X166113941Y-104447048D01*
X166244970Y-104534599D01*
X166356401Y-104646030D01*
X166443952Y-104777059D01*
X166504257Y-104922649D01*
X166535000Y-105077206D01*
X166535000Y-105234794D01*
X166504257Y-105389351D01*
X166443952Y-105534941D01*
X166356401Y-105665970D01*
X166244970Y-105777401D01*
X166113941Y-105864952D01*
X165968351Y-105925257D01*
X165813794Y-105956000D01*
X165656206Y-105956000D01*
X165501649Y-105925257D01*
X165356059Y-105864952D01*
X165225030Y-105777401D01*
X165113599Y-105665970D01*
X165026048Y-105534941D01*
X164965743Y-105389351D01*
X164935000Y-105234794D01*
X164935000Y-105077206D01*
X164965743Y-104922649D01*
X165026048Y-104777059D01*
X165113599Y-104646030D01*
X165225030Y-104534599D01*
X165356059Y-104447048D01*
X165501649Y-104386743D01*
X165656206Y-104356000D01*
X165813794Y-104356000D01*
X165968351Y-104386743D01*
G37*
G36*
X161777351Y-104386743D02*
G01*
X161922941Y-104447048D01*
X162053970Y-104534599D01*
X162165401Y-104646030D01*
X162252952Y-104777059D01*
X162313257Y-104922649D01*
X162344000Y-105077206D01*
X162344000Y-105234794D01*
X162313257Y-105389351D01*
X162252952Y-105534941D01*
X162165401Y-105665970D01*
X162053970Y-105777401D01*
X161922941Y-105864952D01*
X161777351Y-105925257D01*
X161622794Y-105956000D01*
X161465206Y-105956000D01*
X161310649Y-105925257D01*
X161165059Y-105864952D01*
X161034030Y-105777401D01*
X160922599Y-105665970D01*
X160835048Y-105534941D01*
X160774743Y-105389351D01*
X160744000Y-105234794D01*
X160744000Y-105077206D01*
X160774743Y-104922649D01*
X160835048Y-104777059D01*
X160922599Y-104646030D01*
X161034030Y-104534599D01*
X161165059Y-104447048D01*
X161310649Y-104386743D01*
X161465206Y-104356000D01*
X161622794Y-104356000D01*
X161777351Y-104386743D01*
G37*
G36*
X172459935Y-103576664D02*
G01*
X172614624Y-103640739D01*
X172614626Y-103640740D01*
X172753844Y-103733762D01*
X172872238Y-103852156D01*
X172965260Y-103991374D01*
X172965261Y-103991376D01*
X173029336Y-104146065D01*
X173062000Y-104310281D01*
X173062000Y-104477719D01*
X173029336Y-104641935D01*
X172973365Y-104777059D01*
X172965260Y-104796626D01*
X172872238Y-104935844D01*
X172753844Y-105054238D01*
X172614626Y-105147260D01*
X172614625Y-105147261D01*
X172614624Y-105147261D01*
X172459935Y-105211336D01*
X172295719Y-105244000D01*
X172128281Y-105244000D01*
X171964065Y-105211336D01*
X171809376Y-105147261D01*
X171809375Y-105147261D01*
X171809374Y-105147260D01*
X171670156Y-105054238D01*
X171551762Y-104935844D01*
X171458740Y-104796626D01*
X171450635Y-104777059D01*
X171394664Y-104641935D01*
X171362000Y-104477719D01*
X171362000Y-104310281D01*
X171394664Y-104146065D01*
X171458739Y-103991376D01*
X171458740Y-103991374D01*
X171551762Y-103852156D01*
X171670156Y-103733762D01*
X171809374Y-103640740D01*
X171809376Y-103640739D01*
X171964065Y-103576664D01*
X172128281Y-103544000D01*
X172295719Y-103544000D01*
X172459935Y-103576664D01*
G37*
G36*
X139683112Y-103407565D02*
G01*
X139767695Y-103415896D01*
X139930484Y-103465278D01*
X139930487Y-103465279D01*
X140080507Y-103545466D01*
X140080508Y-103545467D01*
X140080512Y-103545469D01*
X140212012Y-103653388D01*
X140319931Y-103784888D01*
X140319933Y-103784892D01*
X140319934Y-103784893D01*
X140400121Y-103934913D01*
X140400122Y-103934916D01*
X140449504Y-104097705D01*
X140466178Y-104267000D01*
X140449504Y-104436295D01*
X140404313Y-104585267D01*
X140400121Y-104599087D01*
X140355503Y-104682561D01*
X140319931Y-104749112D01*
X140212012Y-104880612D01*
X140080512Y-104988531D01*
X140080508Y-104988533D01*
X140080507Y-104988534D01*
X139930487Y-105068721D01*
X139930484Y-105068722D01*
X139767695Y-105118104D01*
X139683112Y-105126435D01*
X139640821Y-105130600D01*
X139251179Y-105130600D01*
X139208888Y-105126435D01*
X139124305Y-105118104D01*
X138961516Y-105068722D01*
X138961513Y-105068721D01*
X138811493Y-104988534D01*
X138811492Y-104988533D01*
X138811488Y-104988531D01*
X138679988Y-104880612D01*
X138572069Y-104749112D01*
X138536497Y-104682561D01*
X138491879Y-104599087D01*
X138487687Y-104585267D01*
X138442496Y-104436295D01*
X138425822Y-104267000D01*
X138442496Y-104097705D01*
X138491878Y-103934916D01*
X138491879Y-103934913D01*
X138572066Y-103784893D01*
X138572067Y-103784892D01*
X138572069Y-103784888D01*
X138679988Y-103653388D01*
X138811488Y-103545469D01*
X138811492Y-103545467D01*
X138811493Y-103545466D01*
X138961513Y-103465279D01*
X138961516Y-103465278D01*
X139124305Y-103415896D01*
X139208888Y-103407565D01*
X139251179Y-103403400D01*
X139640821Y-103403400D01*
X139683112Y-103407565D01*
G37*
G36*
X154923112Y-103407565D02*
G01*
X155007695Y-103415896D01*
X155170484Y-103465278D01*
X155170487Y-103465279D01*
X155320507Y-103545466D01*
X155320508Y-103545467D01*
X155320512Y-103545469D01*
X155452012Y-103653388D01*
X155559931Y-103784888D01*
X155559933Y-103784892D01*
X155559934Y-103784893D01*
X155640121Y-103934913D01*
X155640122Y-103934916D01*
X155689504Y-104097705D01*
X155706178Y-104267000D01*
X155689504Y-104436295D01*
X155644313Y-104585267D01*
X155640121Y-104599087D01*
X155595503Y-104682561D01*
X155559931Y-104749112D01*
X155452012Y-104880612D01*
X155320512Y-104988531D01*
X155320508Y-104988533D01*
X155320507Y-104988534D01*
X155170487Y-105068721D01*
X155170484Y-105068722D01*
X155007695Y-105118104D01*
X154923112Y-105126435D01*
X154880821Y-105130600D01*
X154491179Y-105130600D01*
X154448888Y-105126435D01*
X154364305Y-105118104D01*
X154201516Y-105068722D01*
X154201513Y-105068721D01*
X154051493Y-104988534D01*
X154051492Y-104988533D01*
X154051488Y-104988531D01*
X153919988Y-104880612D01*
X153812069Y-104749112D01*
X153776497Y-104682561D01*
X153731879Y-104599087D01*
X153727687Y-104585267D01*
X153682496Y-104436295D01*
X153665822Y-104267000D01*
X153682496Y-104097705D01*
X153731878Y-103934916D01*
X153731879Y-103934913D01*
X153812066Y-103784893D01*
X153812067Y-103784892D01*
X153812069Y-103784888D01*
X153919988Y-103653388D01*
X154051488Y-103545469D01*
X154051492Y-103545467D01*
X154051493Y-103545466D01*
X154201513Y-103465279D01*
X154201516Y-103465278D01*
X154364305Y-103415896D01*
X154448888Y-103407565D01*
X154491179Y-103403400D01*
X154880821Y-103403400D01*
X154923112Y-103407565D01*
G37*
G36*
X123393745Y-103468342D02*
G01*
X123520862Y-103520996D01*
X123520864Y-103520997D01*
X123635268Y-103597439D01*
X123732561Y-103694732D01*
X123792801Y-103784888D01*
X123809004Y-103809138D01*
X123861658Y-103936255D01*
X123888500Y-104071202D01*
X123888500Y-104208798D01*
X123861658Y-104343745D01*
X123809004Y-104470862D01*
X123809003Y-104470864D01*
X123732561Y-104585268D01*
X123635268Y-104682561D01*
X123520864Y-104759003D01*
X123520863Y-104759004D01*
X123520862Y-104759004D01*
X123393745Y-104811658D01*
X123258798Y-104838500D01*
X123121202Y-104838500D01*
X122986255Y-104811658D01*
X122859138Y-104759004D01*
X122859137Y-104759004D01*
X122859136Y-104759003D01*
X122744732Y-104682561D01*
X122647439Y-104585268D01*
X122570997Y-104470864D01*
X122570996Y-104470862D01*
X122518342Y-104343745D01*
X122491500Y-104208798D01*
X122491500Y-104071202D01*
X122518342Y-103936255D01*
X122570996Y-103809138D01*
X122587199Y-103784888D01*
X122647439Y-103694732D01*
X122744732Y-103597439D01*
X122859136Y-103520997D01*
X122859138Y-103520996D01*
X122986255Y-103468342D01*
X123121202Y-103441500D01*
X123258798Y-103441500D01*
X123393745Y-103468342D01*
G37*
G36*
X131013745Y-103468342D02*
G01*
X131140862Y-103520996D01*
X131140864Y-103520997D01*
X131255268Y-103597439D01*
X131352561Y-103694732D01*
X131412801Y-103784888D01*
X131429004Y-103809138D01*
X131481658Y-103936255D01*
X131508500Y-104071202D01*
X131508500Y-104208798D01*
X131481658Y-104343745D01*
X131429004Y-104470862D01*
X131429003Y-104470864D01*
X131352561Y-104585268D01*
X131255268Y-104682561D01*
X131140864Y-104759003D01*
X131140863Y-104759004D01*
X131140862Y-104759004D01*
X131013745Y-104811658D01*
X130878798Y-104838500D01*
X130741202Y-104838500D01*
X130606255Y-104811658D01*
X130479138Y-104759004D01*
X130479137Y-104759004D01*
X130479136Y-104759003D01*
X130364732Y-104682561D01*
X130267439Y-104585268D01*
X130190997Y-104470864D01*
X130190996Y-104470862D01*
X130138342Y-104343745D01*
X130111500Y-104208798D01*
X130111500Y-104071202D01*
X130138342Y-103936255D01*
X130190996Y-103809138D01*
X130207199Y-103784888D01*
X130267439Y-103694732D01*
X130364732Y-103597439D01*
X130479136Y-103520997D01*
X130479138Y-103520996D01*
X130606255Y-103468342D01*
X130741202Y-103441500D01*
X130878798Y-103441500D01*
X131013745Y-103468342D01*
G37*
G36*
X172459935Y-101036664D02*
G01*
X172614624Y-101100739D01*
X172614626Y-101100740D01*
X172753844Y-101193762D01*
X172872238Y-101312156D01*
X172927534Y-101394913D01*
X172965261Y-101451376D01*
X173029336Y-101606065D01*
X173062000Y-101770281D01*
X173062000Y-101937719D01*
X173029336Y-102101935D01*
X172984943Y-102209107D01*
X172965260Y-102256626D01*
X172872238Y-102395844D01*
X172753844Y-102514238D01*
X172614626Y-102607260D01*
X172614625Y-102607261D01*
X172614624Y-102607261D01*
X172459935Y-102671336D01*
X172295719Y-102704000D01*
X172128281Y-102704000D01*
X171964065Y-102671336D01*
X171809376Y-102607261D01*
X171809375Y-102607261D01*
X171809374Y-102607260D01*
X171670156Y-102514238D01*
X171551762Y-102395844D01*
X171458740Y-102256626D01*
X171439057Y-102209107D01*
X171394664Y-102101935D01*
X171362000Y-101937719D01*
X171362000Y-101770281D01*
X171394664Y-101606065D01*
X171458739Y-101451376D01*
X171496466Y-101394913D01*
X171551762Y-101312156D01*
X171670156Y-101193762D01*
X171809374Y-101100740D01*
X171809376Y-101100739D01*
X171964065Y-101036664D01*
X172128281Y-101004000D01*
X172295719Y-101004000D01*
X172459935Y-101036664D01*
G37*
G36*
X139683112Y-100867565D02*
G01*
X139767695Y-100875896D01*
X139930484Y-100925278D01*
X139930487Y-100925279D01*
X140080507Y-101005466D01*
X140080508Y-101005467D01*
X140080512Y-101005469D01*
X140212012Y-101113388D01*
X140319931Y-101244888D01*
X140319933Y-101244892D01*
X140319934Y-101244893D01*
X140400121Y-101394913D01*
X140400122Y-101394916D01*
X140449504Y-101557705D01*
X140466178Y-101727000D01*
X140449504Y-101896295D01*
X140436938Y-101937718D01*
X140400121Y-102059087D01*
X140319934Y-102209107D01*
X140319931Y-102209112D01*
X140212012Y-102340612D01*
X140080512Y-102448531D01*
X140080508Y-102448533D01*
X140080507Y-102448534D01*
X139930487Y-102528721D01*
X139930484Y-102528722D01*
X139767695Y-102578104D01*
X139683112Y-102586435D01*
X139640821Y-102590600D01*
X139251179Y-102590600D01*
X139208888Y-102586435D01*
X139124305Y-102578104D01*
X138961516Y-102528722D01*
X138961513Y-102528721D01*
X138811493Y-102448534D01*
X138811492Y-102448533D01*
X138811488Y-102448531D01*
X138679988Y-102340612D01*
X138572069Y-102209112D01*
X138572066Y-102209107D01*
X138491879Y-102059087D01*
X138455062Y-101937718D01*
X138442496Y-101896295D01*
X138425822Y-101727000D01*
X138442496Y-101557705D01*
X138491878Y-101394916D01*
X138491879Y-101394913D01*
X138572066Y-101244893D01*
X138572067Y-101244892D01*
X138572069Y-101244888D01*
X138679988Y-101113388D01*
X138811488Y-101005469D01*
X138811492Y-101005467D01*
X138811493Y-101005466D01*
X138961513Y-100925279D01*
X138961516Y-100925278D01*
X139124305Y-100875896D01*
X139208888Y-100867565D01*
X139251179Y-100863400D01*
X139640821Y-100863400D01*
X139683112Y-100867565D01*
G37*
G36*
X154923112Y-100867565D02*
G01*
X155007695Y-100875896D01*
X155170484Y-100925278D01*
X155170487Y-100925279D01*
X155320507Y-101005466D01*
X155320508Y-101005467D01*
X155320512Y-101005469D01*
X155452012Y-101113388D01*
X155559931Y-101244888D01*
X155559933Y-101244892D01*
X155559934Y-101244893D01*
X155640121Y-101394913D01*
X155640122Y-101394916D01*
X155689504Y-101557705D01*
X155706178Y-101727000D01*
X155689504Y-101896295D01*
X155676938Y-101937718D01*
X155640121Y-102059087D01*
X155559934Y-102209107D01*
X155559931Y-102209112D01*
X155452012Y-102340612D01*
X155320512Y-102448531D01*
X155320508Y-102448533D01*
X155320507Y-102448534D01*
X155170487Y-102528721D01*
X155170484Y-102528722D01*
X155007695Y-102578104D01*
X154923112Y-102586435D01*
X154880821Y-102590600D01*
X154491179Y-102590600D01*
X154448888Y-102586435D01*
X154364305Y-102578104D01*
X154201516Y-102528722D01*
X154201513Y-102528721D01*
X154051493Y-102448534D01*
X154051492Y-102448533D01*
X154051488Y-102448531D01*
X153919988Y-102340612D01*
X153812069Y-102209112D01*
X153812066Y-102209107D01*
X153731879Y-102059087D01*
X153695062Y-101937718D01*
X153682496Y-101896295D01*
X153665822Y-101727000D01*
X153682496Y-101557705D01*
X153731878Y-101394916D01*
X153731879Y-101394913D01*
X153812066Y-101244893D01*
X153812067Y-101244892D01*
X153812069Y-101244888D01*
X153919988Y-101113388D01*
X154051488Y-101005469D01*
X154051492Y-101005467D01*
X154051493Y-101005466D01*
X154201513Y-100925279D01*
X154201516Y-100925278D01*
X154364305Y-100875896D01*
X154448888Y-100867565D01*
X154491179Y-100863400D01*
X154880821Y-100863400D01*
X154923112Y-100867565D01*
G37*
G36*
X172459935Y-98496664D02*
G01*
X172598282Y-98553970D01*
X172614626Y-98560740D01*
X172753844Y-98653762D01*
X172872238Y-98772156D01*
X172920242Y-98844000D01*
X172965261Y-98911376D01*
X173029336Y-99066065D01*
X173062000Y-99230281D01*
X173062000Y-99397719D01*
X173029336Y-99561935D01*
X172984943Y-99669107D01*
X172965260Y-99716626D01*
X172872238Y-99855844D01*
X172753844Y-99974238D01*
X172614626Y-100067260D01*
X172614625Y-100067261D01*
X172614624Y-100067261D01*
X172459935Y-100131336D01*
X172295719Y-100164000D01*
X172128281Y-100164000D01*
X171964065Y-100131336D01*
X171809376Y-100067261D01*
X171809375Y-100067261D01*
X171809374Y-100067260D01*
X171670156Y-99974238D01*
X171551762Y-99855844D01*
X171458740Y-99716626D01*
X171439057Y-99669107D01*
X171394664Y-99561935D01*
X171362000Y-99397719D01*
X171362000Y-99230281D01*
X171394664Y-99066065D01*
X171458739Y-98911376D01*
X171503758Y-98844000D01*
X171551762Y-98772156D01*
X171670156Y-98653762D01*
X171809374Y-98560740D01*
X171825718Y-98553970D01*
X171964065Y-98496664D01*
X172128281Y-98464000D01*
X172295719Y-98464000D01*
X172459935Y-98496664D01*
G37*
G36*
X154923112Y-98327565D02*
G01*
X155007695Y-98335896D01*
X155170484Y-98385278D01*
X155170487Y-98385279D01*
X155320507Y-98465466D01*
X155320508Y-98465467D01*
X155320512Y-98465469D01*
X155452012Y-98573388D01*
X155559931Y-98704888D01*
X155559933Y-98704892D01*
X155559934Y-98704893D01*
X155640121Y-98854913D01*
X155640122Y-98854916D01*
X155689504Y-99017705D01*
X155706178Y-99187000D01*
X155689504Y-99356295D01*
X155676938Y-99397718D01*
X155640121Y-99519087D01*
X155559934Y-99669107D01*
X155559931Y-99669112D01*
X155452012Y-99800612D01*
X155320512Y-99908531D01*
X155320508Y-99908533D01*
X155320507Y-99908534D01*
X155170487Y-99988721D01*
X155170484Y-99988722D01*
X155007695Y-100038104D01*
X154923112Y-100046435D01*
X154880821Y-100050600D01*
X154491179Y-100050600D01*
X154448888Y-100046435D01*
X154364305Y-100038104D01*
X154201516Y-99988722D01*
X154201513Y-99988721D01*
X154051493Y-99908534D01*
X154051492Y-99908533D01*
X154051488Y-99908531D01*
X153919988Y-99800612D01*
X153812069Y-99669112D01*
X153812066Y-99669107D01*
X153731879Y-99519087D01*
X153695062Y-99397718D01*
X153682496Y-99356295D01*
X153665822Y-99187000D01*
X153682496Y-99017705D01*
X153731878Y-98854916D01*
X153731879Y-98854913D01*
X153812066Y-98704893D01*
X153812067Y-98704892D01*
X153812069Y-98704888D01*
X153919988Y-98573388D01*
X154051488Y-98465469D01*
X154051492Y-98465467D01*
X154051493Y-98465466D01*
X154201513Y-98385279D01*
X154201516Y-98385278D01*
X154364305Y-98335896D01*
X154448888Y-98327565D01*
X154491179Y-98323400D01*
X154880821Y-98323400D01*
X154923112Y-98327565D01*
G37*
G36*
X139683112Y-98327565D02*
G01*
X139767695Y-98335896D01*
X139930484Y-98385278D01*
X139930487Y-98385279D01*
X140080507Y-98465466D01*
X140080508Y-98465467D01*
X140080512Y-98465469D01*
X140212012Y-98573388D01*
X140319931Y-98704888D01*
X140319933Y-98704892D01*
X140319934Y-98704893D01*
X140400121Y-98854913D01*
X140400122Y-98854916D01*
X140449504Y-99017705D01*
X140466178Y-99187000D01*
X140449504Y-99356295D01*
X140436938Y-99397718D01*
X140400121Y-99519087D01*
X140319934Y-99669107D01*
X140319931Y-99669112D01*
X140212012Y-99800612D01*
X140080512Y-99908531D01*
X140080508Y-99908533D01*
X140080507Y-99908534D01*
X139930487Y-99988721D01*
X139930484Y-99988722D01*
X139767695Y-100038104D01*
X139683112Y-100046435D01*
X139640821Y-100050600D01*
X139251179Y-100050600D01*
X139208888Y-100046435D01*
X139124305Y-100038104D01*
X138961516Y-99988722D01*
X138961513Y-99988721D01*
X138811493Y-99908534D01*
X138811492Y-99908533D01*
X138811488Y-99908531D01*
X138679988Y-99800612D01*
X138572069Y-99669112D01*
X138572066Y-99669107D01*
X138491879Y-99519087D01*
X138455062Y-99397718D01*
X138442496Y-99356295D01*
X138425822Y-99187000D01*
X138442496Y-99017705D01*
X138491878Y-98854916D01*
X138491879Y-98854913D01*
X138572066Y-98704893D01*
X138572067Y-98704892D01*
X138572069Y-98704888D01*
X138679988Y-98573388D01*
X138811488Y-98465469D01*
X138811492Y-98465467D01*
X138811493Y-98465466D01*
X138961513Y-98385279D01*
X138961516Y-98385278D01*
X139124305Y-98335896D01*
X139208888Y-98327565D01*
X139251179Y-98323400D01*
X139640821Y-98323400D01*
X139683112Y-98327565D01*
G37*
G36*
X122407351Y-97274743D02*
G01*
X122552941Y-97335048D01*
X122683970Y-97422599D01*
X122795401Y-97534030D01*
X122882952Y-97665059D01*
X122943257Y-97810649D01*
X122974000Y-97965206D01*
X122974000Y-98122794D01*
X122943257Y-98277351D01*
X122882952Y-98422941D01*
X122795401Y-98553970D01*
X122683970Y-98665401D01*
X122552941Y-98752952D01*
X122407351Y-98813257D01*
X122252794Y-98844000D01*
X122095206Y-98844000D01*
X121940649Y-98813257D01*
X121795059Y-98752952D01*
X121664030Y-98665401D01*
X121552599Y-98553970D01*
X121465048Y-98422941D01*
X121404743Y-98277351D01*
X121374000Y-98122794D01*
X121374000Y-97965206D01*
X121404743Y-97810649D01*
X121465048Y-97665059D01*
X121552599Y-97534030D01*
X121664030Y-97422599D01*
X121795059Y-97335048D01*
X121940649Y-97274743D01*
X122095206Y-97244000D01*
X122252794Y-97244000D01*
X122407351Y-97274743D01*
G37*
G36*
X132567351Y-97274743D02*
G01*
X132712941Y-97335048D01*
X132843970Y-97422599D01*
X132955401Y-97534030D01*
X133042952Y-97665059D01*
X133103257Y-97810649D01*
X133134000Y-97965206D01*
X133134000Y-98122794D01*
X133103257Y-98277351D01*
X133042952Y-98422941D01*
X132955401Y-98553970D01*
X132843970Y-98665401D01*
X132712941Y-98752952D01*
X132567351Y-98813257D01*
X132412794Y-98844000D01*
X132255206Y-98844000D01*
X132100649Y-98813257D01*
X131955059Y-98752952D01*
X131824030Y-98665401D01*
X131712599Y-98553970D01*
X131625048Y-98422941D01*
X131564743Y-98277351D01*
X131534000Y-98122794D01*
X131534000Y-97965206D01*
X131564743Y-97810649D01*
X131625048Y-97665059D01*
X131712599Y-97534030D01*
X131824030Y-97422599D01*
X131955059Y-97335048D01*
X132100649Y-97274743D01*
X132255206Y-97244000D01*
X132412794Y-97244000D01*
X132567351Y-97274743D01*
G37*
G36*
X172459935Y-95956664D02*
G01*
X172614624Y-96020739D01*
X172614626Y-96020740D01*
X172753844Y-96113762D01*
X172872238Y-96232156D01*
X172927534Y-96314913D01*
X172965261Y-96371376D01*
X173029336Y-96526065D01*
X173062000Y-96690281D01*
X173062000Y-96857719D01*
X173029336Y-97021935D01*
X172984943Y-97129107D01*
X172965260Y-97176626D01*
X172872238Y-97315844D01*
X172753844Y-97434238D01*
X172614626Y-97527260D01*
X172614625Y-97527261D01*
X172614624Y-97527261D01*
X172459935Y-97591336D01*
X172295719Y-97624000D01*
X172128281Y-97624000D01*
X171964065Y-97591336D01*
X171809376Y-97527261D01*
X171809375Y-97527261D01*
X171809374Y-97527260D01*
X171670156Y-97434238D01*
X171551762Y-97315844D01*
X171458740Y-97176626D01*
X171439057Y-97129107D01*
X171394664Y-97021935D01*
X171362000Y-96857719D01*
X171362000Y-96690281D01*
X171394664Y-96526065D01*
X171458739Y-96371376D01*
X171496466Y-96314913D01*
X171551762Y-96232156D01*
X171670156Y-96113762D01*
X171809374Y-96020740D01*
X171809376Y-96020739D01*
X171964065Y-95956664D01*
X172128281Y-95924000D01*
X172295719Y-95924000D01*
X172459935Y-95956664D01*
G37*
G36*
X154923112Y-95787565D02*
G01*
X155007695Y-95795896D01*
X155170484Y-95845278D01*
X155170487Y-95845279D01*
X155320507Y-95925466D01*
X155320508Y-95925467D01*
X155320512Y-95925469D01*
X155452012Y-96033388D01*
X155559931Y-96164888D01*
X155559933Y-96164892D01*
X155559934Y-96164893D01*
X155640121Y-96314913D01*
X155640122Y-96314916D01*
X155689504Y-96477705D01*
X155706178Y-96647000D01*
X155689504Y-96816295D01*
X155676938Y-96857718D01*
X155640121Y-96979087D01*
X155559934Y-97129107D01*
X155559931Y-97129112D01*
X155452012Y-97260612D01*
X155320512Y-97368531D01*
X155320508Y-97368533D01*
X155320507Y-97368534D01*
X155170487Y-97448721D01*
X155170484Y-97448722D01*
X155007695Y-97498104D01*
X154923112Y-97506435D01*
X154880821Y-97510600D01*
X154491179Y-97510600D01*
X154448888Y-97506435D01*
X154364305Y-97498104D01*
X154201516Y-97448722D01*
X154201513Y-97448721D01*
X154051493Y-97368534D01*
X154051492Y-97368533D01*
X154051488Y-97368531D01*
X153919988Y-97260612D01*
X153812069Y-97129112D01*
X153812066Y-97129107D01*
X153731879Y-96979087D01*
X153695062Y-96857718D01*
X153682496Y-96816295D01*
X153665822Y-96647000D01*
X153682496Y-96477705D01*
X153731878Y-96314916D01*
X153731879Y-96314913D01*
X153812066Y-96164893D01*
X153812067Y-96164892D01*
X153812069Y-96164888D01*
X153919988Y-96033388D01*
X154051488Y-95925469D01*
X154051492Y-95925467D01*
X154051493Y-95925466D01*
X154201513Y-95845279D01*
X154201516Y-95845278D01*
X154364305Y-95795896D01*
X154448888Y-95787565D01*
X154491179Y-95783400D01*
X154880821Y-95783400D01*
X154923112Y-95787565D01*
G37*
G36*
X139683112Y-95787565D02*
G01*
X139767695Y-95795896D01*
X139930484Y-95845278D01*
X139930487Y-95845279D01*
X140080507Y-95925466D01*
X140080508Y-95925467D01*
X140080512Y-95925469D01*
X140212012Y-96033388D01*
X140319931Y-96164888D01*
X140319933Y-96164892D01*
X140319934Y-96164893D01*
X140400121Y-96314913D01*
X140400122Y-96314916D01*
X140449504Y-96477705D01*
X140466178Y-96647000D01*
X140449504Y-96816295D01*
X140436938Y-96857718D01*
X140400121Y-96979087D01*
X140319934Y-97129107D01*
X140319931Y-97129112D01*
X140212012Y-97260612D01*
X140080512Y-97368531D01*
X140080508Y-97368533D01*
X140080507Y-97368534D01*
X139930487Y-97448721D01*
X139930484Y-97448722D01*
X139767695Y-97498104D01*
X139683112Y-97506435D01*
X139640821Y-97510600D01*
X139251179Y-97510600D01*
X139208888Y-97506435D01*
X139124305Y-97498104D01*
X138961516Y-97448722D01*
X138961513Y-97448721D01*
X138811493Y-97368534D01*
X138811492Y-97368533D01*
X138811488Y-97368531D01*
X138679988Y-97260612D01*
X138572069Y-97129112D01*
X138572066Y-97129107D01*
X138491879Y-96979087D01*
X138455062Y-96857718D01*
X138442496Y-96816295D01*
X138425822Y-96647000D01*
X138442496Y-96477705D01*
X138491878Y-96314916D01*
X138491879Y-96314913D01*
X138572066Y-96164893D01*
X138572067Y-96164892D01*
X138572069Y-96164888D01*
X138679988Y-96033388D01*
X138811488Y-95925469D01*
X138811492Y-95925467D01*
X138811493Y-95925466D01*
X138961513Y-95845279D01*
X138961516Y-95845278D01*
X139124305Y-95795896D01*
X139208888Y-95787565D01*
X139251179Y-95783400D01*
X139640821Y-95783400D01*
X139683112Y-95787565D01*
G37*
G36*
X161777351Y-94226743D02*
G01*
X161922941Y-94287048D01*
X162053970Y-94374599D01*
X162165401Y-94486030D01*
X162252952Y-94617059D01*
X162313257Y-94762649D01*
X162344000Y-94917206D01*
X162344000Y-95074794D01*
X162313257Y-95229351D01*
X162252952Y-95374941D01*
X162165401Y-95505970D01*
X162053970Y-95617401D01*
X161922941Y-95704952D01*
X161777351Y-95765257D01*
X161622794Y-95796000D01*
X161465206Y-95796000D01*
X161310649Y-95765257D01*
X161165059Y-95704952D01*
X161034030Y-95617401D01*
X160922599Y-95505970D01*
X160835048Y-95374941D01*
X160774743Y-95229351D01*
X160744000Y-95074794D01*
X160744000Y-94917206D01*
X160774743Y-94762649D01*
X160835048Y-94617059D01*
X160922599Y-94486030D01*
X161034030Y-94374599D01*
X161165059Y-94287048D01*
X161310649Y-94226743D01*
X161465206Y-94196000D01*
X161622794Y-94196000D01*
X161777351Y-94226743D01*
G37*
G36*
X165968351Y-94226743D02*
G01*
X166113941Y-94287048D01*
X166244970Y-94374599D01*
X166356401Y-94486030D01*
X166443952Y-94617059D01*
X166504257Y-94762649D01*
X166535000Y-94917206D01*
X166535000Y-95074794D01*
X166504257Y-95229351D01*
X166443952Y-95374941D01*
X166356401Y-95505970D01*
X166244970Y-95617401D01*
X166113941Y-95704952D01*
X165968351Y-95765257D01*
X165813794Y-95796000D01*
X165656206Y-95796000D01*
X165501649Y-95765257D01*
X165356059Y-95704952D01*
X165225030Y-95617401D01*
X165113599Y-95505970D01*
X165026048Y-95374941D01*
X164965743Y-95229351D01*
X164935000Y-95074794D01*
X164935000Y-94917206D01*
X164965743Y-94762649D01*
X165026048Y-94617059D01*
X165113599Y-94486030D01*
X165225030Y-94374599D01*
X165356059Y-94287048D01*
X165501649Y-94226743D01*
X165656206Y-94196000D01*
X165813794Y-94196000D01*
X165968351Y-94226743D01*
G37*
G36*
X173062000Y-95084000D02*
G01*
X171362000Y-95084000D01*
X171362000Y-93384000D01*
X173062000Y-93384000D01*
X173062000Y-95084000D01*
G37*
G36*
X154923112Y-93247565D02*
G01*
X155007695Y-93255896D01*
X155170484Y-93305278D01*
X155170487Y-93305279D01*
X155320507Y-93385466D01*
X155320508Y-93385467D01*
X155320512Y-93385469D01*
X155452012Y-93493388D01*
X155559931Y-93624888D01*
X155559933Y-93624892D01*
X155559934Y-93624893D01*
X155640121Y-93774913D01*
X155640122Y-93774916D01*
X155689504Y-93937705D01*
X155706178Y-94107000D01*
X155689504Y-94276295D01*
X155640122Y-94439084D01*
X155640121Y-94439087D01*
X155559934Y-94589107D01*
X155559931Y-94589112D01*
X155452012Y-94720612D01*
X155320512Y-94828531D01*
X155320508Y-94828533D01*
X155320507Y-94828534D01*
X155170487Y-94908721D01*
X155170484Y-94908722D01*
X155007695Y-94958104D01*
X154923112Y-94966435D01*
X154880821Y-94970600D01*
X154491179Y-94970600D01*
X154448888Y-94966435D01*
X154364305Y-94958104D01*
X154201516Y-94908722D01*
X154201513Y-94908721D01*
X154051493Y-94828534D01*
X154051492Y-94828533D01*
X154051488Y-94828531D01*
X153919988Y-94720612D01*
X153812069Y-94589112D01*
X153812066Y-94589107D01*
X153731879Y-94439087D01*
X153731878Y-94439084D01*
X153682496Y-94276295D01*
X153665822Y-94107000D01*
X153682496Y-93937705D01*
X153731878Y-93774916D01*
X153731879Y-93774913D01*
X153812066Y-93624893D01*
X153812067Y-93624892D01*
X153812069Y-93624888D01*
X153919988Y-93493388D01*
X154051488Y-93385469D01*
X154051492Y-93385467D01*
X154051493Y-93385466D01*
X154201513Y-93305279D01*
X154201516Y-93305278D01*
X154364305Y-93255896D01*
X154448888Y-93247565D01*
X154491179Y-93243400D01*
X154880821Y-93243400D01*
X154923112Y-93247565D01*
G37*
G36*
X139683112Y-93247565D02*
G01*
X139767695Y-93255896D01*
X139930484Y-93305278D01*
X139930487Y-93305279D01*
X140080507Y-93385466D01*
X140080508Y-93385467D01*
X140080512Y-93385469D01*
X140212012Y-93493388D01*
X140319931Y-93624888D01*
X140319933Y-93624892D01*
X140319934Y-93624893D01*
X140400121Y-93774913D01*
X140400122Y-93774916D01*
X140449504Y-93937705D01*
X140466178Y-94107000D01*
X140449504Y-94276295D01*
X140400122Y-94439084D01*
X140400121Y-94439087D01*
X140319934Y-94589107D01*
X140319931Y-94589112D01*
X140212012Y-94720612D01*
X140080512Y-94828531D01*
X140080508Y-94828533D01*
X140080507Y-94828534D01*
X139930487Y-94908721D01*
X139930484Y-94908722D01*
X139767695Y-94958104D01*
X139683112Y-94966435D01*
X139640821Y-94970600D01*
X139251179Y-94970600D01*
X139208888Y-94966435D01*
X139124305Y-94958104D01*
X138961516Y-94908722D01*
X138961513Y-94908721D01*
X138811493Y-94828534D01*
X138811492Y-94828533D01*
X138811488Y-94828531D01*
X138679988Y-94720612D01*
X138572069Y-94589112D01*
X138572066Y-94589107D01*
X138491879Y-94439087D01*
X138491878Y-94439084D01*
X138442496Y-94276295D01*
X138425822Y-94107000D01*
X138442496Y-93937705D01*
X138491878Y-93774916D01*
X138491879Y-93774913D01*
X138572066Y-93624893D01*
X138572067Y-93624892D01*
X138572069Y-93624888D01*
X138679988Y-93493388D01*
X138811488Y-93385469D01*
X138811492Y-93385467D01*
X138811493Y-93385466D01*
X138961513Y-93305279D01*
X138961516Y-93305278D01*
X139124305Y-93255896D01*
X139208888Y-93247565D01*
X139251179Y-93243400D01*
X139640821Y-93243400D01*
X139683112Y-93247565D01*
G37*
G36*
X128717351Y-91940743D02*
G01*
X128862941Y-92001048D01*
X128993970Y-92088599D01*
X129105401Y-92200030D01*
X129192952Y-92331059D01*
X129253257Y-92476649D01*
X129284000Y-92631206D01*
X129284000Y-92788794D01*
X129253257Y-92943351D01*
X129192952Y-93088941D01*
X129105401Y-93219970D01*
X128993970Y-93331401D01*
X128862941Y-93418952D01*
X128717351Y-93479257D01*
X128562794Y-93510000D01*
X128405206Y-93510000D01*
X128250649Y-93479257D01*
X128105059Y-93418952D01*
X127974030Y-93331401D01*
X127862599Y-93219970D01*
X127775048Y-93088941D01*
X127714743Y-92943351D01*
X127684000Y-92788794D01*
X127684000Y-92631206D01*
X127714743Y-92476649D01*
X127775048Y-92331059D01*
X127862599Y-92200030D01*
X127974030Y-92088599D01*
X128105059Y-92001048D01*
X128250649Y-91940743D01*
X128405206Y-91910000D01*
X128562794Y-91910000D01*
X128717351Y-91940743D01*
G37*
G36*
X126217351Y-91940743D02*
G01*
X126362941Y-92001048D01*
X126493970Y-92088599D01*
X126605401Y-92200030D01*
X126692952Y-92331059D01*
X126753257Y-92476649D01*
X126784000Y-92631206D01*
X126784000Y-92788794D01*
X126753257Y-92943351D01*
X126692952Y-93088941D01*
X126605401Y-93219970D01*
X126493970Y-93331401D01*
X126362941Y-93418952D01*
X126217351Y-93479257D01*
X126062794Y-93510000D01*
X125905206Y-93510000D01*
X125750649Y-93479257D01*
X125605059Y-93418952D01*
X125474030Y-93331401D01*
X125362599Y-93219970D01*
X125275048Y-93088941D01*
X125214743Y-92943351D01*
X125184000Y-92788794D01*
X125184000Y-92631206D01*
X125214743Y-92476649D01*
X125275048Y-92331059D01*
X125362599Y-92200030D01*
X125474030Y-92088599D01*
X125605059Y-92001048D01*
X125750649Y-91940743D01*
X125905206Y-91910000D01*
X126062794Y-91910000D01*
X126217351Y-91940743D01*
G37*
G36*
X154923112Y-90707565D02*
G01*
X155007695Y-90715896D01*
X155170484Y-90765278D01*
X155170487Y-90765279D01*
X155320507Y-90845466D01*
X155320508Y-90845467D01*
X155320512Y-90845469D01*
X155452012Y-90953388D01*
X155559931Y-91084888D01*
X155559933Y-91084892D01*
X155559934Y-91084893D01*
X155640121Y-91234913D01*
X155640122Y-91234916D01*
X155689504Y-91397705D01*
X155706178Y-91567000D01*
X155689504Y-91736295D01*
X155640122Y-91899084D01*
X155640121Y-91899087D01*
X155585622Y-92001048D01*
X155559931Y-92049112D01*
X155452012Y-92180612D01*
X155320512Y-92288531D01*
X155320508Y-92288533D01*
X155320507Y-92288534D01*
X155170487Y-92368721D01*
X155170484Y-92368722D01*
X155007695Y-92418104D01*
X154923112Y-92426435D01*
X154880821Y-92430600D01*
X154491179Y-92430600D01*
X154448888Y-92426435D01*
X154364305Y-92418104D01*
X154201516Y-92368722D01*
X154201513Y-92368721D01*
X154051493Y-92288534D01*
X154051492Y-92288533D01*
X154051488Y-92288531D01*
X153919988Y-92180612D01*
X153812069Y-92049112D01*
X153786378Y-92001048D01*
X153731879Y-91899087D01*
X153731878Y-91899084D01*
X153682496Y-91736295D01*
X153665822Y-91567000D01*
X153682496Y-91397705D01*
X153731878Y-91234916D01*
X153731879Y-91234913D01*
X153812066Y-91084893D01*
X153812067Y-91084892D01*
X153812069Y-91084888D01*
X153919988Y-90953388D01*
X154051488Y-90845469D01*
X154051492Y-90845467D01*
X154051493Y-90845466D01*
X154201513Y-90765279D01*
X154201516Y-90765278D01*
X154364305Y-90715896D01*
X154448888Y-90707565D01*
X154491179Y-90703400D01*
X154880821Y-90703400D01*
X154923112Y-90707565D01*
G37*
G36*
X139683112Y-90707565D02*
G01*
X139767695Y-90715896D01*
X139930484Y-90765278D01*
X139930487Y-90765279D01*
X140080507Y-90845466D01*
X140080508Y-90845467D01*
X140080512Y-90845469D01*
X140212012Y-90953388D01*
X140319931Y-91084888D01*
X140319933Y-91084892D01*
X140319934Y-91084893D01*
X140400121Y-91234913D01*
X140400122Y-91234916D01*
X140449504Y-91397705D01*
X140466178Y-91567000D01*
X140449504Y-91736295D01*
X140400122Y-91899084D01*
X140400121Y-91899087D01*
X140345622Y-92001048D01*
X140319931Y-92049112D01*
X140212012Y-92180612D01*
X140080512Y-92288531D01*
X140080508Y-92288533D01*
X140080507Y-92288534D01*
X139930487Y-92368721D01*
X139930484Y-92368722D01*
X139767695Y-92418104D01*
X139683112Y-92426435D01*
X139640821Y-92430600D01*
X139251179Y-92430600D01*
X139208888Y-92426435D01*
X139124305Y-92418104D01*
X138961516Y-92368722D01*
X138961513Y-92368721D01*
X138811493Y-92288534D01*
X138811492Y-92288533D01*
X138811488Y-92288531D01*
X138679988Y-92180612D01*
X138572069Y-92049112D01*
X138546378Y-92001048D01*
X138491879Y-91899087D01*
X138491878Y-91899084D01*
X138442496Y-91736295D01*
X138425822Y-91567000D01*
X138442496Y-91397705D01*
X138491878Y-91234916D01*
X138491879Y-91234913D01*
X138572066Y-91084893D01*
X138572067Y-91084892D01*
X138572069Y-91084888D01*
X138679988Y-90953388D01*
X138811488Y-90845469D01*
X138811492Y-90845467D01*
X138811493Y-90845466D01*
X138961513Y-90765279D01*
X138961516Y-90765278D01*
X139124305Y-90715896D01*
X139208888Y-90707565D01*
X139251179Y-90703400D01*
X139640821Y-90703400D01*
X139683112Y-90707565D01*
G37*
G36*
X154923112Y-88167565D02*
G01*
X155007695Y-88175896D01*
X155170484Y-88225278D01*
X155170487Y-88225279D01*
X155320507Y-88305466D01*
X155320508Y-88305467D01*
X155320512Y-88305469D01*
X155452012Y-88413388D01*
X155559931Y-88544888D01*
X155559933Y-88544892D01*
X155559934Y-88544893D01*
X155640121Y-88694913D01*
X155640122Y-88694916D01*
X155689504Y-88857705D01*
X155706178Y-89027000D01*
X155689504Y-89196295D01*
X155640122Y-89359084D01*
X155640121Y-89359087D01*
X155559934Y-89509107D01*
X155559931Y-89509112D01*
X155452012Y-89640612D01*
X155320512Y-89748531D01*
X155320508Y-89748533D01*
X155320507Y-89748534D01*
X155170487Y-89828721D01*
X155170484Y-89828722D01*
X155007695Y-89878104D01*
X154923112Y-89886435D01*
X154880821Y-89890600D01*
X154491179Y-89890600D01*
X154448888Y-89886435D01*
X154364305Y-89878104D01*
X154201516Y-89828722D01*
X154201513Y-89828721D01*
X154051493Y-89748534D01*
X154051492Y-89748533D01*
X154051488Y-89748531D01*
X153919988Y-89640612D01*
X153812069Y-89509112D01*
X153812066Y-89509107D01*
X153731879Y-89359087D01*
X153731878Y-89359084D01*
X153682496Y-89196295D01*
X153665822Y-89027000D01*
X153682496Y-88857705D01*
X153731878Y-88694916D01*
X153731879Y-88694913D01*
X153812066Y-88544893D01*
X153812067Y-88544892D01*
X153812069Y-88544888D01*
X153919988Y-88413388D01*
X154051488Y-88305469D01*
X154051492Y-88305467D01*
X154051493Y-88305466D01*
X154201513Y-88225279D01*
X154201516Y-88225278D01*
X154364305Y-88175896D01*
X154448888Y-88167565D01*
X154491179Y-88163400D01*
X154880821Y-88163400D01*
X154923112Y-88167565D01*
G37*
G36*
X139683112Y-88167565D02*
G01*
X139767695Y-88175896D01*
X139930484Y-88225278D01*
X139930487Y-88225279D01*
X140080507Y-88305466D01*
X140080508Y-88305467D01*
X140080512Y-88305469D01*
X140212012Y-88413388D01*
X140319931Y-88544888D01*
X140319933Y-88544892D01*
X140319934Y-88544893D01*
X140400121Y-88694913D01*
X140400122Y-88694916D01*
X140449504Y-88857705D01*
X140466178Y-89027000D01*
X140449504Y-89196295D01*
X140400122Y-89359084D01*
X140400121Y-89359087D01*
X140319934Y-89509107D01*
X140319931Y-89509112D01*
X140212012Y-89640612D01*
X140080512Y-89748531D01*
X140080508Y-89748533D01*
X140080507Y-89748534D01*
X139930487Y-89828721D01*
X139930484Y-89828722D01*
X139767695Y-89878104D01*
X139683112Y-89886435D01*
X139640821Y-89890600D01*
X139251179Y-89890600D01*
X139208888Y-89886435D01*
X139124305Y-89878104D01*
X138961516Y-89828722D01*
X138961513Y-89828721D01*
X138811493Y-89748534D01*
X138811492Y-89748533D01*
X138811488Y-89748531D01*
X138679988Y-89640612D01*
X138572069Y-89509112D01*
X138572066Y-89509107D01*
X138491879Y-89359087D01*
X138491878Y-89359084D01*
X138442496Y-89196295D01*
X138425822Y-89027000D01*
X138442496Y-88857705D01*
X138491878Y-88694916D01*
X138491879Y-88694913D01*
X138572066Y-88544893D01*
X138572067Y-88544892D01*
X138572069Y-88544888D01*
X138679988Y-88413388D01*
X138811488Y-88305469D01*
X138811492Y-88305467D01*
X138811493Y-88305466D01*
X138961513Y-88225279D01*
X138961516Y-88225278D01*
X139124305Y-88175896D01*
X139208888Y-88167565D01*
X139251179Y-88163400D01*
X139640821Y-88163400D01*
X139683112Y-88167565D01*
G37*
G36*
X154923112Y-85627565D02*
G01*
X155007695Y-85635896D01*
X155170484Y-85685278D01*
X155170487Y-85685279D01*
X155320507Y-85765466D01*
X155320508Y-85765467D01*
X155320512Y-85765469D01*
X155452012Y-85873388D01*
X155559931Y-86004888D01*
X155559933Y-86004892D01*
X155559934Y-86004893D01*
X155640121Y-86154913D01*
X155640122Y-86154916D01*
X155689504Y-86317705D01*
X155706178Y-86487000D01*
X155689504Y-86656295D01*
X155640122Y-86819084D01*
X155640121Y-86819087D01*
X155559934Y-86969107D01*
X155559931Y-86969112D01*
X155452012Y-87100612D01*
X155320512Y-87208531D01*
X155320508Y-87208533D01*
X155320507Y-87208534D01*
X155170487Y-87288721D01*
X155170484Y-87288722D01*
X155007695Y-87338104D01*
X154923112Y-87346435D01*
X154880821Y-87350600D01*
X154491179Y-87350600D01*
X154448888Y-87346435D01*
X154364305Y-87338104D01*
X154201516Y-87288722D01*
X154201513Y-87288721D01*
X154051493Y-87208534D01*
X154051492Y-87208533D01*
X154051488Y-87208531D01*
X153919988Y-87100612D01*
X153812069Y-86969112D01*
X153812066Y-86969107D01*
X153731879Y-86819087D01*
X153731878Y-86819084D01*
X153682496Y-86656295D01*
X153665822Y-86487000D01*
X153682496Y-86317705D01*
X153731878Y-86154916D01*
X153731879Y-86154913D01*
X153812066Y-86004893D01*
X153812067Y-86004892D01*
X153812069Y-86004888D01*
X153919988Y-85873388D01*
X154051488Y-85765469D01*
X154051492Y-85765467D01*
X154051493Y-85765466D01*
X154201513Y-85685279D01*
X154201516Y-85685278D01*
X154364305Y-85635896D01*
X154448888Y-85627565D01*
X154491179Y-85623400D01*
X154880821Y-85623400D01*
X154923112Y-85627565D01*
G37*
G36*
X139683112Y-85627565D02*
G01*
X139767695Y-85635896D01*
X139930484Y-85685278D01*
X139930487Y-85685279D01*
X140080507Y-85765466D01*
X140080508Y-85765467D01*
X140080512Y-85765469D01*
X140212012Y-85873388D01*
X140319931Y-86004888D01*
X140319933Y-86004892D01*
X140319934Y-86004893D01*
X140400121Y-86154913D01*
X140400122Y-86154916D01*
X140449504Y-86317705D01*
X140466178Y-86487000D01*
X140449504Y-86656295D01*
X140400122Y-86819084D01*
X140400121Y-86819087D01*
X140319934Y-86969107D01*
X140319931Y-86969112D01*
X140212012Y-87100612D01*
X140080512Y-87208531D01*
X140080508Y-87208533D01*
X140080507Y-87208534D01*
X139930487Y-87288721D01*
X139930484Y-87288722D01*
X139767695Y-87338104D01*
X139683112Y-87346435D01*
X139640821Y-87350600D01*
X139251179Y-87350600D01*
X139208888Y-87346435D01*
X139124305Y-87338104D01*
X138961516Y-87288722D01*
X138961513Y-87288721D01*
X138811493Y-87208534D01*
X138811492Y-87208533D01*
X138811488Y-87208531D01*
X138679988Y-87100612D01*
X138572069Y-86969112D01*
X138572066Y-86969107D01*
X138491879Y-86819087D01*
X138491878Y-86819084D01*
X138442496Y-86656295D01*
X138425822Y-86487000D01*
X138442496Y-86317705D01*
X138491878Y-86154916D01*
X138491879Y-86154913D01*
X138572066Y-86004893D01*
X138572067Y-86004892D01*
X138572069Y-86004888D01*
X138679988Y-85873388D01*
X138811488Y-85765469D01*
X138811492Y-85765467D01*
X138811493Y-85765466D01*
X138961513Y-85685279D01*
X138961516Y-85685278D01*
X139124305Y-85635896D01*
X139208888Y-85627565D01*
X139251179Y-85623400D01*
X139640821Y-85623400D01*
X139683112Y-85627565D01*
G37*
G36*
X167728000Y-86194000D02*
G01*
X166028000Y-86194000D01*
X166028000Y-84494000D01*
X167728000Y-84494000D01*
X167728000Y-86194000D01*
G37*
G36*
X169665935Y-84526664D02*
G01*
X169820624Y-84590739D01*
X169820626Y-84590740D01*
X169959844Y-84683762D01*
X170078238Y-84802156D01*
X170171260Y-84941374D01*
X170171261Y-84941376D01*
X170235336Y-85096065D01*
X170268000Y-85260281D01*
X170268000Y-85427719D01*
X170235336Y-85591935D01*
X170196671Y-85685279D01*
X170171260Y-85746626D01*
X170078238Y-85885844D01*
X169959844Y-86004238D01*
X169820626Y-86097260D01*
X169820625Y-86097261D01*
X169820624Y-86097261D01*
X169665935Y-86161336D01*
X169501719Y-86194000D01*
X169334281Y-86194000D01*
X169170065Y-86161336D01*
X169015376Y-86097261D01*
X169015375Y-86097261D01*
X169015374Y-86097260D01*
X168876156Y-86004238D01*
X168757762Y-85885844D01*
X168664740Y-85746626D01*
X168639329Y-85685279D01*
X168600664Y-85591935D01*
X168568000Y-85427719D01*
X168568000Y-85260281D01*
X168600664Y-85096065D01*
X168664739Y-84941376D01*
X168664740Y-84941374D01*
X168757762Y-84802156D01*
X168876156Y-84683762D01*
X169015374Y-84590740D01*
X169015376Y-84590739D01*
X169170065Y-84526664D01*
X169334281Y-84494000D01*
X169501719Y-84494000D01*
X169665935Y-84526664D01*
G37*
G36*
X172205935Y-84526664D02*
G01*
X172360624Y-84590739D01*
X172360626Y-84590740D01*
X172499844Y-84683762D01*
X172618238Y-84802156D01*
X172711260Y-84941374D01*
X172711261Y-84941376D01*
X172775336Y-85096065D01*
X172808000Y-85260281D01*
X172808000Y-85427719D01*
X172775336Y-85591935D01*
X172736671Y-85685279D01*
X172711260Y-85746626D01*
X172618238Y-85885844D01*
X172499844Y-86004238D01*
X172360626Y-86097260D01*
X172360625Y-86097261D01*
X172360624Y-86097261D01*
X172205935Y-86161336D01*
X172041719Y-86194000D01*
X171874281Y-86194000D01*
X171710065Y-86161336D01*
X171555376Y-86097261D01*
X171555375Y-86097261D01*
X171555374Y-86097260D01*
X171416156Y-86004238D01*
X171297762Y-85885844D01*
X171204740Y-85746626D01*
X171179329Y-85685279D01*
X171140664Y-85591935D01*
X171108000Y-85427719D01*
X171108000Y-85260281D01*
X171140664Y-85096065D01*
X171204739Y-84941376D01*
X171204740Y-84941374D01*
X171297762Y-84802156D01*
X171416156Y-84683762D01*
X171555374Y-84590740D01*
X171555376Y-84590739D01*
X171710065Y-84526664D01*
X171874281Y-84494000D01*
X172041719Y-84494000D01*
X172205935Y-84526664D01*
G37*
G36*
X128263935Y-83764664D02*
G01*
X128418624Y-83828739D01*
X128418626Y-83828740D01*
X128557844Y-83921762D01*
X128676238Y-84040156D01*
X128727112Y-84116295D01*
X128769261Y-84179376D01*
X128833336Y-84334065D01*
X128866000Y-84498281D01*
X128866000Y-84665719D01*
X128833336Y-84829935D01*
X128787176Y-84941374D01*
X128769260Y-84984626D01*
X128676238Y-85123844D01*
X128557844Y-85242238D01*
X128418626Y-85335260D01*
X128418625Y-85335261D01*
X128418624Y-85335261D01*
X128263935Y-85399336D01*
X128099719Y-85432000D01*
X127932281Y-85432000D01*
X127768065Y-85399336D01*
X127613376Y-85335261D01*
X127613375Y-85335261D01*
X127613374Y-85335260D01*
X127474156Y-85242238D01*
X127355762Y-85123844D01*
X127262740Y-84984626D01*
X127244824Y-84941374D01*
X127198664Y-84829935D01*
X127166000Y-84665719D01*
X127166000Y-84498281D01*
X127198664Y-84334065D01*
X127262739Y-84179376D01*
X127304888Y-84116295D01*
X127355762Y-84040156D01*
X127474156Y-83921762D01*
X127613374Y-83828740D01*
X127613376Y-83828739D01*
X127768065Y-83764664D01*
X127932281Y-83732000D01*
X128099719Y-83732000D01*
X128263935Y-83764664D01*
G37*
G36*
X123786000Y-85432000D02*
G01*
X122086000Y-85432000D01*
X122086000Y-83732000D01*
X123786000Y-83732000D01*
X123786000Y-85432000D01*
G37*
G36*
X125723935Y-83764664D02*
G01*
X125878624Y-83828739D01*
X125878626Y-83828740D01*
X126017844Y-83921762D01*
X126136238Y-84040156D01*
X126187112Y-84116295D01*
X126229261Y-84179376D01*
X126293336Y-84334065D01*
X126326000Y-84498281D01*
X126326000Y-84665719D01*
X126293336Y-84829935D01*
X126247176Y-84941374D01*
X126229260Y-84984626D01*
X126136238Y-85123844D01*
X126017844Y-85242238D01*
X125878626Y-85335260D01*
X125878625Y-85335261D01*
X125878624Y-85335261D01*
X125723935Y-85399336D01*
X125559719Y-85432000D01*
X125392281Y-85432000D01*
X125228065Y-85399336D01*
X125073376Y-85335261D01*
X125073375Y-85335261D01*
X125073374Y-85335260D01*
X124934156Y-85242238D01*
X124815762Y-85123844D01*
X124722740Y-84984626D01*
X124704824Y-84941374D01*
X124658664Y-84829935D01*
X124626000Y-84665719D01*
X124626000Y-84498281D01*
X124658664Y-84334065D01*
X124722739Y-84179376D01*
X124764888Y-84116295D01*
X124815762Y-84040156D01*
X124934156Y-83921762D01*
X125073374Y-83828740D01*
X125073376Y-83828739D01*
X125228065Y-83764664D01*
X125392281Y-83732000D01*
X125559719Y-83732000D01*
X125723935Y-83764664D01*
G37*
G36*
X154923112Y-83087565D02*
G01*
X155007695Y-83095896D01*
X155170484Y-83145278D01*
X155170487Y-83145279D01*
X155320507Y-83225466D01*
X155320508Y-83225467D01*
X155320512Y-83225469D01*
X155452012Y-83333388D01*
X155559931Y-83464888D01*
X155559933Y-83464892D01*
X155559934Y-83464893D01*
X155640121Y-83614913D01*
X155640122Y-83614916D01*
X155689504Y-83777705D01*
X155706178Y-83947000D01*
X155689504Y-84116295D01*
X155670369Y-84179374D01*
X155640121Y-84279087D01*
X155559934Y-84429107D01*
X155559931Y-84429112D01*
X155452012Y-84560612D01*
X155320512Y-84668531D01*
X155320508Y-84668533D01*
X155320507Y-84668534D01*
X155170487Y-84748721D01*
X155170484Y-84748722D01*
X155007695Y-84798104D01*
X154923112Y-84806435D01*
X154880821Y-84810600D01*
X154491179Y-84810600D01*
X154448888Y-84806435D01*
X154364305Y-84798104D01*
X154201516Y-84748722D01*
X154201513Y-84748721D01*
X154051493Y-84668534D01*
X154051492Y-84668533D01*
X154051488Y-84668531D01*
X153919988Y-84560612D01*
X153812069Y-84429112D01*
X153812066Y-84429107D01*
X153731879Y-84279087D01*
X153701631Y-84179374D01*
X153682496Y-84116295D01*
X153665822Y-83947000D01*
X153682496Y-83777705D01*
X153731878Y-83614916D01*
X153731879Y-83614913D01*
X153812066Y-83464893D01*
X153812067Y-83464892D01*
X153812069Y-83464888D01*
X153919988Y-83333388D01*
X154051488Y-83225469D01*
X154051492Y-83225467D01*
X154051493Y-83225466D01*
X154201513Y-83145279D01*
X154201516Y-83145278D01*
X154364305Y-83095896D01*
X154448888Y-83087565D01*
X154491179Y-83083400D01*
X154880821Y-83083400D01*
X154923112Y-83087565D01*
G37*
G36*
X139683112Y-83087565D02*
G01*
X139767695Y-83095896D01*
X139930484Y-83145278D01*
X139930487Y-83145279D01*
X140080507Y-83225466D01*
X140080508Y-83225467D01*
X140080512Y-83225469D01*
X140212012Y-83333388D01*
X140319931Y-83464888D01*
X140319933Y-83464892D01*
X140319934Y-83464893D01*
X140400121Y-83614913D01*
X140400122Y-83614916D01*
X140449504Y-83777705D01*
X140466178Y-83947000D01*
X140449504Y-84116295D01*
X140430369Y-84179374D01*
X140400121Y-84279087D01*
X140319934Y-84429107D01*
X140319931Y-84429112D01*
X140212012Y-84560612D01*
X140080512Y-84668531D01*
X140080508Y-84668533D01*
X140080507Y-84668534D01*
X139930487Y-84748721D01*
X139930484Y-84748722D01*
X139767695Y-84798104D01*
X139683112Y-84806435D01*
X139640821Y-84810600D01*
X139251179Y-84810600D01*
X139208888Y-84806435D01*
X139124305Y-84798104D01*
X138961516Y-84748722D01*
X138961513Y-84748721D01*
X138811493Y-84668534D01*
X138811492Y-84668533D01*
X138811488Y-84668531D01*
X138679988Y-84560612D01*
X138572069Y-84429112D01*
X138572066Y-84429107D01*
X138491879Y-84279087D01*
X138461631Y-84179374D01*
X138442496Y-84116295D01*
X138425822Y-83947000D01*
X138442496Y-83777705D01*
X138491878Y-83614916D01*
X138491879Y-83614913D01*
X138572066Y-83464893D01*
X138572067Y-83464892D01*
X138572069Y-83464888D01*
X138679988Y-83333388D01*
X138811488Y-83225469D01*
X138811492Y-83225467D01*
X138811493Y-83225466D01*
X138961513Y-83145279D01*
X138961516Y-83145278D01*
X139124305Y-83095896D01*
X139208888Y-83087565D01*
X139251179Y-83083400D01*
X139640821Y-83083400D01*
X139683112Y-83087565D01*
G37*
G36*
X161505000Y-84289000D02*
G01*
X159805000Y-84289000D01*
X159805000Y-82589000D01*
X161505000Y-82589000D01*
X161505000Y-84289000D01*
G37*
G36*
X172205935Y-80970664D02*
G01*
X172360624Y-81034739D01*
X172360626Y-81034740D01*
X172499844Y-81127762D01*
X172618238Y-81246156D01*
X172711260Y-81385374D01*
X172711261Y-81385376D01*
X172775336Y-81540065D01*
X172808000Y-81704281D01*
X172808000Y-81871719D01*
X172775336Y-82035935D01*
X172711261Y-82190624D01*
X172711260Y-82190626D01*
X172618238Y-82329844D01*
X172499844Y-82448238D01*
X172360626Y-82541260D01*
X172360625Y-82541261D01*
X172360624Y-82541261D01*
X172205935Y-82605336D01*
X172041719Y-82638000D01*
X171874281Y-82638000D01*
X171710065Y-82605336D01*
X171555376Y-82541261D01*
X171555375Y-82541261D01*
X171555374Y-82541260D01*
X171416156Y-82448238D01*
X171297762Y-82329844D01*
X171204740Y-82190626D01*
X171204739Y-82190624D01*
X171140664Y-82035935D01*
X171108000Y-81871719D01*
X171108000Y-81704281D01*
X171140664Y-81540065D01*
X171204739Y-81385376D01*
X171204740Y-81385374D01*
X171297762Y-81246156D01*
X171416156Y-81127762D01*
X171555374Y-81034740D01*
X171555376Y-81034739D01*
X171710065Y-80970664D01*
X171874281Y-80938000D01*
X172041719Y-80938000D01*
X172205935Y-80970664D01*
G37*
G36*
X169665935Y-80970664D02*
G01*
X169820624Y-81034739D01*
X169820626Y-81034740D01*
X169959844Y-81127762D01*
X170078238Y-81246156D01*
X170171260Y-81385374D01*
X170171261Y-81385376D01*
X170235336Y-81540065D01*
X170268000Y-81704281D01*
X170268000Y-81871719D01*
X170235336Y-82035935D01*
X170171261Y-82190624D01*
X170171260Y-82190626D01*
X170078238Y-82329844D01*
X169959844Y-82448238D01*
X169820626Y-82541260D01*
X169820625Y-82541261D01*
X169820624Y-82541261D01*
X169665935Y-82605336D01*
X169501719Y-82638000D01*
X169334281Y-82638000D01*
X169170065Y-82605336D01*
X169015376Y-82541261D01*
X169015375Y-82541261D01*
X169015374Y-82541260D01*
X168876156Y-82448238D01*
X168757762Y-82329844D01*
X168664740Y-82190626D01*
X168664739Y-82190624D01*
X168600664Y-82035935D01*
X168568000Y-81871719D01*
X168568000Y-81704281D01*
X168600664Y-81540065D01*
X168664739Y-81385376D01*
X168664740Y-81385374D01*
X168757762Y-81246156D01*
X168876156Y-81127762D01*
X169015374Y-81034740D01*
X169015376Y-81034739D01*
X169170065Y-80970664D01*
X169334281Y-80938000D01*
X169501719Y-80938000D01*
X169665935Y-80970664D01*
G37*
G36*
X167728000Y-82638000D02*
G01*
X166028000Y-82638000D01*
X166028000Y-80938000D01*
X167728000Y-80938000D01*
X167728000Y-82638000D01*
G37*
G36*
X139683112Y-80547565D02*
G01*
X139767695Y-80555896D01*
X139930484Y-80605278D01*
X139930487Y-80605279D01*
X140080507Y-80685466D01*
X140080508Y-80685467D01*
X140080512Y-80685469D01*
X140212012Y-80793388D01*
X140319931Y-80924888D01*
X140319933Y-80924892D01*
X140319934Y-80924893D01*
X140400121Y-81074913D01*
X140400122Y-81074916D01*
X140449504Y-81237705D01*
X140466178Y-81407000D01*
X140449504Y-81576295D01*
X140400122Y-81739084D01*
X140400121Y-81739087D01*
X140319934Y-81889107D01*
X140319931Y-81889112D01*
X140212012Y-82020612D01*
X140080512Y-82128531D01*
X140080508Y-82128533D01*
X140080507Y-82128534D01*
X139930487Y-82208721D01*
X139930484Y-82208722D01*
X139767695Y-82258104D01*
X139683112Y-82266435D01*
X139640821Y-82270600D01*
X139251179Y-82270600D01*
X139208888Y-82266435D01*
X139124305Y-82258104D01*
X138961516Y-82208722D01*
X138961513Y-82208721D01*
X138811493Y-82128534D01*
X138811492Y-82128533D01*
X138811488Y-82128531D01*
X138679988Y-82020612D01*
X138572069Y-81889112D01*
X138572066Y-81889107D01*
X138491879Y-81739087D01*
X138491878Y-81739084D01*
X138442496Y-81576295D01*
X138425822Y-81407000D01*
X138442496Y-81237705D01*
X138491878Y-81074916D01*
X138491879Y-81074913D01*
X138572066Y-80924893D01*
X138572067Y-80924892D01*
X138572069Y-80924888D01*
X138679988Y-80793388D01*
X138811488Y-80685469D01*
X138811492Y-80685467D01*
X138811493Y-80685466D01*
X138961513Y-80605279D01*
X138961516Y-80605278D01*
X139124305Y-80555896D01*
X139208888Y-80547565D01*
X139251179Y-80543400D01*
X139640821Y-80543400D01*
X139683112Y-80547565D01*
G37*
G36*
X154923112Y-80547565D02*
G01*
X155007695Y-80555896D01*
X155170484Y-80605278D01*
X155170487Y-80605279D01*
X155320507Y-80685466D01*
X155320508Y-80685467D01*
X155320512Y-80685469D01*
X155452012Y-80793388D01*
X155559931Y-80924888D01*
X155559933Y-80924892D01*
X155559934Y-80924893D01*
X155640121Y-81074913D01*
X155640122Y-81074916D01*
X155689504Y-81237705D01*
X155706178Y-81407000D01*
X155689504Y-81576295D01*
X155640122Y-81739084D01*
X155640121Y-81739087D01*
X155559934Y-81889107D01*
X155559931Y-81889112D01*
X155452012Y-82020612D01*
X155320512Y-82128531D01*
X155320508Y-82128533D01*
X155320507Y-82128534D01*
X155170487Y-82208721D01*
X155170484Y-82208722D01*
X155007695Y-82258104D01*
X154923112Y-82266435D01*
X154880821Y-82270600D01*
X154491179Y-82270600D01*
X154448888Y-82266435D01*
X154364305Y-82258104D01*
X154201516Y-82208722D01*
X154201513Y-82208721D01*
X154051493Y-82128534D01*
X154051492Y-82128533D01*
X154051488Y-82128531D01*
X153919988Y-82020612D01*
X153812069Y-81889112D01*
X153812066Y-81889107D01*
X153731879Y-81739087D01*
X153731878Y-81739084D01*
X153682496Y-81576295D01*
X153665822Y-81407000D01*
X153682496Y-81237705D01*
X153731878Y-81074916D01*
X153731879Y-81074913D01*
X153812066Y-80924893D01*
X153812067Y-80924892D01*
X153812069Y-80924888D01*
X153919988Y-80793388D01*
X154051488Y-80685469D01*
X154051492Y-80685467D01*
X154051493Y-80685466D01*
X154201513Y-80605279D01*
X154201516Y-80605278D01*
X154364305Y-80555896D01*
X154448888Y-80547565D01*
X154491179Y-80543400D01*
X154880821Y-80543400D01*
X154923112Y-80547565D01*
G37*
G36*
X123786000Y-81876000D02*
G01*
X122086000Y-81876000D01*
X122086000Y-80176000D01*
X123786000Y-80176000D01*
X123786000Y-81876000D01*
G37*
G36*
X128263935Y-80208664D02*
G01*
X128418624Y-80272739D01*
X128418626Y-80272740D01*
X128557844Y-80365762D01*
X128676238Y-80484156D01*
X128757169Y-80605279D01*
X128769261Y-80623376D01*
X128833336Y-80778065D01*
X128866000Y-80942281D01*
X128866000Y-81109719D01*
X128833336Y-81273935D01*
X128787176Y-81385374D01*
X128769260Y-81428626D01*
X128676238Y-81567844D01*
X128557844Y-81686238D01*
X128418626Y-81779260D01*
X128418625Y-81779261D01*
X128418624Y-81779261D01*
X128263935Y-81843336D01*
X128099719Y-81876000D01*
X127932281Y-81876000D01*
X127768065Y-81843336D01*
X127613376Y-81779261D01*
X127613375Y-81779261D01*
X127613374Y-81779260D01*
X127474156Y-81686238D01*
X127355762Y-81567844D01*
X127262740Y-81428626D01*
X127244824Y-81385374D01*
X127198664Y-81273935D01*
X127166000Y-81109719D01*
X127166000Y-80942281D01*
X127198664Y-80778065D01*
X127262739Y-80623376D01*
X127274831Y-80605279D01*
X127355762Y-80484156D01*
X127474156Y-80365762D01*
X127613374Y-80272740D01*
X127613376Y-80272739D01*
X127768065Y-80208664D01*
X127932281Y-80176000D01*
X128099719Y-80176000D01*
X128263935Y-80208664D01*
G37*
G36*
X125723935Y-80208664D02*
G01*
X125878624Y-80272739D01*
X125878626Y-80272740D01*
X126017844Y-80365762D01*
X126136238Y-80484156D01*
X126217169Y-80605279D01*
X126229261Y-80623376D01*
X126293336Y-80778065D01*
X126326000Y-80942281D01*
X126326000Y-81109719D01*
X126293336Y-81273935D01*
X126247176Y-81385374D01*
X126229260Y-81428626D01*
X126136238Y-81567844D01*
X126017844Y-81686238D01*
X125878626Y-81779260D01*
X125878625Y-81779261D01*
X125878624Y-81779261D01*
X125723935Y-81843336D01*
X125559719Y-81876000D01*
X125392281Y-81876000D01*
X125228065Y-81843336D01*
X125073376Y-81779261D01*
X125073375Y-81779261D01*
X125073374Y-81779260D01*
X124934156Y-81686238D01*
X124815762Y-81567844D01*
X124722740Y-81428626D01*
X124704824Y-81385374D01*
X124658664Y-81273935D01*
X124626000Y-81109719D01*
X124626000Y-80942281D01*
X124658664Y-80778065D01*
X124722739Y-80623376D01*
X124734831Y-80605279D01*
X124815762Y-80484156D01*
X124934156Y-80365762D01*
X125073374Y-80272740D01*
X125073376Y-80272739D01*
X125228065Y-80208664D01*
X125392281Y-80176000D01*
X125559719Y-80176000D01*
X125723935Y-80208664D01*
G37*
G36*
X160902935Y-80081664D02*
G01*
X161057624Y-80145739D01*
X161057626Y-80145740D01*
X161196844Y-80238762D01*
X161315238Y-80357156D01*
X161320988Y-80365762D01*
X161408261Y-80496376D01*
X161472336Y-80651065D01*
X161505000Y-80815281D01*
X161505000Y-80982719D01*
X161472336Y-81146935D01*
X161431237Y-81246156D01*
X161408260Y-81301626D01*
X161315238Y-81440844D01*
X161196844Y-81559238D01*
X161057626Y-81652260D01*
X161057625Y-81652261D01*
X161057624Y-81652261D01*
X160902935Y-81716336D01*
X160738719Y-81749000D01*
X160571281Y-81749000D01*
X160407065Y-81716336D01*
X160252376Y-81652261D01*
X160252375Y-81652261D01*
X160252374Y-81652260D01*
X160113156Y-81559238D01*
X159994762Y-81440844D01*
X159901740Y-81301626D01*
X159878763Y-81246156D01*
X159837664Y-81146935D01*
X159805000Y-80982719D01*
X159805000Y-80815281D01*
X159837664Y-80651065D01*
X159901739Y-80496376D01*
X159989012Y-80365762D01*
X159994762Y-80357156D01*
X160113156Y-80238762D01*
X160252374Y-80145740D01*
X160252376Y-80145739D01*
X160407065Y-80081664D01*
X160571281Y-80049000D01*
X160738719Y-80049000D01*
X160902935Y-80081664D01*
G37*
G36*
X139683112Y-78007565D02*
G01*
X139767695Y-78015896D01*
X139930484Y-78065278D01*
X139930487Y-78065279D01*
X140080507Y-78145466D01*
X140080508Y-78145467D01*
X140080512Y-78145469D01*
X140212012Y-78253388D01*
X140319931Y-78384888D01*
X140319933Y-78384892D01*
X140319934Y-78384893D01*
X140400121Y-78534913D01*
X140400122Y-78534916D01*
X140449504Y-78697705D01*
X140466178Y-78867000D01*
X140449504Y-79036295D01*
X140400122Y-79199084D01*
X140400121Y-79199087D01*
X140394822Y-79209000D01*
X140319931Y-79349112D01*
X140212012Y-79480612D01*
X140080512Y-79588531D01*
X140080508Y-79588533D01*
X140080507Y-79588534D01*
X139930487Y-79668721D01*
X139930484Y-79668722D01*
X139767695Y-79718104D01*
X139683112Y-79726435D01*
X139640821Y-79730600D01*
X139251179Y-79730600D01*
X139208888Y-79726435D01*
X139124305Y-79718104D01*
X138961516Y-79668722D01*
X138961513Y-79668721D01*
X138811493Y-79588534D01*
X138811492Y-79588533D01*
X138811488Y-79588531D01*
X138679988Y-79480612D01*
X138572069Y-79349112D01*
X138497178Y-79209000D01*
X138491879Y-79199087D01*
X138491878Y-79199084D01*
X138442496Y-79036295D01*
X138425822Y-78867000D01*
X138442496Y-78697705D01*
X138491878Y-78534916D01*
X138491879Y-78534913D01*
X138572066Y-78384893D01*
X138572067Y-78384892D01*
X138572069Y-78384888D01*
X138679988Y-78253388D01*
X138811488Y-78145469D01*
X138811492Y-78145467D01*
X138811493Y-78145466D01*
X138961513Y-78065279D01*
X138961516Y-78065278D01*
X139124305Y-78015896D01*
X139208888Y-78007565D01*
X139251179Y-78003400D01*
X139640821Y-78003400D01*
X139683112Y-78007565D01*
G37*
G36*
X154923112Y-78007565D02*
G01*
X155007695Y-78015896D01*
X155170484Y-78065278D01*
X155170487Y-78065279D01*
X155320507Y-78145466D01*
X155320508Y-78145467D01*
X155320512Y-78145469D01*
X155452012Y-78253388D01*
X155559931Y-78384888D01*
X155559933Y-78384892D01*
X155559934Y-78384893D01*
X155640121Y-78534913D01*
X155640122Y-78534916D01*
X155689504Y-78697705D01*
X155706178Y-78867000D01*
X155689504Y-79036295D01*
X155640122Y-79199084D01*
X155640121Y-79199087D01*
X155634822Y-79209000D01*
X155559931Y-79349112D01*
X155452012Y-79480612D01*
X155320512Y-79588531D01*
X155320508Y-79588533D01*
X155320507Y-79588534D01*
X155170487Y-79668721D01*
X155170484Y-79668722D01*
X155007695Y-79718104D01*
X154923112Y-79726435D01*
X154880821Y-79730600D01*
X154491179Y-79730600D01*
X154448888Y-79726435D01*
X154364305Y-79718104D01*
X154201516Y-79668722D01*
X154201513Y-79668721D01*
X154051493Y-79588534D01*
X154051492Y-79588533D01*
X154051488Y-79588531D01*
X153919988Y-79480612D01*
X153812069Y-79349112D01*
X153737178Y-79209000D01*
X153731879Y-79199087D01*
X153731878Y-79199084D01*
X153682496Y-79036295D01*
X153665822Y-78867000D01*
X153682496Y-78697705D01*
X153731878Y-78534916D01*
X153731879Y-78534913D01*
X153812066Y-78384893D01*
X153812067Y-78384892D01*
X153812069Y-78384888D01*
X153919988Y-78253388D01*
X154051488Y-78145469D01*
X154051492Y-78145467D01*
X154051493Y-78145466D01*
X154201513Y-78065279D01*
X154201516Y-78065278D01*
X154364305Y-78015896D01*
X154448888Y-78007565D01*
X154491179Y-78003400D01*
X154880821Y-78003400D01*
X154923112Y-78007565D01*
G37*
G36*
X160902935Y-77541664D02*
G01*
X161057624Y-77605739D01*
X161057626Y-77605740D01*
X161196844Y-77698762D01*
X161315238Y-77817156D01*
X161408260Y-77956374D01*
X161408261Y-77956376D01*
X161472336Y-78111065D01*
X161505000Y-78275281D01*
X161505000Y-78442719D01*
X161472336Y-78606935D01*
X161408261Y-78761624D01*
X161408260Y-78761626D01*
X161315238Y-78900844D01*
X161196844Y-79019238D01*
X161057626Y-79112260D01*
X161057625Y-79112261D01*
X161057624Y-79112261D01*
X160902935Y-79176336D01*
X160738719Y-79209000D01*
X160571281Y-79209000D01*
X160407065Y-79176336D01*
X160252376Y-79112261D01*
X160252375Y-79112261D01*
X160252374Y-79112260D01*
X160113156Y-79019238D01*
X159994762Y-78900844D01*
X159901740Y-78761626D01*
X159901739Y-78761624D01*
X159837664Y-78606935D01*
X159805000Y-78442719D01*
X159805000Y-78275281D01*
X159837664Y-78111065D01*
X159901739Y-77956376D01*
X159901740Y-77956374D01*
X159994762Y-77817156D01*
X160113156Y-77698762D01*
X160252374Y-77605740D01*
X160252376Y-77605739D01*
X160407065Y-77541664D01*
X160571281Y-77509000D01*
X160738719Y-77509000D01*
X160902935Y-77541664D01*
G37*
G36*
X172205935Y-77414664D02*
G01*
X172360624Y-77478739D01*
X172360626Y-77478740D01*
X172499844Y-77571762D01*
X172618238Y-77690156D01*
X172703096Y-77817156D01*
X172711261Y-77829376D01*
X172775336Y-77984065D01*
X172808000Y-78148281D01*
X172808000Y-78315719D01*
X172775336Y-78479935D01*
X172722730Y-78606935D01*
X172711260Y-78634626D01*
X172618238Y-78773844D01*
X172499844Y-78892238D01*
X172360626Y-78985260D01*
X172360625Y-78985261D01*
X172360624Y-78985261D01*
X172205935Y-79049336D01*
X172041719Y-79082000D01*
X171874281Y-79082000D01*
X171710065Y-79049336D01*
X171555376Y-78985261D01*
X171555375Y-78985261D01*
X171555374Y-78985260D01*
X171416156Y-78892238D01*
X171297762Y-78773844D01*
X171204740Y-78634626D01*
X171193270Y-78606935D01*
X171140664Y-78479935D01*
X171108000Y-78315719D01*
X171108000Y-78148281D01*
X171140664Y-77984065D01*
X171204739Y-77829376D01*
X171212904Y-77817156D01*
X171297762Y-77690156D01*
X171416156Y-77571762D01*
X171555374Y-77478740D01*
X171555376Y-77478739D01*
X171710065Y-77414664D01*
X171874281Y-77382000D01*
X172041719Y-77382000D01*
X172205935Y-77414664D01*
G37*
G36*
X169665935Y-77414664D02*
G01*
X169820624Y-77478739D01*
X169820626Y-77478740D01*
X169959844Y-77571762D01*
X170078238Y-77690156D01*
X170163096Y-77817156D01*
X170171261Y-77829376D01*
X170235336Y-77984065D01*
X170268000Y-78148281D01*
X170268000Y-78315719D01*
X170235336Y-78479935D01*
X170182730Y-78606935D01*
X170171260Y-78634626D01*
X170078238Y-78773844D01*
X169959844Y-78892238D01*
X169820626Y-78985260D01*
X169820625Y-78985261D01*
X169820624Y-78985261D01*
X169665935Y-79049336D01*
X169501719Y-79082000D01*
X169334281Y-79082000D01*
X169170065Y-79049336D01*
X169015376Y-78985261D01*
X169015375Y-78985261D01*
X169015374Y-78985260D01*
X168876156Y-78892238D01*
X168757762Y-78773844D01*
X168664740Y-78634626D01*
X168653270Y-78606935D01*
X168600664Y-78479935D01*
X168568000Y-78315719D01*
X168568000Y-78148281D01*
X168600664Y-77984065D01*
X168664739Y-77829376D01*
X168672904Y-77817156D01*
X168757762Y-77690156D01*
X168876156Y-77571762D01*
X169015374Y-77478740D01*
X169015376Y-77478739D01*
X169170065Y-77414664D01*
X169334281Y-77382000D01*
X169501719Y-77382000D01*
X169665935Y-77414664D01*
G37*
G36*
X167728000Y-79082000D02*
G01*
X166028000Y-79082000D01*
X166028000Y-77382000D01*
X167728000Y-77382000D01*
X167728000Y-79082000D01*
G37*
G36*
X123786000Y-78320000D02*
G01*
X122086000Y-78320000D01*
X122086000Y-76620000D01*
X123786000Y-76620000D01*
X123786000Y-78320000D01*
G37*
G36*
X128263935Y-76652664D02*
G01*
X128418624Y-76716739D01*
X128418626Y-76716740D01*
X128557844Y-76809762D01*
X128676238Y-76928156D01*
X128769260Y-77067374D01*
X128769261Y-77067376D01*
X128833336Y-77222065D01*
X128866000Y-77386281D01*
X128866000Y-77553719D01*
X128833336Y-77717935D01*
X128792237Y-77817156D01*
X128769260Y-77872626D01*
X128676238Y-78011844D01*
X128557844Y-78130238D01*
X128418626Y-78223260D01*
X128418625Y-78223261D01*
X128418624Y-78223261D01*
X128263935Y-78287336D01*
X128099719Y-78320000D01*
X127932281Y-78320000D01*
X127768065Y-78287336D01*
X127613376Y-78223261D01*
X127613375Y-78223261D01*
X127613374Y-78223260D01*
X127474156Y-78130238D01*
X127355762Y-78011844D01*
X127262740Y-77872626D01*
X127239763Y-77817156D01*
X127198664Y-77717935D01*
X127166000Y-77553719D01*
X127166000Y-77386281D01*
X127198664Y-77222065D01*
X127262739Y-77067376D01*
X127262740Y-77067374D01*
X127355762Y-76928156D01*
X127474156Y-76809762D01*
X127613374Y-76716740D01*
X127613376Y-76716739D01*
X127768065Y-76652664D01*
X127932281Y-76620000D01*
X128099719Y-76620000D01*
X128263935Y-76652664D01*
G37*
G36*
X125723935Y-76652664D02*
G01*
X125878624Y-76716739D01*
X125878626Y-76716740D01*
X126017844Y-76809762D01*
X126136238Y-76928156D01*
X126229260Y-77067374D01*
X126229261Y-77067376D01*
X126293336Y-77222065D01*
X126326000Y-77386281D01*
X126326000Y-77553719D01*
X126293336Y-77717935D01*
X126252237Y-77817156D01*
X126229260Y-77872626D01*
X126136238Y-78011844D01*
X126017844Y-78130238D01*
X125878626Y-78223260D01*
X125878625Y-78223261D01*
X125878624Y-78223261D01*
X125723935Y-78287336D01*
X125559719Y-78320000D01*
X125392281Y-78320000D01*
X125228065Y-78287336D01*
X125073376Y-78223261D01*
X125073375Y-78223261D01*
X125073374Y-78223260D01*
X124934156Y-78130238D01*
X124815762Y-78011844D01*
X124722740Y-77872626D01*
X124699763Y-77817156D01*
X124658664Y-77717935D01*
X124626000Y-77553719D01*
X124626000Y-77386281D01*
X124658664Y-77222065D01*
X124722739Y-77067376D01*
X124722740Y-77067374D01*
X124815762Y-76928156D01*
X124934156Y-76809762D01*
X125073374Y-76716740D01*
X125073376Y-76716739D01*
X125228065Y-76652664D01*
X125392281Y-76620000D01*
X125559719Y-76620000D01*
X125723935Y-76652664D01*
G37*
G36*
X139683112Y-75467565D02*
G01*
X139767695Y-75475896D01*
X139930484Y-75525278D01*
X139930487Y-75525279D01*
X140080507Y-75605466D01*
X140080508Y-75605467D01*
X140080512Y-75605469D01*
X140212012Y-75713388D01*
X140319931Y-75844888D01*
X140319933Y-75844892D01*
X140319934Y-75844893D01*
X140400121Y-75994913D01*
X140400122Y-75994916D01*
X140449504Y-76157705D01*
X140466178Y-76327000D01*
X140449504Y-76496295D01*
X140402069Y-76652665D01*
X140400121Y-76659087D01*
X140319934Y-76809107D01*
X140319931Y-76809112D01*
X140212012Y-76940612D01*
X140080512Y-77048531D01*
X140080508Y-77048533D01*
X140080507Y-77048534D01*
X139930487Y-77128721D01*
X139930484Y-77128722D01*
X139767695Y-77178104D01*
X139683112Y-77186435D01*
X139640821Y-77190600D01*
X139251179Y-77190600D01*
X139208888Y-77186435D01*
X139124305Y-77178104D01*
X138961516Y-77128722D01*
X138961513Y-77128721D01*
X138811493Y-77048534D01*
X138811492Y-77048533D01*
X138811488Y-77048531D01*
X138679988Y-76940612D01*
X138572069Y-76809112D01*
X138572066Y-76809107D01*
X138491879Y-76659087D01*
X138489931Y-76652665D01*
X138442496Y-76496295D01*
X138425822Y-76327000D01*
X138442496Y-76157705D01*
X138491878Y-75994916D01*
X138491879Y-75994913D01*
X138572066Y-75844893D01*
X138572067Y-75844892D01*
X138572069Y-75844888D01*
X138679988Y-75713388D01*
X138811488Y-75605469D01*
X138811492Y-75605467D01*
X138811493Y-75605466D01*
X138961513Y-75525279D01*
X138961516Y-75525278D01*
X139124305Y-75475896D01*
X139208888Y-75467565D01*
X139251179Y-75463400D01*
X139640821Y-75463400D01*
X139683112Y-75467565D01*
G37*
G36*
X154923112Y-75467565D02*
G01*
X155007695Y-75475896D01*
X155170484Y-75525278D01*
X155170487Y-75525279D01*
X155320507Y-75605466D01*
X155320508Y-75605467D01*
X155320512Y-75605469D01*
X155452012Y-75713388D01*
X155559931Y-75844888D01*
X155559933Y-75844892D01*
X155559934Y-75844893D01*
X155640121Y-75994913D01*
X155640122Y-75994916D01*
X155689504Y-76157705D01*
X155706178Y-76327000D01*
X155689504Y-76496295D01*
X155642069Y-76652665D01*
X155640121Y-76659087D01*
X155559934Y-76809107D01*
X155559931Y-76809112D01*
X155452012Y-76940612D01*
X155320512Y-77048531D01*
X155320508Y-77048533D01*
X155320507Y-77048534D01*
X155170487Y-77128721D01*
X155170484Y-77128722D01*
X155007695Y-77178104D01*
X154923112Y-77186435D01*
X154880821Y-77190600D01*
X154491179Y-77190600D01*
X154448888Y-77186435D01*
X154364305Y-77178104D01*
X154201516Y-77128722D01*
X154201513Y-77128721D01*
X154051493Y-77048534D01*
X154051492Y-77048533D01*
X154051488Y-77048531D01*
X153919988Y-76940612D01*
X153812069Y-76809112D01*
X153812066Y-76809107D01*
X153731879Y-76659087D01*
X153729931Y-76652665D01*
X153682496Y-76496295D01*
X153665822Y-76327000D01*
X153682496Y-76157705D01*
X153731878Y-75994916D01*
X153731879Y-75994913D01*
X153812066Y-75844893D01*
X153812067Y-75844892D01*
X153812069Y-75844888D01*
X153919988Y-75713388D01*
X154051488Y-75605469D01*
X154051492Y-75605467D01*
X154051493Y-75605466D01*
X154201513Y-75525279D01*
X154201516Y-75525278D01*
X154364305Y-75475896D01*
X154448888Y-75467565D01*
X154491179Y-75463400D01*
X154880821Y-75463400D01*
X154923112Y-75467565D01*
G37*
G36*
X169665935Y-73858664D02*
G01*
X169820624Y-73922739D01*
X169820626Y-73922740D01*
X169959844Y-74015762D01*
X170078238Y-74134156D01*
X170168409Y-74269107D01*
X170171261Y-74273376D01*
X170235336Y-74428065D01*
X170268000Y-74592281D01*
X170268000Y-74759719D01*
X170235336Y-74923935D01*
X170171261Y-75078624D01*
X170171260Y-75078626D01*
X170078238Y-75217844D01*
X169959844Y-75336238D01*
X169820626Y-75429260D01*
X169820625Y-75429261D01*
X169820624Y-75429261D01*
X169665935Y-75493336D01*
X169501719Y-75526000D01*
X169334281Y-75526000D01*
X169170065Y-75493336D01*
X169015376Y-75429261D01*
X169015375Y-75429261D01*
X169015374Y-75429260D01*
X168876156Y-75336238D01*
X168757762Y-75217844D01*
X168664740Y-75078626D01*
X168664739Y-75078624D01*
X168600664Y-74923935D01*
X168568000Y-74759719D01*
X168568000Y-74592281D01*
X168600664Y-74428065D01*
X168664739Y-74273376D01*
X168667591Y-74269107D01*
X168757762Y-74134156D01*
X168876156Y-74015762D01*
X169015374Y-73922740D01*
X169015376Y-73922739D01*
X169170065Y-73858664D01*
X169334281Y-73826000D01*
X169501719Y-73826000D01*
X169665935Y-73858664D01*
G37*
G36*
X167728000Y-75526000D02*
G01*
X166028000Y-75526000D01*
X166028000Y-73826000D01*
X167728000Y-73826000D01*
X167728000Y-75526000D01*
G37*
G36*
X172205935Y-73858664D02*
G01*
X172360624Y-73922739D01*
X172360626Y-73922740D01*
X172499844Y-74015762D01*
X172618238Y-74134156D01*
X172708409Y-74269107D01*
X172711261Y-74273376D01*
X172775336Y-74428065D01*
X172808000Y-74592281D01*
X172808000Y-74759719D01*
X172775336Y-74923935D01*
X172711261Y-75078624D01*
X172711260Y-75078626D01*
X172618238Y-75217844D01*
X172499844Y-75336238D01*
X172360626Y-75429260D01*
X172360625Y-75429261D01*
X172360624Y-75429261D01*
X172205935Y-75493336D01*
X172041719Y-75526000D01*
X171874281Y-75526000D01*
X171710065Y-75493336D01*
X171555376Y-75429261D01*
X171555375Y-75429261D01*
X171555374Y-75429260D01*
X171416156Y-75336238D01*
X171297762Y-75217844D01*
X171204740Y-75078626D01*
X171204739Y-75078624D01*
X171140664Y-74923935D01*
X171108000Y-74759719D01*
X171108000Y-74592281D01*
X171140664Y-74428065D01*
X171204739Y-74273376D01*
X171207591Y-74269107D01*
X171297762Y-74134156D01*
X171416156Y-74015762D01*
X171555374Y-73922740D01*
X171555376Y-73922739D01*
X171710065Y-73858664D01*
X171874281Y-73826000D01*
X172041719Y-73826000D01*
X172205935Y-73858664D01*
G37*
G36*
X125723935Y-73096664D02*
G01*
X125878624Y-73160739D01*
X125878626Y-73160740D01*
X126017844Y-73253762D01*
X126136238Y-73372156D01*
X126191534Y-73454913D01*
X126229261Y-73511376D01*
X126293336Y-73666065D01*
X126326000Y-73830281D01*
X126326000Y-73997719D01*
X126293336Y-74161935D01*
X126248943Y-74269107D01*
X126229260Y-74316626D01*
X126136238Y-74455844D01*
X126017844Y-74574238D01*
X125878626Y-74667260D01*
X125878625Y-74667261D01*
X125878624Y-74667261D01*
X125723935Y-74731336D01*
X125559719Y-74764000D01*
X125392281Y-74764000D01*
X125228065Y-74731336D01*
X125073376Y-74667261D01*
X125073375Y-74667261D01*
X125073374Y-74667260D01*
X124934156Y-74574238D01*
X124815762Y-74455844D01*
X124722740Y-74316626D01*
X124703057Y-74269107D01*
X124658664Y-74161935D01*
X124626000Y-73997719D01*
X124626000Y-73830281D01*
X124658664Y-73666065D01*
X124722739Y-73511376D01*
X124760466Y-73454913D01*
X124815762Y-73372156D01*
X124934156Y-73253762D01*
X125073374Y-73160740D01*
X125073376Y-73160739D01*
X125228065Y-73096664D01*
X125392281Y-73064000D01*
X125559719Y-73064000D01*
X125723935Y-73096664D01*
G37*
G36*
X123786000Y-74764000D02*
G01*
X122086000Y-74764000D01*
X122086000Y-73064000D01*
X123786000Y-73064000D01*
X123786000Y-74764000D01*
G37*
G36*
X128263935Y-73096664D02*
G01*
X128418624Y-73160739D01*
X128418626Y-73160740D01*
X128557844Y-73253762D01*
X128676238Y-73372156D01*
X128731534Y-73454913D01*
X128769261Y-73511376D01*
X128833336Y-73666065D01*
X128866000Y-73830281D01*
X128866000Y-73997719D01*
X128833336Y-74161935D01*
X128788943Y-74269107D01*
X128769260Y-74316626D01*
X128676238Y-74455844D01*
X128557844Y-74574238D01*
X128418626Y-74667260D01*
X128418625Y-74667261D01*
X128418624Y-74667261D01*
X128263935Y-74731336D01*
X128099719Y-74764000D01*
X127932281Y-74764000D01*
X127768065Y-74731336D01*
X127613376Y-74667261D01*
X127613375Y-74667261D01*
X127613374Y-74667260D01*
X127474156Y-74574238D01*
X127355762Y-74455844D01*
X127262740Y-74316626D01*
X127243057Y-74269107D01*
X127198664Y-74161935D01*
X127166000Y-73997719D01*
X127166000Y-73830281D01*
X127198664Y-73666065D01*
X127262739Y-73511376D01*
X127300466Y-73454913D01*
X127355762Y-73372156D01*
X127474156Y-73253762D01*
X127613374Y-73160740D01*
X127613376Y-73160739D01*
X127768065Y-73096664D01*
X127932281Y-73064000D01*
X128099719Y-73064000D01*
X128263935Y-73096664D01*
G37*
G36*
X139683112Y-72927565D02*
G01*
X139767695Y-72935896D01*
X139930484Y-72985278D01*
X139930487Y-72985279D01*
X140080507Y-73065466D01*
X140080508Y-73065467D01*
X140080512Y-73065469D01*
X140212012Y-73173388D01*
X140319931Y-73304888D01*
X140319933Y-73304892D01*
X140319934Y-73304893D01*
X140400121Y-73454913D01*
X140400122Y-73454916D01*
X140449504Y-73617705D01*
X140466178Y-73787000D01*
X140449504Y-73956295D01*
X140400122Y-74119084D01*
X140400121Y-74119087D01*
X140319934Y-74269107D01*
X140319931Y-74269112D01*
X140212012Y-74400612D01*
X140080512Y-74508531D01*
X140080508Y-74508533D01*
X140080507Y-74508534D01*
X139930487Y-74588721D01*
X139930484Y-74588722D01*
X139767695Y-74638104D01*
X139683112Y-74646435D01*
X139640821Y-74650600D01*
X139251179Y-74650600D01*
X139208888Y-74646435D01*
X139124305Y-74638104D01*
X138961516Y-74588722D01*
X138961513Y-74588721D01*
X138811493Y-74508534D01*
X138811492Y-74508533D01*
X138811488Y-74508531D01*
X138679988Y-74400612D01*
X138572069Y-74269112D01*
X138572066Y-74269107D01*
X138491879Y-74119087D01*
X138491878Y-74119084D01*
X138442496Y-73956295D01*
X138425822Y-73787000D01*
X138442496Y-73617705D01*
X138491878Y-73454916D01*
X138491879Y-73454913D01*
X138572066Y-73304893D01*
X138572067Y-73304892D01*
X138572069Y-73304888D01*
X138679988Y-73173388D01*
X138811488Y-73065469D01*
X138811492Y-73065467D01*
X138811493Y-73065466D01*
X138961513Y-72985279D01*
X138961516Y-72985278D01*
X139124305Y-72935896D01*
X139208888Y-72927565D01*
X139251179Y-72923400D01*
X139640821Y-72923400D01*
X139683112Y-72927565D01*
G37*
G36*
X154923112Y-72927565D02*
G01*
X155007695Y-72935896D01*
X155170484Y-72985278D01*
X155170487Y-72985279D01*
X155320507Y-73065466D01*
X155320508Y-73065467D01*
X155320512Y-73065469D01*
X155452012Y-73173388D01*
X155559931Y-73304888D01*
X155559933Y-73304892D01*
X155559934Y-73304893D01*
X155640121Y-73454913D01*
X155640122Y-73454916D01*
X155689504Y-73617705D01*
X155706178Y-73787000D01*
X155689504Y-73956295D01*
X155640122Y-74119084D01*
X155640121Y-74119087D01*
X155559934Y-74269107D01*
X155559931Y-74269112D01*
X155452012Y-74400612D01*
X155320512Y-74508531D01*
X155320508Y-74508533D01*
X155320507Y-74508534D01*
X155170487Y-74588721D01*
X155170484Y-74588722D01*
X155007695Y-74638104D01*
X154923112Y-74646435D01*
X154880821Y-74650600D01*
X154491179Y-74650600D01*
X154448888Y-74646435D01*
X154364305Y-74638104D01*
X154201516Y-74588722D01*
X154201513Y-74588721D01*
X154051493Y-74508534D01*
X154051492Y-74508533D01*
X154051488Y-74508531D01*
X153919988Y-74400612D01*
X153812069Y-74269112D01*
X153812066Y-74269107D01*
X153731879Y-74119087D01*
X153731878Y-74119084D01*
X153682496Y-73956295D01*
X153665822Y-73787000D01*
X153682496Y-73617705D01*
X153731878Y-73454916D01*
X153731879Y-73454913D01*
X153812066Y-73304893D01*
X153812067Y-73304892D01*
X153812069Y-73304888D01*
X153919988Y-73173388D01*
X154051488Y-73065469D01*
X154051492Y-73065467D01*
X154051493Y-73065466D01*
X154201513Y-72985279D01*
X154201516Y-72985278D01*
X154364305Y-72935896D01*
X154448888Y-72927565D01*
X154491179Y-72923400D01*
X154880821Y-72923400D01*
X154923112Y-72927565D01*
G37*
G36*
X139683112Y-70387565D02*
G01*
X139767695Y-70395896D01*
X139930484Y-70445278D01*
X139930487Y-70445279D01*
X140080507Y-70525466D01*
X140080508Y-70525467D01*
X140080512Y-70525469D01*
X140212012Y-70633388D01*
X140319931Y-70764888D01*
X140319933Y-70764892D01*
X140319934Y-70764893D01*
X140400121Y-70914913D01*
X140400122Y-70914916D01*
X140449504Y-71077705D01*
X140466178Y-71247000D01*
X140449504Y-71416295D01*
X140400122Y-71579084D01*
X140400121Y-71579087D01*
X140319934Y-71729107D01*
X140319931Y-71729112D01*
X140212012Y-71860612D01*
X140080512Y-71968531D01*
X140080508Y-71968533D01*
X140080507Y-71968534D01*
X139930487Y-72048721D01*
X139930484Y-72048722D01*
X139767695Y-72098104D01*
X139683112Y-72106435D01*
X139640821Y-72110600D01*
X139251179Y-72110600D01*
X139208888Y-72106435D01*
X139124305Y-72098104D01*
X138961516Y-72048722D01*
X138961513Y-72048721D01*
X138811493Y-71968534D01*
X138811492Y-71968533D01*
X138811488Y-71968531D01*
X138679988Y-71860612D01*
X138572069Y-71729112D01*
X138572066Y-71729107D01*
X138491879Y-71579087D01*
X138491878Y-71579084D01*
X138442496Y-71416295D01*
X138425822Y-71247000D01*
X138442496Y-71077705D01*
X138491878Y-70914916D01*
X138491879Y-70914913D01*
X138572066Y-70764893D01*
X138572067Y-70764892D01*
X138572069Y-70764888D01*
X138679988Y-70633388D01*
X138811488Y-70525469D01*
X138811492Y-70525467D01*
X138811493Y-70525466D01*
X138961513Y-70445279D01*
X138961516Y-70445278D01*
X139124305Y-70395896D01*
X139208888Y-70387565D01*
X139251179Y-70383400D01*
X139640821Y-70383400D01*
X139683112Y-70387565D01*
G37*
G36*
X154923112Y-70387565D02*
G01*
X155007695Y-70395896D01*
X155170484Y-70445278D01*
X155170487Y-70445279D01*
X155320507Y-70525466D01*
X155320508Y-70525467D01*
X155320512Y-70525469D01*
X155452012Y-70633388D01*
X155559931Y-70764888D01*
X155559933Y-70764892D01*
X155559934Y-70764893D01*
X155640121Y-70914913D01*
X155640122Y-70914916D01*
X155689504Y-71077705D01*
X155706178Y-71247000D01*
X155689504Y-71416295D01*
X155640122Y-71579084D01*
X155640121Y-71579087D01*
X155559934Y-71729107D01*
X155559931Y-71729112D01*
X155452012Y-71860612D01*
X155320512Y-71968531D01*
X155320508Y-71968533D01*
X155320507Y-71968534D01*
X155170487Y-72048721D01*
X155170484Y-72048722D01*
X155007695Y-72098104D01*
X154923112Y-72106435D01*
X154880821Y-72110600D01*
X154491179Y-72110600D01*
X154448888Y-72106435D01*
X154364305Y-72098104D01*
X154201516Y-72048722D01*
X154201513Y-72048721D01*
X154051493Y-71968534D01*
X154051492Y-71968533D01*
X154051488Y-71968531D01*
X153919988Y-71860612D01*
X153812069Y-71729112D01*
X153812066Y-71729107D01*
X153731879Y-71579087D01*
X153731878Y-71579084D01*
X153682496Y-71416295D01*
X153665822Y-71247000D01*
X153682496Y-71077705D01*
X153731878Y-70914916D01*
X153731879Y-70914913D01*
X153812066Y-70764893D01*
X153812067Y-70764892D01*
X153812069Y-70764888D01*
X153919988Y-70633388D01*
X154051488Y-70525469D01*
X154051492Y-70525467D01*
X154051493Y-70525466D01*
X154201513Y-70445279D01*
X154201516Y-70445278D01*
X154364305Y-70395896D01*
X154448888Y-70387565D01*
X154491179Y-70383400D01*
X154880821Y-70383400D01*
X154923112Y-70387565D01*
G37*
G36*
X163047351Y-68445743D02*
G01*
X163192941Y-68506048D01*
X163323970Y-68593599D01*
X163435401Y-68705030D01*
X163522952Y-68836059D01*
X163583257Y-68981649D01*
X163614000Y-69136206D01*
X163614000Y-69293794D01*
X163583257Y-69448351D01*
X163522952Y-69593941D01*
X163435401Y-69724970D01*
X163323970Y-69836401D01*
X163192941Y-69923952D01*
X163047351Y-69984257D01*
X162892794Y-70015000D01*
X162735206Y-70015000D01*
X162580649Y-69984257D01*
X162435059Y-69923952D01*
X162304030Y-69836401D01*
X162192599Y-69724970D01*
X162105048Y-69593941D01*
X162044743Y-69448351D01*
X162014000Y-69293794D01*
X162014000Y-69136206D01*
X162044743Y-68981649D01*
X162105048Y-68836059D01*
X162192599Y-68705030D01*
X162304030Y-68593599D01*
X162435059Y-68506048D01*
X162580649Y-68445743D01*
X162735206Y-68415000D01*
X162892794Y-68415000D01*
X163047351Y-68445743D01*
G37*
G36*
X167238351Y-68445743D02*
G01*
X167383941Y-68506048D01*
X167514970Y-68593599D01*
X167626401Y-68705030D01*
X167713952Y-68836059D01*
X167774257Y-68981649D01*
X167805000Y-69136206D01*
X167805000Y-69293794D01*
X167774257Y-69448351D01*
X167713952Y-69593941D01*
X167626401Y-69724970D01*
X167514970Y-69836401D01*
X167383941Y-69923952D01*
X167238351Y-69984257D01*
X167083794Y-70015000D01*
X166926206Y-70015000D01*
X166771649Y-69984257D01*
X166626059Y-69923952D01*
X166495030Y-69836401D01*
X166383599Y-69724970D01*
X166296048Y-69593941D01*
X166235743Y-69448351D01*
X166205000Y-69293794D01*
X166205000Y-69136206D01*
X166235743Y-68981649D01*
X166296048Y-68836059D01*
X166383599Y-68705030D01*
X166495030Y-68593599D01*
X166626059Y-68506048D01*
X166771649Y-68445743D01*
X166926206Y-68415000D01*
X167083794Y-68415000D01*
X167238351Y-68445743D01*
G37*
G36*
X174633520Y-64920586D02*
G01*
X174797310Y-64988430D01*
X174944717Y-65086924D01*
X175070076Y-65212283D01*
X175168570Y-65359690D01*
X175236414Y-65523480D01*
X175271000Y-65697358D01*
X175271000Y-65874642D01*
X175236414Y-66048520D01*
X175168570Y-66212310D01*
X175070076Y-66359717D01*
X174944717Y-66485076D01*
X174797310Y-66583570D01*
X174797309Y-66583571D01*
X174797308Y-66583571D01*
X174633520Y-66651414D01*
X174459644Y-66686000D01*
X174282356Y-66686000D01*
X174108480Y-66651414D01*
X173944692Y-66583571D01*
X173944691Y-66583571D01*
X173944690Y-66583570D01*
X173797283Y-66485076D01*
X173671924Y-66359717D01*
X173573430Y-66212310D01*
X173505586Y-66048520D01*
X173471000Y-65874642D01*
X173471000Y-65697358D01*
X173505586Y-65523480D01*
X173573430Y-65359690D01*
X173671924Y-65212283D01*
X173797283Y-65086924D01*
X173944690Y-64988430D01*
X174108480Y-64920586D01*
X174282356Y-64886000D01*
X174459644Y-64886000D01*
X174633520Y-64920586D01*
G37*
G36*
X172731000Y-66686000D02*
G01*
X170931000Y-66686000D01*
X170931000Y-64886000D01*
X172731000Y-64886000D01*
X172731000Y-66686000D01*
G37*
G36*
X129279935Y-64714664D02*
G01*
X129434624Y-64778739D01*
X129434626Y-64778740D01*
X129573844Y-64871762D01*
X129692238Y-64990156D01*
X129756896Y-65086924D01*
X129785261Y-65129376D01*
X129849336Y-65284065D01*
X129882000Y-65448281D01*
X129882000Y-65615719D01*
X129849336Y-65779935D01*
X129785261Y-65934624D01*
X129785260Y-65934626D01*
X129692238Y-66073844D01*
X129573844Y-66192238D01*
X129434626Y-66285260D01*
X129434625Y-66285261D01*
X129434624Y-66285261D01*
X129279935Y-66349336D01*
X129115719Y-66382000D01*
X128948281Y-66382000D01*
X128784065Y-66349336D01*
X128629376Y-66285261D01*
X128629375Y-66285261D01*
X128629374Y-66285260D01*
X128490156Y-66192238D01*
X128371762Y-66073844D01*
X128278740Y-65934626D01*
X128278739Y-65934624D01*
X128214664Y-65779935D01*
X128182000Y-65615719D01*
X128182000Y-65448281D01*
X128214664Y-65284065D01*
X128278739Y-65129376D01*
X128307104Y-65086924D01*
X128371762Y-64990156D01*
X128490156Y-64871762D01*
X128629374Y-64778740D01*
X128629376Y-64778739D01*
X128784065Y-64714664D01*
X128948281Y-64682000D01*
X129115719Y-64682000D01*
X129279935Y-64714664D01*
G37*
G36*
X122929935Y-64714664D02*
G01*
X123084624Y-64778739D01*
X123084626Y-64778740D01*
X123223844Y-64871762D01*
X123342238Y-64990156D01*
X123406896Y-65086924D01*
X123435261Y-65129376D01*
X123499336Y-65284065D01*
X123532000Y-65448281D01*
X123532000Y-65615719D01*
X123499336Y-65779935D01*
X123435261Y-65934624D01*
X123435260Y-65934626D01*
X123342238Y-66073844D01*
X123223844Y-66192238D01*
X123084626Y-66285260D01*
X123084625Y-66285261D01*
X123084624Y-66285261D01*
X122929935Y-66349336D01*
X122765719Y-66382000D01*
X122598281Y-66382000D01*
X122434065Y-66349336D01*
X122279376Y-66285261D01*
X122279375Y-66285261D01*
X122279374Y-66285260D01*
X122140156Y-66192238D01*
X122021762Y-66073844D01*
X121928740Y-65934626D01*
X121928739Y-65934624D01*
X121864664Y-65779935D01*
X121832000Y-65615719D01*
X121832000Y-65448281D01*
X121864664Y-65284065D01*
X121928739Y-65129376D01*
X121957104Y-65086924D01*
X122021762Y-64990156D01*
X122140156Y-64871762D01*
X122279374Y-64778740D01*
X122279376Y-64778739D01*
X122434065Y-64714664D01*
X122598281Y-64682000D01*
X122765719Y-64682000D01*
X122929935Y-64714664D01*
G37*
G36*
X122929935Y-62174664D02*
G01*
X123084624Y-62238739D01*
X123084626Y-62238740D01*
X123223844Y-62331762D01*
X123342238Y-62450156D01*
X123435260Y-62589374D01*
X123435261Y-62589376D01*
X123499336Y-62744065D01*
X123532000Y-62908281D01*
X123532000Y-63075719D01*
X123499336Y-63239935D01*
X123435261Y-63394624D01*
X123435260Y-63394626D01*
X123342238Y-63533844D01*
X123223844Y-63652238D01*
X123084626Y-63745260D01*
X123084625Y-63745261D01*
X123084624Y-63745261D01*
X122929935Y-63809336D01*
X122765719Y-63842000D01*
X122598281Y-63842000D01*
X122434065Y-63809336D01*
X122279376Y-63745261D01*
X122279375Y-63745261D01*
X122279374Y-63745260D01*
X122140156Y-63652238D01*
X122021762Y-63533844D01*
X121928740Y-63394626D01*
X121928739Y-63394624D01*
X121864664Y-63239935D01*
X121832000Y-63075719D01*
X121832000Y-62908281D01*
X121864664Y-62744065D01*
X121928739Y-62589376D01*
X121928740Y-62589374D01*
X122021762Y-62450156D01*
X122140156Y-62331762D01*
X122279374Y-62238740D01*
X122279376Y-62238739D01*
X122434065Y-62174664D01*
X122598281Y-62142000D01*
X122765719Y-62142000D01*
X122929935Y-62174664D01*
G37*
G36*
X129279935Y-62174664D02*
G01*
X129434624Y-62238739D01*
X129434626Y-62238740D01*
X129573844Y-62331762D01*
X129692238Y-62450156D01*
X129785260Y-62589374D01*
X129785261Y-62589376D01*
X129849336Y-62744065D01*
X129882000Y-62908281D01*
X129882000Y-63075719D01*
X129849336Y-63239935D01*
X129785261Y-63394624D01*
X129785260Y-63394626D01*
X129692238Y-63533844D01*
X129573844Y-63652238D01*
X129434626Y-63745260D01*
X129434625Y-63745261D01*
X129434624Y-63745261D01*
X129279935Y-63809336D01*
X129115719Y-63842000D01*
X128948281Y-63842000D01*
X128784065Y-63809336D01*
X128629376Y-63745261D01*
X128629375Y-63745261D01*
X128629374Y-63745260D01*
X128490156Y-63652238D01*
X128371762Y-63533844D01*
X128278740Y-63394626D01*
X128278739Y-63394624D01*
X128214664Y-63239935D01*
X128182000Y-63075719D01*
X128182000Y-62908281D01*
X128214664Y-62744065D01*
X128278739Y-62589376D01*
X128278740Y-62589374D01*
X128371762Y-62450156D01*
X128490156Y-62331762D01*
X128629374Y-62238740D01*
X128629376Y-62238739D01*
X128784065Y-62174664D01*
X128948281Y-62142000D01*
X129115719Y-62142000D01*
X129279935Y-62174664D01*
G37*
G36*
X146043935Y-60142664D02*
G01*
X146198624Y-60206739D01*
X146198626Y-60206740D01*
X146337844Y-60299762D01*
X146456238Y-60418156D01*
X146549260Y-60557374D01*
X146549261Y-60557376D01*
X146613336Y-60712065D01*
X146646000Y-60876281D01*
X146646000Y-61043719D01*
X146613336Y-61207935D01*
X146549261Y-61362624D01*
X146549260Y-61362626D01*
X146456238Y-61501844D01*
X146337844Y-61620238D01*
X146198626Y-61713260D01*
X146198625Y-61713261D01*
X146198624Y-61713261D01*
X146043935Y-61777336D01*
X145879719Y-61810000D01*
X145712281Y-61810000D01*
X145548065Y-61777336D01*
X145393376Y-61713261D01*
X145393375Y-61713261D01*
X145393374Y-61713260D01*
X145254156Y-61620238D01*
X145135762Y-61501844D01*
X145042740Y-61362626D01*
X145042739Y-61362624D01*
X144978664Y-61207935D01*
X144946000Y-61043719D01*
X144946000Y-60876281D01*
X144978664Y-60712065D01*
X145042739Y-60557376D01*
X145042740Y-60557374D01*
X145135762Y-60418156D01*
X145254156Y-60299762D01*
X145393374Y-60206740D01*
X145393376Y-60206739D01*
X145548065Y-60142664D01*
X145712281Y-60110000D01*
X145879719Y-60110000D01*
X146043935Y-60142664D01*
G37*
G36*
X148583935Y-60142664D02*
G01*
X148738624Y-60206739D01*
X148738626Y-60206740D01*
X148877844Y-60299762D01*
X148996238Y-60418156D01*
X149089260Y-60557374D01*
X149089261Y-60557376D01*
X149153336Y-60712065D01*
X149186000Y-60876281D01*
X149186000Y-61043719D01*
X149153336Y-61207935D01*
X149089261Y-61362624D01*
X149089260Y-61362626D01*
X148996238Y-61501844D01*
X148877844Y-61620238D01*
X148738626Y-61713260D01*
X148738625Y-61713261D01*
X148738624Y-61713261D01*
X148583935Y-61777336D01*
X148419719Y-61810000D01*
X148252281Y-61810000D01*
X148088065Y-61777336D01*
X147933376Y-61713261D01*
X147933375Y-61713261D01*
X147933374Y-61713260D01*
X147794156Y-61620238D01*
X147675762Y-61501844D01*
X147582740Y-61362626D01*
X147582739Y-61362624D01*
X147518664Y-61207935D01*
X147486000Y-61043719D01*
X147486000Y-60876281D01*
X147518664Y-60712065D01*
X147582739Y-60557376D01*
X147582740Y-60557374D01*
X147675762Y-60418156D01*
X147794156Y-60299762D01*
X147933374Y-60206740D01*
X147933376Y-60206739D01*
X148088065Y-60142664D01*
X148252281Y-60110000D01*
X148419719Y-60110000D01*
X148583935Y-60142664D01*
G37*
G36*
X151123935Y-60142664D02*
G01*
X151278624Y-60206739D01*
X151278626Y-60206740D01*
X151417844Y-60299762D01*
X151536238Y-60418156D01*
X151629260Y-60557374D01*
X151629261Y-60557376D01*
X151693336Y-60712065D01*
X151726000Y-60876281D01*
X151726000Y-61043719D01*
X151693336Y-61207935D01*
X151629261Y-61362624D01*
X151629260Y-61362626D01*
X151536238Y-61501844D01*
X151417844Y-61620238D01*
X151278626Y-61713260D01*
X151278625Y-61713261D01*
X151278624Y-61713261D01*
X151123935Y-61777336D01*
X150959719Y-61810000D01*
X150792281Y-61810000D01*
X150628065Y-61777336D01*
X150473376Y-61713261D01*
X150473375Y-61713261D01*
X150473374Y-61713260D01*
X150334156Y-61620238D01*
X150215762Y-61501844D01*
X150122740Y-61362626D01*
X150122739Y-61362624D01*
X150058664Y-61207935D01*
X150026000Y-61043719D01*
X150026000Y-60876281D01*
X150058664Y-60712065D01*
X150122739Y-60557376D01*
X150122740Y-60557374D01*
X150215762Y-60418156D01*
X150334156Y-60299762D01*
X150473374Y-60206740D01*
X150473376Y-60206739D01*
X150628065Y-60142664D01*
X150792281Y-60110000D01*
X150959719Y-60110000D01*
X151123935Y-60142664D01*
G37*
G36*
X143503935Y-60142664D02*
G01*
X143658624Y-60206739D01*
X143658626Y-60206740D01*
X143797844Y-60299762D01*
X143916238Y-60418156D01*
X144009260Y-60557374D01*
X144009261Y-60557376D01*
X144073336Y-60712065D01*
X144106000Y-60876281D01*
X144106000Y-61043719D01*
X144073336Y-61207935D01*
X144009261Y-61362624D01*
X144009260Y-61362626D01*
X143916238Y-61501844D01*
X143797844Y-61620238D01*
X143658626Y-61713260D01*
X143658625Y-61713261D01*
X143658624Y-61713261D01*
X143503935Y-61777336D01*
X143339719Y-61810000D01*
X143172281Y-61810000D01*
X143008065Y-61777336D01*
X142853376Y-61713261D01*
X142853375Y-61713261D01*
X142853374Y-61713260D01*
X142714156Y-61620238D01*
X142595762Y-61501844D01*
X142502740Y-61362626D01*
X142502739Y-61362624D01*
X142438664Y-61207935D01*
X142406000Y-61043719D01*
X142406000Y-60876281D01*
X142438664Y-60712065D01*
X142502739Y-60557376D01*
X142502740Y-60557374D01*
X142595762Y-60418156D01*
X142714156Y-60299762D01*
X142853374Y-60206740D01*
X142853376Y-60206739D01*
X143008065Y-60142664D01*
X143172281Y-60110000D01*
X143339719Y-60110000D01*
X143503935Y-60142664D01*
G37*
G36*
X153663935Y-60142664D02*
G01*
X153818624Y-60206739D01*
X153818626Y-60206740D01*
X153957844Y-60299762D01*
X154076238Y-60418156D01*
X154169260Y-60557374D01*
X154169261Y-60557376D01*
X154233336Y-60712065D01*
X154266000Y-60876281D01*
X154266000Y-61043719D01*
X154233336Y-61207935D01*
X154169261Y-61362624D01*
X154169260Y-61362626D01*
X154076238Y-61501844D01*
X153957844Y-61620238D01*
X153818626Y-61713260D01*
X153818625Y-61713261D01*
X153818624Y-61713261D01*
X153663935Y-61777336D01*
X153499719Y-61810000D01*
X153332281Y-61810000D01*
X153168065Y-61777336D01*
X153013376Y-61713261D01*
X153013375Y-61713261D01*
X153013374Y-61713260D01*
X152874156Y-61620238D01*
X152755762Y-61501844D01*
X152662740Y-61362626D01*
X152662739Y-61362624D01*
X152598664Y-61207935D01*
X152566000Y-61043719D01*
X152566000Y-60876281D01*
X152598664Y-60712065D01*
X152662739Y-60557376D01*
X152662740Y-60557374D01*
X152755762Y-60418156D01*
X152874156Y-60299762D01*
X153013374Y-60206740D01*
X153013376Y-60206739D01*
X153168065Y-60142664D01*
X153332281Y-60110000D01*
X153499719Y-60110000D01*
X153663935Y-60142664D01*
G37*
G36*
X141566000Y-61810000D02*
G01*
X139866000Y-61810000D01*
X139866000Y-60110000D01*
X141566000Y-60110000D01*
X141566000Y-61810000D01*
G37*
G36*
X123532000Y-61302000D02*
G01*
X121832000Y-61302000D01*
X121832000Y-59602000D01*
X123532000Y-59602000D01*
X123532000Y-61302000D01*
G37*
G36*
X129882000Y-61302000D02*
G01*
X128182000Y-61302000D01*
X128182000Y-59602000D01*
X129882000Y-59602000D01*
X129882000Y-61302000D01*
G37*
G36*
X174633520Y-59332586D02*
G01*
X174797310Y-59400430D01*
X174944717Y-59498924D01*
X175070076Y-59624283D01*
X175168570Y-59771690D01*
X175168571Y-59771692D01*
X175236414Y-59935480D01*
X175271000Y-60109356D01*
X175271000Y-60286644D01*
X175236414Y-60460520D01*
X175168570Y-60624310D01*
X175070076Y-60771717D01*
X174944717Y-60897076D01*
X174797310Y-60995570D01*
X174797309Y-60995571D01*
X174797308Y-60995571D01*
X174633520Y-61063414D01*
X174459644Y-61098000D01*
X174282356Y-61098000D01*
X174108480Y-61063414D01*
X173944692Y-60995571D01*
X173944691Y-60995571D01*
X173944690Y-60995570D01*
X173797283Y-60897076D01*
X173671924Y-60771717D01*
X173573430Y-60624310D01*
X173505586Y-60460520D01*
X173471000Y-60286644D01*
X173471000Y-60109356D01*
X173505586Y-59935480D01*
X173573429Y-59771692D01*
X173573430Y-59771690D01*
X173671924Y-59624283D01*
X173797283Y-59498924D01*
X173944690Y-59400430D01*
X174108480Y-59332586D01*
X174282356Y-59298000D01*
X174459644Y-59298000D01*
X174633520Y-59332586D01*
G37*
G36*
X172731000Y-61098000D02*
G01*
X170931000Y-61098000D01*
X170931000Y-59298000D01*
X172731000Y-59298000D01*
X172731000Y-61098000D01*
G37*
G36*
X163047351Y-58285743D02*
G01*
X163192941Y-58346048D01*
X163323970Y-58433599D01*
X163435401Y-58545030D01*
X163522952Y-58676059D01*
X163583257Y-58821649D01*
X163614000Y-58976206D01*
X163614000Y-59133794D01*
X163583257Y-59288351D01*
X163522952Y-59433941D01*
X163435401Y-59564970D01*
X163323970Y-59676401D01*
X163192941Y-59763952D01*
X163047351Y-59824257D01*
X162892794Y-59855000D01*
X162735206Y-59855000D01*
X162580649Y-59824257D01*
X162435059Y-59763952D01*
X162304030Y-59676401D01*
X162192599Y-59564970D01*
X162105048Y-59433941D01*
X162044743Y-59288351D01*
X162014000Y-59133794D01*
X162014000Y-58976206D01*
X162044743Y-58821649D01*
X162105048Y-58676059D01*
X162192599Y-58545030D01*
X162304030Y-58433599D01*
X162435059Y-58346048D01*
X162580649Y-58285743D01*
X162735206Y-58255000D01*
X162892794Y-58255000D01*
X163047351Y-58285743D01*
G37*
G36*
X167238351Y-58285743D02*
G01*
X167383941Y-58346048D01*
X167514970Y-58433599D01*
X167626401Y-58545030D01*
X167713952Y-58676059D01*
X167774257Y-58821649D01*
X167805000Y-58976206D01*
X167805000Y-59133794D01*
X167774257Y-59288351D01*
X167713952Y-59433941D01*
X167626401Y-59564970D01*
X167514970Y-59676401D01*
X167383941Y-59763952D01*
X167238351Y-59824257D01*
X167083794Y-59855000D01*
X166926206Y-59855000D01*
X166771649Y-59824257D01*
X166626059Y-59763952D01*
X166495030Y-59676401D01*
X166383599Y-59564970D01*
X166296048Y-59433941D01*
X166235743Y-59288351D01*
X166205000Y-59133794D01*
X166205000Y-58976206D01*
X166235743Y-58821649D01*
X166296048Y-58676059D01*
X166383599Y-58545030D01*
X166495030Y-58433599D01*
X166626059Y-58346048D01*
X166771649Y-58285743D01*
X166926206Y-58255000D01*
X167083794Y-58255000D01*
X167238351Y-58285743D01*
G37*
G36*
X126167534Y-49611643D02*
G01*
X126440515Y-49724716D01*
X126440517Y-49724717D01*
X126564190Y-49807353D01*
X126686193Y-49888873D01*
X126895127Y-50097807D01*
X127059284Y-50343485D01*
X127172357Y-50616466D01*
X127230000Y-50906262D01*
X127230000Y-51201738D01*
X127172357Y-51491534D01*
X127059284Y-51764515D01*
X127059283Y-51764517D01*
X126895126Y-52010194D01*
X126686194Y-52219126D01*
X126440517Y-52383283D01*
X126440516Y-52383284D01*
X126440515Y-52383284D01*
X126167534Y-52496357D01*
X125877738Y-52554000D01*
X125582262Y-52554000D01*
X125292466Y-52496357D01*
X125019485Y-52383284D01*
X125019484Y-52383284D01*
X125019483Y-52383283D01*
X124773806Y-52219126D01*
X124564874Y-52010194D01*
X124400717Y-51764517D01*
X124400716Y-51764515D01*
X124287643Y-51491534D01*
X124230000Y-51201738D01*
X124230000Y-50906262D01*
X124287643Y-50616466D01*
X124400716Y-50343485D01*
X124564873Y-50097807D01*
X124773807Y-49888873D01*
X124895810Y-49807353D01*
X125019483Y-49724717D01*
X125019485Y-49724716D01*
X125292466Y-49611643D01*
X125582262Y-49554000D01*
X125877738Y-49554000D01*
X126167534Y-49611643D01*
G37*
G36*
X171045000Y-52554000D02*
G01*
X168045000Y-52554000D01*
X168045000Y-49554000D01*
X171045000Y-49554000D01*
X171045000Y-52554000D01*
G37*
G36*
X169982534Y-44531643D02*
G01*
X170255515Y-44644716D01*
X170255517Y-44644717D01*
X170379190Y-44727353D01*
X170501193Y-44808873D01*
X170710127Y-45017807D01*
X170874284Y-45263485D01*
X170987357Y-45536466D01*
X171045000Y-45826262D01*
X171045000Y-46121738D01*
X170987357Y-46411534D01*
X170874284Y-46684515D01*
X170874283Y-46684517D01*
X170710126Y-46930194D01*
X170501194Y-47139126D01*
X170255517Y-47303283D01*
X170255516Y-47303284D01*
X170255515Y-47303284D01*
X169982534Y-47416357D01*
X169692738Y-47474000D01*
X169397262Y-47474000D01*
X169107466Y-47416357D01*
X168834485Y-47303284D01*
X168834484Y-47303284D01*
X168834483Y-47303283D01*
X168588806Y-47139126D01*
X168379874Y-46930194D01*
X168215717Y-46684517D01*
X168215716Y-46684515D01*
X168102643Y-46411534D01*
X168045000Y-46121738D01*
X168045000Y-45826262D01*
X168102643Y-45536466D01*
X168215716Y-45263485D01*
X168379873Y-45017807D01*
X168588807Y-44808873D01*
X168710810Y-44727353D01*
X168834483Y-44644717D01*
X168834485Y-44644716D01*
X169107466Y-44531643D01*
X169397262Y-44474000D01*
X169692738Y-44474000D01*
X169982534Y-44531643D01*
G37*
G36*
X127230000Y-47474000D02*
G01*
X124230000Y-47474000D01*
X124230000Y-44474000D01*
X127230000Y-44474000D01*
X127230000Y-47474000D01*
G37*
G36*
X119700857Y-38947272D02*
G01*
X119901043Y-39030192D01*
X119901045Y-39030193D01*
X119991738Y-39090792D01*
X120081208Y-39150574D01*
X120234426Y-39303792D01*
X120354808Y-39483957D01*
X120437728Y-39684143D01*
X120480000Y-39896658D01*
X120480000Y-40113342D01*
X120437728Y-40325857D01*
X120354808Y-40526043D01*
X120354807Y-40526045D01*
X120234425Y-40706209D01*
X120081209Y-40859425D01*
X119901045Y-40979807D01*
X119901044Y-40979808D01*
X119901043Y-40979808D01*
X119700857Y-41062728D01*
X119488342Y-41105000D01*
X119271658Y-41105000D01*
X119059143Y-41062728D01*
X118858957Y-40979808D01*
X118858956Y-40979808D01*
X118858955Y-40979807D01*
X118678791Y-40859425D01*
X118525575Y-40706209D01*
X118405193Y-40526045D01*
X118405192Y-40526043D01*
X118322272Y-40325857D01*
X118280000Y-40113342D01*
X118280000Y-39896658D01*
X118322272Y-39684143D01*
X118405192Y-39483957D01*
X118525574Y-39303792D01*
X118678792Y-39150574D01*
X118768262Y-39090792D01*
X118858955Y-39030193D01*
X118858957Y-39030192D01*
X119059143Y-38947272D01*
X119271658Y-38905000D01*
X119488342Y-38905000D01*
X119700857Y-38947272D01*
G37*
G36*
X176850857Y-38947272D02*
G01*
X177051043Y-39030192D01*
X177051045Y-39030193D01*
X177141738Y-39090792D01*
X177231208Y-39150574D01*
X177384426Y-39303792D01*
X177504808Y-39483957D01*
X177587728Y-39684143D01*
X177630000Y-39896658D01*
X177630000Y-40113342D01*
X177587728Y-40325857D01*
X177504808Y-40526043D01*
X177504807Y-40526045D01*
X177384425Y-40706209D01*
X177231209Y-40859425D01*
X177051045Y-40979807D01*
X177051044Y-40979808D01*
X177051043Y-40979808D01*
X176850857Y-41062728D01*
X176638342Y-41105000D01*
X176421658Y-41105000D01*
X176209143Y-41062728D01*
X176008957Y-40979808D01*
X176008956Y-40979808D01*
X176008955Y-40979807D01*
X175828791Y-40859425D01*
X175675575Y-40706209D01*
X175555193Y-40526045D01*
X175555192Y-40526043D01*
X175472272Y-40325857D01*
X175430000Y-40113342D01*
X175430000Y-39896658D01*
X175472272Y-39684143D01*
X175555192Y-39483957D01*
X175675574Y-39303792D01*
X175828792Y-39150574D01*
X175918262Y-39090792D01*
X176008955Y-39030193D01*
X176008957Y-39030192D01*
X176209143Y-38947272D01*
X176421658Y-38905000D01*
X176638342Y-38905000D01*
X176850857Y-38947272D01*
G37*
G36*
X149100000Y-40705000D02*
G01*
X148080000Y-40705000D01*
X148080000Y-38035000D01*
X149100000Y-38035000D01*
X149100000Y-40705000D01*
G37*
G36*
X146560000Y-40705000D02*
G01*
X145540000Y-40705000D01*
X145540000Y-38035000D01*
X146560000Y-38035000D01*
X146560000Y-40705000D01*
G37*
G36*
X144020000Y-40705000D02*
G01*
X143000000Y-40705000D01*
X143000000Y-38035000D01*
X144020000Y-38035000D01*
X144020000Y-40705000D01*
G37*
G36*
X151640000Y-40705000D02*
G01*
X150620000Y-40705000D01*
X150620000Y-38035000D01*
X151640000Y-38035000D01*
X151640000Y-40705000D01*
G37*
M02*
