G04 #@! TF.GenerationSoftware,KiCad,Pcbnew,(5.1.5)-3*
G04 #@! TF.CreationDate,2020-01-13T17:27:11+01:00*
G04 #@! TF.ProjectId,MPPT PCB,4d505054-2050-4434-922e-6b696361645f,rev?*
G04 #@! TF.SameCoordinates,Original*
G04 #@! TF.FileFunction,Legend,Top*
G04 #@! TF.FilePolarity,Positive*
%FSLAX46Y46*%
G04 Gerber Fmt 4.6, Leading zero omitted, Abs format (unit mm)*
G04 Created by KiCad (PCBNEW (5.1.5)-3) date 2020-01-13 17:27:11*
%MOMM*%
%LPD*%
G04 APERTURE LIST*
%ADD10C,0.400000*%
%ADD11C,0.300000*%
%ADD12C,0.200000*%
%ADD13C,0.150000*%
%ADD14C,0.120000*%
G04 APERTURE END LIST*
D10*
X134701023Y-111966428D02*
X135081976Y-113299761D01*
X135462928Y-112347380D01*
X135843880Y-113299761D01*
X136224833Y-111966428D01*
X136796261Y-111966428D02*
X137177214Y-113299761D01*
X137558166Y-112347380D01*
X137939119Y-113299761D01*
X138320071Y-111966428D01*
X138891500Y-111966428D02*
X139272452Y-113299761D01*
X139653404Y-112347380D01*
X140034357Y-113299761D01*
X140415309Y-111966428D01*
X141177214Y-113109285D02*
X141272452Y-113204523D01*
X141177214Y-113299761D01*
X141081976Y-113204523D01*
X141177214Y-113109285D01*
X141177214Y-113299761D01*
X142034357Y-113204523D02*
X142224833Y-113299761D01*
X142605785Y-113299761D01*
X142796261Y-113204523D01*
X142891500Y-113014047D01*
X142891500Y-112918809D01*
X142796261Y-112728333D01*
X142605785Y-112633095D01*
X142320071Y-112633095D01*
X142129595Y-112537857D01*
X142034357Y-112347380D01*
X142034357Y-112252142D01*
X142129595Y-112061666D01*
X142320071Y-111966428D01*
X142605785Y-111966428D01*
X142796261Y-112061666D01*
X144605785Y-113204523D02*
X144415309Y-113299761D01*
X144034357Y-113299761D01*
X143843880Y-113204523D01*
X143748642Y-113109285D01*
X143653404Y-112918809D01*
X143653404Y-112347380D01*
X143748642Y-112156904D01*
X143843880Y-112061666D01*
X144034357Y-111966428D01*
X144415309Y-111966428D01*
X144605785Y-112061666D01*
X145462928Y-113299761D02*
X145462928Y-111966428D01*
X145462928Y-112347380D02*
X145558166Y-112156904D01*
X145653404Y-112061666D01*
X145843880Y-111966428D01*
X146034357Y-111966428D01*
X146986738Y-113299761D02*
X146796261Y-113204523D01*
X146701023Y-113109285D01*
X146605785Y-112918809D01*
X146605785Y-112347380D01*
X146701023Y-112156904D01*
X146796261Y-112061666D01*
X146986738Y-111966428D01*
X147272452Y-111966428D01*
X147462928Y-112061666D01*
X147558166Y-112156904D01*
X147653404Y-112347380D01*
X147653404Y-112918809D01*
X147558166Y-113109285D01*
X147462928Y-113204523D01*
X147272452Y-113299761D01*
X146986738Y-113299761D01*
X148510547Y-113299761D02*
X148510547Y-111299761D01*
X148510547Y-112061666D02*
X148701023Y-111966428D01*
X149081976Y-111966428D01*
X149272452Y-112061666D01*
X149367690Y-112156904D01*
X149462928Y-112347380D01*
X149462928Y-112918809D01*
X149367690Y-113109285D01*
X149272452Y-113204523D01*
X149081976Y-113299761D01*
X148701023Y-113299761D01*
X148510547Y-113204523D01*
X150605785Y-113299761D02*
X150415309Y-113204523D01*
X150320071Y-113109285D01*
X150224833Y-112918809D01*
X150224833Y-112347380D01*
X150320071Y-112156904D01*
X150415309Y-112061666D01*
X150605785Y-111966428D01*
X150891500Y-111966428D01*
X151081976Y-112061666D01*
X151177214Y-112156904D01*
X151272452Y-112347380D01*
X151272452Y-112918809D01*
X151177214Y-113109285D01*
X151081976Y-113204523D01*
X150891500Y-113299761D01*
X150605785Y-113299761D01*
X151843880Y-111966428D02*
X152605785Y-111966428D01*
X152129595Y-111299761D02*
X152129595Y-113014047D01*
X152224833Y-113204523D01*
X152415309Y-113299761D01*
X152605785Y-113299761D01*
X153272452Y-113299761D02*
X153272452Y-111966428D01*
X153272452Y-111299761D02*
X153177214Y-111395000D01*
X153272452Y-111490238D01*
X153367690Y-111395000D01*
X153272452Y-111299761D01*
X153272452Y-111490238D01*
X155081976Y-113204523D02*
X154891500Y-113299761D01*
X154510547Y-113299761D01*
X154320071Y-113204523D01*
X154224833Y-113109285D01*
X154129595Y-112918809D01*
X154129595Y-112347380D01*
X154224833Y-112156904D01*
X154320071Y-112061666D01*
X154510547Y-111966428D01*
X154891500Y-111966428D01*
X155081976Y-112061666D01*
X155843880Y-113204523D02*
X156034357Y-113299761D01*
X156415309Y-113299761D01*
X156605785Y-113204523D01*
X156701023Y-113014047D01*
X156701023Y-112918809D01*
X156605785Y-112728333D01*
X156415309Y-112633095D01*
X156129595Y-112633095D01*
X155939119Y-112537857D01*
X155843880Y-112347380D01*
X155843880Y-112252142D01*
X155939119Y-112061666D01*
X156129595Y-111966428D01*
X156415309Y-111966428D01*
X156605785Y-112061666D01*
X157558166Y-113109285D02*
X157653404Y-113204523D01*
X157558166Y-113299761D01*
X157462928Y-113204523D01*
X157558166Y-113109285D01*
X157558166Y-113299761D01*
X159272452Y-113204523D02*
X159081976Y-113299761D01*
X158701023Y-113299761D01*
X158510547Y-113204523D01*
X158415309Y-113014047D01*
X158415309Y-112252142D01*
X158510547Y-112061666D01*
X158701023Y-111966428D01*
X159081976Y-111966428D01*
X159272452Y-112061666D01*
X159367690Y-112252142D01*
X159367690Y-112442619D01*
X158415309Y-112633095D01*
X160129595Y-113204523D02*
X160320071Y-113299761D01*
X160701023Y-113299761D01*
X160891500Y-113204523D01*
X160986738Y-113014047D01*
X160986738Y-112918809D01*
X160891500Y-112728333D01*
X160701023Y-112633095D01*
X160415309Y-112633095D01*
X160224833Y-112537857D01*
X160129595Y-112347380D01*
X160129595Y-112252142D01*
X160224833Y-112061666D01*
X160415309Y-111966428D01*
X160701023Y-111966428D01*
X160891500Y-112061666D01*
D11*
X175450571Y-51161142D02*
X176593428Y-51161142D01*
X175450571Y-45954142D02*
X176593428Y-45954142D01*
X176022000Y-46525571D02*
X176022000Y-45382714D01*
D12*
X119641880Y-104282095D02*
X118641880Y-104282095D01*
X119356166Y-103948761D01*
X118641880Y-103615428D01*
X119641880Y-103615428D01*
X119641880Y-103139238D02*
X118641880Y-103139238D01*
X118641880Y-102758285D01*
X118689500Y-102663047D01*
X118737119Y-102615428D01*
X118832357Y-102567809D01*
X118975214Y-102567809D01*
X119070452Y-102615428D01*
X119118071Y-102663047D01*
X119165690Y-102758285D01*
X119165690Y-103139238D01*
X119641880Y-102139238D02*
X118641880Y-102139238D01*
X118641880Y-101758285D01*
X118689500Y-101663047D01*
X118737119Y-101615428D01*
X118832357Y-101567809D01*
X118975214Y-101567809D01*
X119070452Y-101615428D01*
X119118071Y-101663047D01*
X119165690Y-101758285D01*
X119165690Y-102139238D01*
X118641880Y-101282095D02*
X118641880Y-100710666D01*
X119641880Y-100996380D02*
X118641880Y-100996380D01*
X119641880Y-99615428D02*
X118641880Y-99615428D01*
X119022833Y-99615428D02*
X118975214Y-99520190D01*
X118975214Y-99329714D01*
X119022833Y-99234476D01*
X119070452Y-99186857D01*
X119165690Y-99139238D01*
X119451404Y-99139238D01*
X119546642Y-99186857D01*
X119594261Y-99234476D01*
X119641880Y-99329714D01*
X119641880Y-99520190D01*
X119594261Y-99615428D01*
X119641880Y-98567809D02*
X119594261Y-98663047D01*
X119546642Y-98710666D01*
X119451404Y-98758285D01*
X119165690Y-98758285D01*
X119070452Y-98710666D01*
X119022833Y-98663047D01*
X118975214Y-98567809D01*
X118975214Y-98424952D01*
X119022833Y-98329714D01*
X119070452Y-98282095D01*
X119165690Y-98234476D01*
X119451404Y-98234476D01*
X119546642Y-98282095D01*
X119594261Y-98329714D01*
X119641880Y-98424952D01*
X119641880Y-98567809D01*
X119641880Y-97377333D02*
X119118071Y-97377333D01*
X119022833Y-97424952D01*
X118975214Y-97520190D01*
X118975214Y-97710666D01*
X119022833Y-97805904D01*
X119594261Y-97377333D02*
X119641880Y-97472571D01*
X119641880Y-97710666D01*
X119594261Y-97805904D01*
X119499023Y-97853523D01*
X119403785Y-97853523D01*
X119308547Y-97805904D01*
X119260928Y-97710666D01*
X119260928Y-97472571D01*
X119213309Y-97377333D01*
X119641880Y-96901142D02*
X118975214Y-96901142D01*
X119165690Y-96901142D02*
X119070452Y-96853523D01*
X119022833Y-96805904D01*
X118975214Y-96710666D01*
X118975214Y-96615428D01*
X119641880Y-95853523D02*
X118641880Y-95853523D01*
X119594261Y-95853523D02*
X119641880Y-95948761D01*
X119641880Y-96139238D01*
X119594261Y-96234476D01*
X119546642Y-96282095D01*
X119451404Y-96329714D01*
X119165690Y-96329714D01*
X119070452Y-96282095D01*
X119022833Y-96234476D01*
X118975214Y-96139238D01*
X118975214Y-95948761D01*
X119022833Y-95853523D01*
X118975214Y-94710666D02*
X119641880Y-94472571D01*
X118975214Y-94234476D01*
X118737119Y-93901142D02*
X118689500Y-93853523D01*
X118641880Y-93758285D01*
X118641880Y-93520190D01*
X118689500Y-93424952D01*
X118737119Y-93377333D01*
X118832357Y-93329714D01*
X118927595Y-93329714D01*
X119070452Y-93377333D01*
X119641880Y-93948761D01*
X119641880Y-93329714D01*
X119641880Y-92901142D02*
X118975214Y-92901142D01*
X119165690Y-92901142D02*
X119070452Y-92853523D01*
X119022833Y-92805904D01*
X118975214Y-92710666D01*
X118975214Y-92615428D01*
X118641880Y-92091619D02*
X118641880Y-91996380D01*
X118689500Y-91901142D01*
X118737119Y-91853523D01*
X118832357Y-91805904D01*
X119022833Y-91758285D01*
X119260928Y-91758285D01*
X119451404Y-91805904D01*
X119546642Y-91853523D01*
X119594261Y-91901142D01*
X119641880Y-91996380D01*
X119641880Y-92091619D01*
X119594261Y-92186857D01*
X119546642Y-92234476D01*
X119451404Y-92282095D01*
X119260928Y-92329714D01*
X119022833Y-92329714D01*
X118832357Y-92282095D01*
X118737119Y-92234476D01*
X118689500Y-92186857D01*
X118641880Y-92091619D01*
D11*
X142558071Y-101908500D02*
X143272357Y-101908500D01*
X142415214Y-102337071D02*
X142915214Y-100837071D01*
X143415214Y-102337071D01*
X144772357Y-102337071D02*
X144272357Y-101622785D01*
X143915214Y-102337071D02*
X143915214Y-100837071D01*
X144486642Y-100837071D01*
X144629500Y-100908500D01*
X144700928Y-100979928D01*
X144772357Y-101122785D01*
X144772357Y-101337071D01*
X144700928Y-101479928D01*
X144629500Y-101551357D01*
X144486642Y-101622785D01*
X143915214Y-101622785D01*
X145415214Y-102337071D02*
X145415214Y-100837071D01*
X145772357Y-100837071D01*
X145986642Y-100908500D01*
X146129500Y-101051357D01*
X146200928Y-101194214D01*
X146272357Y-101479928D01*
X146272357Y-101694214D01*
X146200928Y-101979928D01*
X146129500Y-102122785D01*
X145986642Y-102265642D01*
X145772357Y-102337071D01*
X145415214Y-102337071D01*
X146915214Y-100837071D02*
X146915214Y-102051357D01*
X146986642Y-102194214D01*
X147058071Y-102265642D01*
X147200928Y-102337071D01*
X147486642Y-102337071D01*
X147629500Y-102265642D01*
X147700928Y-102194214D01*
X147772357Y-102051357D01*
X147772357Y-100837071D01*
X148486642Y-102337071D02*
X148486642Y-100837071D01*
X149200928Y-102337071D02*
X149200928Y-100837071D01*
X150058071Y-102337071D01*
X150058071Y-100837071D01*
X151058071Y-100837071D02*
X151343785Y-100837071D01*
X151486642Y-100908500D01*
X151629500Y-101051357D01*
X151700928Y-101337071D01*
X151700928Y-101837071D01*
X151629500Y-102122785D01*
X151486642Y-102265642D01*
X151343785Y-102337071D01*
X151058071Y-102337071D01*
X150915214Y-102265642D01*
X150772357Y-102122785D01*
X150700928Y-101837071D01*
X150700928Y-101337071D01*
X150772357Y-101051357D01*
X150915214Y-100908500D01*
X151058071Y-100837071D01*
X144486642Y-104887071D02*
X144486642Y-103387071D01*
X145343785Y-104887071D01*
X145343785Y-103387071D01*
X145986642Y-104458500D02*
X146700928Y-104458500D01*
X145843785Y-104887071D02*
X146343785Y-103387071D01*
X146843785Y-104887071D01*
X147343785Y-104887071D02*
X147343785Y-103387071D01*
X148200928Y-104887071D01*
X148200928Y-103387071D01*
X149200928Y-103387071D02*
X149486642Y-103387071D01*
X149629500Y-103458500D01*
X149772357Y-103601357D01*
X149843785Y-103887071D01*
X149843785Y-104387071D01*
X149772357Y-104672785D01*
X149629500Y-104815642D01*
X149486642Y-104887071D01*
X149200928Y-104887071D01*
X149058071Y-104815642D01*
X148915214Y-104672785D01*
X148843785Y-104387071D01*
X148843785Y-103887071D01*
X148915214Y-103601357D01*
X149058071Y-103458500D01*
X149200928Y-103387071D01*
D13*
X137668000Y-108648500D02*
X137668000Y-69469000D01*
X156464000Y-108648500D02*
X137668000Y-108648500D01*
X156464000Y-69469000D02*
X156464000Y-108648500D01*
X137668000Y-69469000D02*
X156464000Y-69469000D01*
D12*
X156749857Y-83637428D02*
X157511761Y-83637428D01*
X157130809Y-84018380D02*
X157130809Y-83256476D01*
X158464142Y-83018380D02*
X157987952Y-83018380D01*
X157940333Y-83494571D01*
X157987952Y-83446952D01*
X158083190Y-83399333D01*
X158321285Y-83399333D01*
X158416523Y-83446952D01*
X158464142Y-83494571D01*
X158511761Y-83589809D01*
X158511761Y-83827904D01*
X158464142Y-83923142D01*
X158416523Y-83970761D01*
X158321285Y-84018380D01*
X158083190Y-84018380D01*
X157987952Y-83970761D01*
X157940333Y-83923142D01*
X156710190Y-77938380D02*
X157043523Y-78938380D01*
X157376857Y-77938380D01*
X157710190Y-78938380D02*
X157710190Y-78271714D01*
X157710190Y-77938380D02*
X157662571Y-77986000D01*
X157710190Y-78033619D01*
X157757809Y-77986000D01*
X157710190Y-77938380D01*
X157710190Y-78033619D01*
X158186380Y-78271714D02*
X158186380Y-78938380D01*
X158186380Y-78366952D02*
X158234000Y-78319333D01*
X158329238Y-78271714D01*
X158472095Y-78271714D01*
X158567333Y-78319333D01*
X158614952Y-78414571D01*
X158614952Y-78938380D01*
X131310190Y-65111380D02*
X131643523Y-66111380D01*
X131976857Y-65111380D01*
X132310190Y-66111380D02*
X132310190Y-65444714D01*
X132310190Y-65111380D02*
X132262571Y-65159000D01*
X132310190Y-65206619D01*
X132357809Y-65159000D01*
X132310190Y-65111380D01*
X132310190Y-65206619D01*
X132786380Y-65444714D02*
X132786380Y-66111380D01*
X132786380Y-65539952D02*
X132834000Y-65492333D01*
X132929238Y-65444714D01*
X133072095Y-65444714D01*
X133167333Y-65492333D01*
X133214952Y-65587571D01*
X133214952Y-66111380D01*
X131286357Y-60523428D02*
X132048261Y-60523428D01*
X131667309Y-60904380D02*
X131667309Y-60142476D01*
X133000642Y-59904380D02*
X132524452Y-59904380D01*
X132476833Y-60380571D01*
X132524452Y-60332952D01*
X132619690Y-60285333D01*
X132857785Y-60285333D01*
X132953023Y-60332952D01*
X133000642Y-60380571D01*
X133048261Y-60475809D01*
X133048261Y-60713904D01*
X133000642Y-60809142D01*
X132953023Y-60856761D01*
X132857785Y-60904380D01*
X132619690Y-60904380D01*
X132524452Y-60856761D01*
X132476833Y-60809142D01*
D11*
X119189571Y-65512142D02*
X120332428Y-65512142D01*
X119189571Y-60305142D02*
X120332428Y-60305142D01*
X119761000Y-60876571D02*
X119761000Y-59733714D01*
D12*
X120166095Y-57523071D02*
X120308952Y-57570690D01*
X120356571Y-57618309D01*
X120404190Y-57713547D01*
X120404190Y-57856404D01*
X120356571Y-57951642D01*
X120308952Y-57999261D01*
X120213714Y-58046880D01*
X119832761Y-58046880D01*
X119832761Y-57046880D01*
X120166095Y-57046880D01*
X120261333Y-57094500D01*
X120308952Y-57142119D01*
X120356571Y-57237357D01*
X120356571Y-57332595D01*
X120308952Y-57427833D01*
X120261333Y-57475452D01*
X120166095Y-57523071D01*
X119832761Y-57523071D01*
X120785142Y-57761166D02*
X121261333Y-57761166D01*
X120689904Y-58046880D02*
X121023238Y-57046880D01*
X121356571Y-58046880D01*
X121547047Y-57046880D02*
X122118476Y-57046880D01*
X121832761Y-58046880D02*
X121832761Y-57046880D01*
X122308952Y-57046880D02*
X122880380Y-57046880D01*
X122594666Y-58046880D02*
X122594666Y-57046880D01*
X122975619Y-58142119D02*
X123737523Y-58142119D01*
X123975619Y-58046880D02*
X123975619Y-57046880D01*
X124451809Y-58046880D02*
X124451809Y-57046880D01*
X125023238Y-58046880D01*
X125023238Y-57046880D01*
X174783928Y-97289880D02*
X174450595Y-96813690D01*
X174212500Y-97289880D02*
X174212500Y-96289880D01*
X174593452Y-96289880D01*
X174688690Y-96337500D01*
X174736309Y-96385119D01*
X174783928Y-96480357D01*
X174783928Y-96623214D01*
X174736309Y-96718452D01*
X174688690Y-96766071D01*
X174593452Y-96813690D01*
X174212500Y-96813690D01*
X175117261Y-96289880D02*
X175783928Y-97289880D01*
X175783928Y-96289880D02*
X175117261Y-97289880D01*
X175926785Y-97385119D02*
X176688690Y-97385119D01*
X177260119Y-96766071D02*
X177402976Y-96813690D01*
X177450595Y-96861309D01*
X177498214Y-96956547D01*
X177498214Y-97099404D01*
X177450595Y-97194642D01*
X177402976Y-97242261D01*
X177307738Y-97289880D01*
X176926785Y-97289880D01*
X176926785Y-96289880D01*
X177260119Y-96289880D01*
X177355357Y-96337500D01*
X177402976Y-96385119D01*
X177450595Y-96480357D01*
X177450595Y-96575595D01*
X177402976Y-96670833D01*
X177355357Y-96718452D01*
X177260119Y-96766071D01*
X176926785Y-96766071D01*
X177783928Y-96289880D02*
X178355357Y-96289880D01*
X178069642Y-97289880D02*
X178069642Y-96289880D01*
X174188690Y-98893380D02*
X174760119Y-98893380D01*
X174474404Y-99893380D02*
X174474404Y-98893380D01*
X174998214Y-98893380D02*
X175664880Y-99893380D01*
X175664880Y-98893380D02*
X174998214Y-99893380D01*
X175807738Y-99988619D02*
X176569642Y-99988619D01*
X177141071Y-99369571D02*
X177283928Y-99417190D01*
X177331547Y-99464809D01*
X177379166Y-99560047D01*
X177379166Y-99702904D01*
X177331547Y-99798142D01*
X177283928Y-99845761D01*
X177188690Y-99893380D01*
X176807738Y-99893380D01*
X176807738Y-98893380D01*
X177141071Y-98893380D01*
X177236309Y-98941000D01*
X177283928Y-98988619D01*
X177331547Y-99083857D01*
X177331547Y-99179095D01*
X177283928Y-99274333D01*
X177236309Y-99321952D01*
X177141071Y-99369571D01*
X176807738Y-99369571D01*
X177664880Y-98893380D02*
X178236309Y-98893380D01*
X177950595Y-99893380D02*
X177950595Y-98893380D01*
X174879095Y-101417500D02*
X174783857Y-101369880D01*
X174641000Y-101369880D01*
X174498142Y-101417500D01*
X174402904Y-101512738D01*
X174355285Y-101607976D01*
X174307666Y-101798452D01*
X174307666Y-101941309D01*
X174355285Y-102131785D01*
X174402904Y-102227023D01*
X174498142Y-102322261D01*
X174641000Y-102369880D01*
X174736238Y-102369880D01*
X174879095Y-102322261D01*
X174926714Y-102274642D01*
X174926714Y-101941309D01*
X174736238Y-101941309D01*
X175355285Y-102369880D02*
X175355285Y-101369880D01*
X175926714Y-102369880D01*
X175926714Y-101369880D01*
X176402904Y-102369880D02*
X176402904Y-101369880D01*
X176641000Y-101369880D01*
X176783857Y-101417500D01*
X176879095Y-101512738D01*
X176926714Y-101607976D01*
X176974333Y-101798452D01*
X176974333Y-101941309D01*
X176926714Y-102131785D01*
X176879095Y-102227023D01*
X176783857Y-102322261D01*
X176641000Y-102369880D01*
X176402904Y-102369880D01*
X174387023Y-103846380D02*
X174720357Y-104846380D01*
X175053690Y-103846380D01*
X175815595Y-104798761D02*
X175720357Y-104846380D01*
X175529880Y-104846380D01*
X175434642Y-104798761D01*
X175387023Y-104751142D01*
X175339404Y-104655904D01*
X175339404Y-104370190D01*
X175387023Y-104274952D01*
X175434642Y-104227333D01*
X175529880Y-104179714D01*
X175720357Y-104179714D01*
X175815595Y-104227333D01*
X176672738Y-104798761D02*
X176577500Y-104846380D01*
X176387023Y-104846380D01*
X176291785Y-104798761D01*
X176244166Y-104751142D01*
X176196547Y-104655904D01*
X176196547Y-104370190D01*
X176244166Y-104274952D01*
X176291785Y-104227333D01*
X176387023Y-104179714D01*
X176577500Y-104179714D01*
X176672738Y-104227333D01*
D11*
X171938214Y-110255857D02*
X172152500Y-110327285D01*
X172223928Y-110398714D01*
X172295357Y-110541571D01*
X172295357Y-110755857D01*
X172223928Y-110898714D01*
X172152500Y-110970142D01*
X172009642Y-111041571D01*
X171438214Y-111041571D01*
X171438214Y-109541571D01*
X171938214Y-109541571D01*
X172081071Y-109613000D01*
X172152500Y-109684428D01*
X172223928Y-109827285D01*
X172223928Y-109970142D01*
X172152500Y-110113000D01*
X172081071Y-110184428D01*
X171938214Y-110255857D01*
X171438214Y-110255857D01*
X172723928Y-109541571D02*
X173581071Y-109541571D01*
X173152500Y-111041571D02*
X173152500Y-109541571D01*
D12*
X174228357Y-84923380D02*
X174418833Y-84923380D01*
X174514071Y-84971000D01*
X174609309Y-85066238D01*
X174656928Y-85256714D01*
X174656928Y-85590047D01*
X174609309Y-85780523D01*
X174514071Y-85875761D01*
X174418833Y-85923380D01*
X174228357Y-85923380D01*
X174133119Y-85875761D01*
X174037880Y-85780523D01*
X173990261Y-85590047D01*
X173990261Y-85256714D01*
X174037880Y-85066238D01*
X174133119Y-84971000D01*
X174228357Y-84923380D01*
X175085500Y-84923380D02*
X175085500Y-85732904D01*
X175133119Y-85828142D01*
X175180738Y-85875761D01*
X175275976Y-85923380D01*
X175466452Y-85923380D01*
X175561690Y-85875761D01*
X175609309Y-85828142D01*
X175656928Y-85732904D01*
X175656928Y-84923380D01*
X175990261Y-84923380D02*
X176561690Y-84923380D01*
X176275976Y-85923380D02*
X176275976Y-84923380D01*
X176656928Y-86018619D02*
X177418833Y-86018619D01*
X178180738Y-85923380D02*
X177609309Y-85923380D01*
X177895023Y-85923380D02*
X177895023Y-84923380D01*
X177799785Y-85066238D01*
X177704547Y-85161476D01*
X177609309Y-85209095D01*
X174228357Y-81430880D02*
X174418833Y-81430880D01*
X174514071Y-81478500D01*
X174609309Y-81573738D01*
X174656928Y-81764214D01*
X174656928Y-82097547D01*
X174609309Y-82288023D01*
X174514071Y-82383261D01*
X174418833Y-82430880D01*
X174228357Y-82430880D01*
X174133119Y-82383261D01*
X174037880Y-82288023D01*
X173990261Y-82097547D01*
X173990261Y-81764214D01*
X174037880Y-81573738D01*
X174133119Y-81478500D01*
X174228357Y-81430880D01*
X175085500Y-81430880D02*
X175085500Y-82240404D01*
X175133119Y-82335642D01*
X175180738Y-82383261D01*
X175275976Y-82430880D01*
X175466452Y-82430880D01*
X175561690Y-82383261D01*
X175609309Y-82335642D01*
X175656928Y-82240404D01*
X175656928Y-81430880D01*
X175990261Y-81430880D02*
X176561690Y-81430880D01*
X176275976Y-82430880D02*
X176275976Y-81430880D01*
X176656928Y-82526119D02*
X177418833Y-82526119D01*
X177609309Y-81526119D02*
X177656928Y-81478500D01*
X177752166Y-81430880D01*
X177990261Y-81430880D01*
X178085500Y-81478500D01*
X178133119Y-81526119D01*
X178180738Y-81621357D01*
X178180738Y-81716595D01*
X178133119Y-81859452D01*
X177561690Y-82430880D01*
X178180738Y-82430880D01*
X174228357Y-77684380D02*
X174418833Y-77684380D01*
X174514071Y-77732000D01*
X174609309Y-77827238D01*
X174656928Y-78017714D01*
X174656928Y-78351047D01*
X174609309Y-78541523D01*
X174514071Y-78636761D01*
X174418833Y-78684380D01*
X174228357Y-78684380D01*
X174133119Y-78636761D01*
X174037880Y-78541523D01*
X173990261Y-78351047D01*
X173990261Y-78017714D01*
X174037880Y-77827238D01*
X174133119Y-77732000D01*
X174228357Y-77684380D01*
X175085500Y-77684380D02*
X175085500Y-78493904D01*
X175133119Y-78589142D01*
X175180738Y-78636761D01*
X175275976Y-78684380D01*
X175466452Y-78684380D01*
X175561690Y-78636761D01*
X175609309Y-78589142D01*
X175656928Y-78493904D01*
X175656928Y-77684380D01*
X175990261Y-77684380D02*
X176561690Y-77684380D01*
X176275976Y-78684380D02*
X176275976Y-77684380D01*
X176656928Y-78779619D02*
X177418833Y-78779619D01*
X177561690Y-77684380D02*
X178180738Y-77684380D01*
X177847404Y-78065333D01*
X177990261Y-78065333D01*
X178085500Y-78112952D01*
X178133119Y-78160571D01*
X178180738Y-78255809D01*
X178180738Y-78493904D01*
X178133119Y-78589142D01*
X178085500Y-78636761D01*
X177990261Y-78684380D01*
X177704547Y-78684380D01*
X177609309Y-78636761D01*
X177561690Y-78589142D01*
X174228357Y-74191880D02*
X174418833Y-74191880D01*
X174514071Y-74239500D01*
X174609309Y-74334738D01*
X174656928Y-74525214D01*
X174656928Y-74858547D01*
X174609309Y-75049023D01*
X174514071Y-75144261D01*
X174418833Y-75191880D01*
X174228357Y-75191880D01*
X174133119Y-75144261D01*
X174037880Y-75049023D01*
X173990261Y-74858547D01*
X173990261Y-74525214D01*
X174037880Y-74334738D01*
X174133119Y-74239500D01*
X174228357Y-74191880D01*
X175085500Y-74191880D02*
X175085500Y-75001404D01*
X175133119Y-75096642D01*
X175180738Y-75144261D01*
X175275976Y-75191880D01*
X175466452Y-75191880D01*
X175561690Y-75144261D01*
X175609309Y-75096642D01*
X175656928Y-75001404D01*
X175656928Y-74191880D01*
X175990261Y-74191880D02*
X176561690Y-74191880D01*
X176275976Y-75191880D02*
X176275976Y-74191880D01*
X176656928Y-75287119D02*
X177418833Y-75287119D01*
X178085500Y-74525214D02*
X178085500Y-75191880D01*
X177847404Y-74144261D02*
X177609309Y-74858547D01*
X178228357Y-74858547D01*
X166354500Y-88145928D02*
X167116404Y-88145928D01*
X169116404Y-88145928D02*
X169878309Y-88145928D01*
X169497357Y-88526880D02*
X169497357Y-87764976D01*
X171830690Y-88479261D02*
X171973547Y-88526880D01*
X172211642Y-88526880D01*
X172306880Y-88479261D01*
X172354500Y-88431642D01*
X172402119Y-88336404D01*
X172402119Y-88241166D01*
X172354500Y-88145928D01*
X172306880Y-88098309D01*
X172211642Y-88050690D01*
X172021166Y-88003071D01*
X171925928Y-87955452D01*
X171878309Y-87907833D01*
X171830690Y-87812595D01*
X171830690Y-87717357D01*
X171878309Y-87622119D01*
X171925928Y-87574500D01*
X172021166Y-87526880D01*
X172259261Y-87526880D01*
X172402119Y-87574500D01*
X122476000Y-87256928D02*
X123237904Y-87256928D01*
X125237904Y-87256928D02*
X125999809Y-87256928D01*
X125618857Y-87637880D02*
X125618857Y-86875976D01*
X127952190Y-87590261D02*
X128095047Y-87637880D01*
X128333142Y-87637880D01*
X128428380Y-87590261D01*
X128476000Y-87542642D01*
X128523619Y-87447404D01*
X128523619Y-87352166D01*
X128476000Y-87256928D01*
X128428380Y-87209309D01*
X128333142Y-87161690D01*
X128142666Y-87114071D01*
X128047428Y-87066452D01*
X127999809Y-87018833D01*
X127952190Y-86923595D01*
X127952190Y-86828357D01*
X127999809Y-86733119D01*
X128047428Y-86685500D01*
X128142666Y-86637880D01*
X128380761Y-86637880D01*
X128523619Y-86685500D01*
X117999047Y-74493380D02*
X117999047Y-73493380D01*
X118475238Y-74493380D02*
X118475238Y-73493380D01*
X119046666Y-74493380D01*
X119046666Y-73493380D01*
X119284761Y-74588619D02*
X120046666Y-74588619D01*
X120713333Y-73826714D02*
X120713333Y-74493380D01*
X120475238Y-73445761D02*
X120237142Y-74160047D01*
X120856190Y-74160047D01*
X117999047Y-78112880D02*
X117999047Y-77112880D01*
X118475238Y-78112880D02*
X118475238Y-77112880D01*
X119046666Y-78112880D01*
X119046666Y-77112880D01*
X119284761Y-78208119D02*
X120046666Y-78208119D01*
X120189523Y-77112880D02*
X120808571Y-77112880D01*
X120475238Y-77493833D01*
X120618095Y-77493833D01*
X120713333Y-77541452D01*
X120760952Y-77589071D01*
X120808571Y-77684309D01*
X120808571Y-77922404D01*
X120760952Y-78017642D01*
X120713333Y-78065261D01*
X120618095Y-78112880D01*
X120332380Y-78112880D01*
X120237142Y-78065261D01*
X120189523Y-78017642D01*
X118062547Y-81668880D02*
X118062547Y-80668880D01*
X118538738Y-81668880D02*
X118538738Y-80668880D01*
X119110166Y-81668880D01*
X119110166Y-80668880D01*
X119348261Y-81764119D02*
X120110166Y-81764119D01*
X120300642Y-80764119D02*
X120348261Y-80716500D01*
X120443500Y-80668880D01*
X120681595Y-80668880D01*
X120776833Y-80716500D01*
X120824452Y-80764119D01*
X120872071Y-80859357D01*
X120872071Y-80954595D01*
X120824452Y-81097452D01*
X120253023Y-81668880D01*
X120872071Y-81668880D01*
X117999047Y-85224880D02*
X117999047Y-84224880D01*
X118475238Y-85224880D02*
X118475238Y-84224880D01*
X119046666Y-85224880D01*
X119046666Y-84224880D01*
X119284761Y-85320119D02*
X120046666Y-85320119D01*
X120808571Y-85224880D02*
X120237142Y-85224880D01*
X120522857Y-85224880D02*
X120522857Y-84224880D01*
X120427619Y-84367738D01*
X120332380Y-84462976D01*
X120237142Y-84510595D01*
D11*
X119062571Y-45954142D02*
X120205428Y-45954142D01*
X119062571Y-51161142D02*
X120205428Y-51161142D01*
X119634000Y-51732571D02*
X119634000Y-50589714D01*
X167791000Y-41088571D02*
X168076714Y-41088571D01*
X168219571Y-41160000D01*
X168362428Y-41302857D01*
X168433857Y-41588571D01*
X168433857Y-42088571D01*
X168362428Y-42374285D01*
X168219571Y-42517142D01*
X168076714Y-42588571D01*
X167791000Y-42588571D01*
X167648142Y-42517142D01*
X167505285Y-42374285D01*
X167433857Y-42088571D01*
X167433857Y-41588571D01*
X167505285Y-41302857D01*
X167648142Y-41160000D01*
X167791000Y-41088571D01*
X169076714Y-41088571D02*
X169076714Y-42302857D01*
X169148142Y-42445714D01*
X169219571Y-42517142D01*
X169362428Y-42588571D01*
X169648142Y-42588571D01*
X169791000Y-42517142D01*
X169862428Y-42445714D01*
X169933857Y-42302857D01*
X169933857Y-41088571D01*
X170433857Y-41088571D02*
X171291000Y-41088571D01*
X170862428Y-42588571D02*
X170862428Y-41088571D01*
X124944285Y-42588571D02*
X124944285Y-41088571D01*
X125658571Y-42588571D02*
X125658571Y-41088571D01*
X126515714Y-42588571D01*
X126515714Y-41088571D01*
X143558071Y-44176071D02*
X143558071Y-42676071D01*
X144272357Y-44176071D02*
X144272357Y-42676071D01*
X145129500Y-44176071D01*
X145129500Y-42676071D01*
X145772357Y-43747500D02*
X146486642Y-43747500D01*
X145629500Y-44176071D02*
X146129500Y-42676071D01*
X146629500Y-44176071D01*
X147058071Y-42818928D02*
X147129500Y-42747500D01*
X147272357Y-42676071D01*
X147629500Y-42676071D01*
X147772357Y-42747500D01*
X147843785Y-42818928D01*
X147915214Y-42961785D01*
X147915214Y-43104642D01*
X147843785Y-43318928D01*
X146986642Y-44176071D01*
X147915214Y-44176071D01*
X149343785Y-44176071D02*
X148486642Y-44176071D01*
X148915214Y-44176071D02*
X148915214Y-42676071D01*
X148772357Y-42890357D01*
X148629500Y-43033214D01*
X148486642Y-43104642D01*
X150058071Y-44176071D02*
X150343785Y-44176071D01*
X150486642Y-44104642D01*
X150558071Y-44033214D01*
X150700928Y-43818928D01*
X150772357Y-43533214D01*
X150772357Y-42961785D01*
X150700928Y-42818928D01*
X150629500Y-42747500D01*
X150486642Y-42676071D01*
X150200928Y-42676071D01*
X150058071Y-42747500D01*
X149986642Y-42818928D01*
X149915214Y-42961785D01*
X149915214Y-43318928D01*
X149986642Y-43461785D01*
X150058071Y-43533214D01*
X150200928Y-43604642D01*
X150486642Y-43604642D01*
X150629500Y-43533214D01*
X150700928Y-43461785D01*
X150772357Y-43318928D01*
D13*
X160274000Y-62801500D02*
X147129500Y-62801500D01*
X160274000Y-40576500D02*
X160274000Y-62801500D01*
X134175500Y-40576500D02*
X160274000Y-40576500D01*
X134175500Y-62801500D02*
X134175500Y-40576500D01*
X147129500Y-62801500D02*
X134175500Y-62801500D01*
X142017714Y-71699380D02*
X141446285Y-71699380D01*
X141732000Y-71699380D02*
X141732000Y-70699380D01*
X141636761Y-70842238D01*
X141541523Y-70937476D01*
X141446285Y-70985095D01*
X140716000Y-72517000D02*
X140716000Y-69977000D01*
X140716000Y-69977000D02*
X138176000Y-69977000D01*
X138176000Y-69977000D02*
X138176000Y-72517000D01*
X140716000Y-72517000D02*
X140716000Y-108077000D01*
X140716000Y-108077000D02*
X138176000Y-108077000D01*
X138176000Y-108077000D02*
X138176000Y-72517000D01*
X138176000Y-72517000D02*
X140716000Y-72517000D01*
X155956000Y-72517000D02*
X155956000Y-69977000D01*
X155956000Y-69977000D02*
X153416000Y-69977000D01*
X153416000Y-69977000D02*
X153416000Y-72517000D01*
X155956000Y-72517000D02*
X155956000Y-108077000D01*
X155956000Y-108077000D02*
X153416000Y-108077000D01*
X153416000Y-108077000D02*
X153416000Y-72517000D01*
X153416000Y-72517000D02*
X155956000Y-72517000D01*
D14*
X126605000Y-91790000D02*
X127863000Y-91790000D01*
X126605000Y-93630000D02*
X127863000Y-93630000D01*
X171541000Y-66866000D02*
X171541000Y-67022000D01*
X171541000Y-64550000D02*
X171541000Y-64706000D01*
X174142130Y-66865837D02*
G75*
G02X172060039Y-66866000I-1041130J1079837D01*
G01*
X174142130Y-64706163D02*
G75*
G03X172060039Y-64706000I-1041130J-1079837D01*
G01*
X174773335Y-66864608D02*
G75*
G02X171541000Y-67021516I-1672335J1078608D01*
G01*
X174773335Y-64707392D02*
G75*
G03X171541000Y-64550484I-1672335J-1078608D01*
G01*
X174773335Y-59119392D02*
G75*
G03X171541000Y-58962484I-1672335J-1078608D01*
G01*
X174773335Y-61276608D02*
G75*
G02X171541000Y-61433516I-1672335J1078608D01*
G01*
X174142130Y-59118163D02*
G75*
G03X172060039Y-59118000I-1041130J-1079837D01*
G01*
X174142130Y-61277837D02*
G75*
G02X172060039Y-61278000I-1041130J1079837D01*
G01*
X171541000Y-58962000D02*
X171541000Y-59118000D01*
X171541000Y-61278000D02*
X171541000Y-61434000D01*
X129346000Y-85912000D02*
X129346000Y-83252000D01*
X124206000Y-85912000D02*
X129346000Y-85912000D01*
X124206000Y-83252000D02*
X129346000Y-83252000D01*
X124206000Y-85912000D02*
X124206000Y-83252000D01*
X122936000Y-85912000D02*
X121606000Y-85912000D01*
X121606000Y-85912000D02*
X121606000Y-84582000D01*
X129346000Y-78800000D02*
X129346000Y-76140000D01*
X124206000Y-78800000D02*
X129346000Y-78800000D01*
X124206000Y-76140000D02*
X129346000Y-76140000D01*
X124206000Y-78800000D02*
X124206000Y-76140000D01*
X122936000Y-78800000D02*
X121606000Y-78800000D01*
X121606000Y-78800000D02*
X121606000Y-77470000D01*
X139386000Y-60960000D02*
X139386000Y-59630000D01*
X139386000Y-59630000D02*
X140716000Y-59630000D01*
X141986000Y-59630000D02*
X154746000Y-59630000D01*
X154746000Y-62290000D02*
X154746000Y-59630000D01*
X141986000Y-62290000D02*
X154746000Y-62290000D01*
X141986000Y-62290000D02*
X141986000Y-59630000D01*
X121920000Y-43434000D02*
X121920000Y-53594000D01*
X129540000Y-43434000D02*
X121920000Y-43434000D01*
X129540000Y-53594000D02*
X129540000Y-43434000D01*
X121920000Y-53594000D02*
X129540000Y-53594000D01*
X123190000Y-53594000D02*
X123190000Y-43434000D01*
X121606000Y-82356000D02*
X121606000Y-81026000D01*
X122936000Y-82356000D02*
X121606000Y-82356000D01*
X124206000Y-82356000D02*
X124206000Y-79696000D01*
X124206000Y-79696000D02*
X129346000Y-79696000D01*
X124206000Y-82356000D02*
X129346000Y-82356000D01*
X129346000Y-82356000D02*
X129346000Y-79696000D01*
X129346000Y-75244000D02*
X129346000Y-72584000D01*
X124206000Y-75244000D02*
X129346000Y-75244000D01*
X124206000Y-72584000D02*
X129346000Y-72584000D01*
X124206000Y-75244000D02*
X124206000Y-72584000D01*
X122936000Y-75244000D02*
X121606000Y-75244000D01*
X121606000Y-75244000D02*
X121606000Y-73914000D01*
X172085000Y-43434000D02*
X172085000Y-53594000D01*
X173355000Y-43434000D02*
X165735000Y-43434000D01*
X165735000Y-43434000D02*
X165735000Y-53594000D01*
X165735000Y-53594000D02*
X173355000Y-53594000D01*
X173355000Y-53594000D02*
X173355000Y-43434000D01*
X170882000Y-95504000D02*
X173542000Y-95504000D01*
X170882000Y-95504000D02*
X170882000Y-108264000D01*
X170882000Y-108264000D02*
X173542000Y-108264000D01*
X173542000Y-95504000D02*
X173542000Y-108264000D01*
X173542000Y-92904000D02*
X173542000Y-94234000D01*
X172212000Y-92904000D02*
X173542000Y-92904000D01*
X165548000Y-86674000D02*
X165548000Y-85344000D01*
X166878000Y-86674000D02*
X165548000Y-86674000D01*
X168148000Y-86674000D02*
X168148000Y-84014000D01*
X168148000Y-84014000D02*
X173288000Y-84014000D01*
X168148000Y-86674000D02*
X173288000Y-86674000D01*
X173288000Y-86674000D02*
X173288000Y-84014000D01*
X173288000Y-79562000D02*
X173288000Y-76902000D01*
X168148000Y-79562000D02*
X173288000Y-79562000D01*
X168148000Y-76902000D02*
X173288000Y-76902000D01*
X168148000Y-79562000D02*
X168148000Y-76902000D01*
X166878000Y-79562000D02*
X165548000Y-79562000D01*
X165548000Y-79562000D02*
X165548000Y-78232000D01*
X173288000Y-76006000D02*
X173288000Y-73346000D01*
X168148000Y-76006000D02*
X173288000Y-76006000D01*
X168148000Y-73346000D02*
X173288000Y-73346000D01*
X168148000Y-76006000D02*
X168148000Y-73346000D01*
X166878000Y-76006000D02*
X165548000Y-76006000D01*
X165548000Y-76006000D02*
X165548000Y-74676000D01*
X165548000Y-83118000D02*
X165548000Y-81788000D01*
X166878000Y-83118000D02*
X165548000Y-83118000D01*
X168148000Y-83118000D02*
X168148000Y-80458000D01*
X168148000Y-80458000D02*
X173288000Y-80458000D01*
X168148000Y-83118000D02*
X173288000Y-83118000D01*
X173288000Y-83118000D02*
X173288000Y-80458000D01*
X127702000Y-59122000D02*
X129032000Y-59122000D01*
X127702000Y-60452000D02*
X127702000Y-59122000D01*
X127702000Y-61722000D02*
X130362000Y-61722000D01*
X130362000Y-61722000D02*
X130362000Y-66862000D01*
X127702000Y-61722000D02*
X127702000Y-66862000D01*
X127702000Y-66862000D02*
X130362000Y-66862000D01*
X165735000Y-96036000D02*
X165735000Y-96806000D01*
X165735000Y-104116000D02*
X165735000Y-103346000D01*
X164365000Y-96806000D02*
X164365000Y-103346000D01*
X167105000Y-96806000D02*
X164365000Y-96806000D01*
X167105000Y-103346000D02*
X167105000Y-96806000D01*
X164365000Y-103346000D02*
X167105000Y-103346000D01*
X160174000Y-103346000D02*
X162914000Y-103346000D01*
X162914000Y-103346000D02*
X162914000Y-96806000D01*
X162914000Y-96806000D02*
X160174000Y-96806000D01*
X160174000Y-96806000D02*
X160174000Y-103346000D01*
X161544000Y-104116000D02*
X161544000Y-103346000D01*
X161544000Y-96036000D02*
X161544000Y-96806000D01*
X162814000Y-68175000D02*
X162814000Y-67405000D01*
X162814000Y-60095000D02*
X162814000Y-60865000D01*
X164184000Y-67405000D02*
X164184000Y-60865000D01*
X161444000Y-67405000D02*
X164184000Y-67405000D01*
X161444000Y-60865000D02*
X161444000Y-67405000D01*
X164184000Y-60865000D02*
X161444000Y-60865000D01*
X165635000Y-67405000D02*
X168375000Y-67405000D01*
X168375000Y-67405000D02*
X168375000Y-60865000D01*
X168375000Y-60865000D02*
X165635000Y-60865000D01*
X165635000Y-60865000D02*
X165635000Y-67405000D01*
X167005000Y-68175000D02*
X167005000Y-67405000D01*
X167005000Y-60095000D02*
X167005000Y-60865000D01*
X131294000Y-98044000D02*
X130524000Y-98044000D01*
X123214000Y-98044000D02*
X123984000Y-98044000D01*
X130524000Y-96674000D02*
X123984000Y-96674000D01*
X130524000Y-99414000D02*
X130524000Y-96674000D01*
X123984000Y-99414000D02*
X130524000Y-99414000D01*
X123984000Y-96674000D02*
X123984000Y-99414000D01*
X123190000Y-102870000D02*
X130810000Y-102870000D01*
X130810000Y-102870000D02*
X130810000Y-103170000D01*
X130810000Y-110490000D02*
X123190000Y-110490000D01*
X123190000Y-102870000D02*
X123190000Y-103170000D01*
X130810000Y-105110000D02*
X130810000Y-108250000D01*
X123190000Y-105110000D02*
X123190000Y-108250000D01*
X130810000Y-110190000D02*
X130810000Y-110490000D01*
X123190000Y-110190000D02*
X123190000Y-110490000D01*
X129540000Y-106680000D02*
G75*
G03X129540000Y-106680000I-2540000J0D01*
G01*
X121352000Y-66862000D02*
X124012000Y-66862000D01*
X121352000Y-61722000D02*
X121352000Y-66862000D01*
X124012000Y-61722000D02*
X124012000Y-66862000D01*
X121352000Y-61722000D02*
X124012000Y-61722000D01*
X121352000Y-60452000D02*
X121352000Y-59122000D01*
X121352000Y-59122000D02*
X122682000Y-59122000D01*
X161985000Y-77029000D02*
X159325000Y-77029000D01*
X161985000Y-82169000D02*
X161985000Y-77029000D01*
X159325000Y-82169000D02*
X159325000Y-77029000D01*
X161985000Y-82169000D02*
X159325000Y-82169000D01*
X161985000Y-83439000D02*
X161985000Y-84769000D01*
X161985000Y-84769000D02*
X160655000Y-84769000D01*
D13*
X127067333Y-91017142D02*
X127019714Y-91064761D01*
X126876857Y-91112380D01*
X126781619Y-91112380D01*
X126638761Y-91064761D01*
X126543523Y-90969523D01*
X126495904Y-90874285D01*
X126448285Y-90683809D01*
X126448285Y-90540952D01*
X126495904Y-90350476D01*
X126543523Y-90255238D01*
X126638761Y-90160000D01*
X126781619Y-90112380D01*
X126876857Y-90112380D01*
X127019714Y-90160000D01*
X127067333Y-90207619D01*
X128019714Y-91112380D02*
X127448285Y-91112380D01*
X127734000Y-91112380D02*
X127734000Y-90112380D01*
X127638761Y-90255238D01*
X127543523Y-90350476D01*
X127448285Y-90398095D01*
X172362904Y-63278380D02*
X172362904Y-62278380D01*
X172601000Y-62278380D01*
X172743857Y-62326000D01*
X172839095Y-62421238D01*
X172886714Y-62516476D01*
X172934333Y-62706952D01*
X172934333Y-62849809D01*
X172886714Y-63040285D01*
X172839095Y-63135523D01*
X172743857Y-63230761D01*
X172601000Y-63278380D01*
X172362904Y-63278380D01*
X173886714Y-63278380D02*
X173315285Y-63278380D01*
X173601000Y-63278380D02*
X173601000Y-62278380D01*
X173505761Y-62421238D01*
X173410523Y-62516476D01*
X173315285Y-62564095D01*
X172362904Y-57690380D02*
X172362904Y-56690380D01*
X172601000Y-56690380D01*
X172743857Y-56738000D01*
X172839095Y-56833238D01*
X172886714Y-56928476D01*
X172934333Y-57118952D01*
X172934333Y-57261809D01*
X172886714Y-57452285D01*
X172839095Y-57547523D01*
X172743857Y-57642761D01*
X172601000Y-57690380D01*
X172362904Y-57690380D01*
X173315285Y-56785619D02*
X173362904Y-56738000D01*
X173458142Y-56690380D01*
X173696238Y-56690380D01*
X173791476Y-56738000D01*
X173839095Y-56785619D01*
X173886714Y-56880857D01*
X173886714Y-56976095D01*
X173839095Y-57118952D01*
X173267666Y-57690380D01*
X173886714Y-57690380D01*
X137398380Y-61293333D02*
X138112666Y-61293333D01*
X138255523Y-61340952D01*
X138350761Y-61436190D01*
X138398380Y-61579047D01*
X138398380Y-61674285D01*
X137398380Y-60912380D02*
X137398380Y-60293333D01*
X137779333Y-60626666D01*
X137779333Y-60483809D01*
X137826952Y-60388571D01*
X137874571Y-60340952D01*
X137969809Y-60293333D01*
X138207904Y-60293333D01*
X138303142Y-60340952D01*
X138350761Y-60388571D01*
X138398380Y-60483809D01*
X138398380Y-60769523D01*
X138350761Y-60864761D01*
X138303142Y-60912380D01*
X130262380Y-48847333D02*
X130976666Y-48847333D01*
X131119523Y-48894952D01*
X131214761Y-48990190D01*
X131262380Y-49133047D01*
X131262380Y-49228285D01*
X130262380Y-47894952D02*
X130262380Y-48371142D01*
X130738571Y-48418761D01*
X130690952Y-48371142D01*
X130643333Y-48275904D01*
X130643333Y-48037809D01*
X130690952Y-47942571D01*
X130738571Y-47894952D01*
X130833809Y-47847333D01*
X131071904Y-47847333D01*
X131167142Y-47894952D01*
X131214761Y-47942571D01*
X131262380Y-48037809D01*
X131262380Y-48275904D01*
X131214761Y-48371142D01*
X131167142Y-48418761D01*
X163917380Y-48847333D02*
X164631666Y-48847333D01*
X164774523Y-48894952D01*
X164869761Y-48990190D01*
X164917380Y-49133047D01*
X164917380Y-49228285D01*
X164345952Y-48228285D02*
X164298333Y-48323523D01*
X164250714Y-48371142D01*
X164155476Y-48418761D01*
X164107857Y-48418761D01*
X164012619Y-48371142D01*
X163965000Y-48323523D01*
X163917380Y-48228285D01*
X163917380Y-48037809D01*
X163965000Y-47942571D01*
X164012619Y-47894952D01*
X164107857Y-47847333D01*
X164155476Y-47847333D01*
X164250714Y-47894952D01*
X164298333Y-47942571D01*
X164345952Y-48037809D01*
X164345952Y-48228285D01*
X164393571Y-48323523D01*
X164441190Y-48371142D01*
X164536428Y-48418761D01*
X164726904Y-48418761D01*
X164822142Y-48371142D01*
X164869761Y-48323523D01*
X164917380Y-48228285D01*
X164917380Y-48037809D01*
X164869761Y-47942571D01*
X164822142Y-47894952D01*
X164726904Y-47847333D01*
X164536428Y-47847333D01*
X164441190Y-47894952D01*
X164393571Y-47942571D01*
X164345952Y-48037809D01*
X171878666Y-90916380D02*
X171878666Y-91630666D01*
X171831047Y-91773523D01*
X171735809Y-91868761D01*
X171592952Y-91916380D01*
X171497714Y-91916380D01*
X172402476Y-91916380D02*
X172592952Y-91916380D01*
X172688190Y-91868761D01*
X172735809Y-91821142D01*
X172831047Y-91678285D01*
X172878666Y-91487809D01*
X172878666Y-91106857D01*
X172831047Y-91011619D01*
X172783428Y-90964000D01*
X172688190Y-90916380D01*
X172497714Y-90916380D01*
X172402476Y-90964000D01*
X172354857Y-91011619D01*
X172307238Y-91106857D01*
X172307238Y-91344952D01*
X172354857Y-91440190D01*
X172402476Y-91487809D01*
X172497714Y-91535428D01*
X172688190Y-91535428D01*
X172783428Y-91487809D01*
X172831047Y-91440190D01*
X172878666Y-91344952D01*
X128198666Y-57574380D02*
X128198666Y-58288666D01*
X128151047Y-58431523D01*
X128055809Y-58526761D01*
X127912952Y-58574380D01*
X127817714Y-58574380D01*
X128674857Y-58574380D02*
X128674857Y-57574380D01*
X129055809Y-57574380D01*
X129151047Y-57622000D01*
X129198666Y-57669619D01*
X129246285Y-57764857D01*
X129246285Y-57907714D01*
X129198666Y-58002952D01*
X129151047Y-58050571D01*
X129055809Y-58098190D01*
X128674857Y-58098190D01*
X130198666Y-58574380D02*
X129627238Y-58574380D01*
X129912952Y-58574380D02*
X129912952Y-57574380D01*
X129817714Y-57717238D01*
X129722476Y-57812476D01*
X129627238Y-57860095D01*
X168778180Y-100191866D02*
X168301990Y-100525200D01*
X168778180Y-100763295D02*
X167778180Y-100763295D01*
X167778180Y-100382342D01*
X167825800Y-100287104D01*
X167873419Y-100239485D01*
X167968657Y-100191866D01*
X168111514Y-100191866D01*
X168206752Y-100239485D01*
X168254371Y-100287104D01*
X168301990Y-100382342D01*
X168301990Y-100763295D01*
X168778180Y-99239485D02*
X168778180Y-99810914D01*
X168778180Y-99525200D02*
X167778180Y-99525200D01*
X167921038Y-99620438D01*
X168016276Y-99715676D01*
X168063895Y-99810914D01*
X159626380Y-100242666D02*
X159150190Y-100576000D01*
X159626380Y-100814095D02*
X158626380Y-100814095D01*
X158626380Y-100433142D01*
X158674000Y-100337904D01*
X158721619Y-100290285D01*
X158816857Y-100242666D01*
X158959714Y-100242666D01*
X159054952Y-100290285D01*
X159102571Y-100337904D01*
X159150190Y-100433142D01*
X159150190Y-100814095D01*
X158721619Y-99861714D02*
X158674000Y-99814095D01*
X158626380Y-99718857D01*
X158626380Y-99480761D01*
X158674000Y-99385523D01*
X158721619Y-99337904D01*
X158816857Y-99290285D01*
X158912095Y-99290285D01*
X159054952Y-99337904D01*
X159626380Y-99909333D01*
X159626380Y-99290285D01*
X160980380Y-64301666D02*
X160504190Y-64635000D01*
X160980380Y-64873095D02*
X159980380Y-64873095D01*
X159980380Y-64492142D01*
X160028000Y-64396904D01*
X160075619Y-64349285D01*
X160170857Y-64301666D01*
X160313714Y-64301666D01*
X160408952Y-64349285D01*
X160456571Y-64396904D01*
X160504190Y-64492142D01*
X160504190Y-64873095D01*
X159980380Y-63968333D02*
X159980380Y-63349285D01*
X160361333Y-63682619D01*
X160361333Y-63539761D01*
X160408952Y-63444523D01*
X160456571Y-63396904D01*
X160551809Y-63349285D01*
X160789904Y-63349285D01*
X160885142Y-63396904D01*
X160932761Y-63444523D01*
X160980380Y-63539761D01*
X160980380Y-63825476D01*
X160932761Y-63920714D01*
X160885142Y-63968333D01*
X169768780Y-64276266D02*
X169292590Y-64609600D01*
X169768780Y-64847695D02*
X168768780Y-64847695D01*
X168768780Y-64466742D01*
X168816400Y-64371504D01*
X168864019Y-64323885D01*
X168959257Y-64276266D01*
X169102114Y-64276266D01*
X169197352Y-64323885D01*
X169244971Y-64371504D01*
X169292590Y-64466742D01*
X169292590Y-64847695D01*
X169102114Y-63419123D02*
X169768780Y-63419123D01*
X168721161Y-63657219D02*
X169435447Y-63895314D01*
X169435447Y-63276266D01*
X127087333Y-96126380D02*
X126754000Y-95650190D01*
X126515904Y-96126380D02*
X126515904Y-95126380D01*
X126896857Y-95126380D01*
X126992095Y-95174000D01*
X127039714Y-95221619D01*
X127087333Y-95316857D01*
X127087333Y-95459714D01*
X127039714Y-95554952D01*
X126992095Y-95602571D01*
X126896857Y-95650190D01*
X126515904Y-95650190D01*
X127992095Y-95126380D02*
X127515904Y-95126380D01*
X127468285Y-95602571D01*
X127515904Y-95554952D01*
X127611142Y-95507333D01*
X127849238Y-95507333D01*
X127944476Y-95554952D01*
X127992095Y-95602571D01*
X128039714Y-95697809D01*
X128039714Y-95935904D01*
X127992095Y-96031142D01*
X127944476Y-96078761D01*
X127849238Y-96126380D01*
X127611142Y-96126380D01*
X127515904Y-96078761D01*
X127468285Y-96031142D01*
X125666666Y-102464761D02*
X125809523Y-102512380D01*
X126047619Y-102512380D01*
X126142857Y-102464761D01*
X126190476Y-102417142D01*
X126238095Y-102321904D01*
X126238095Y-102226666D01*
X126190476Y-102131428D01*
X126142857Y-102083809D01*
X126047619Y-102036190D01*
X125857142Y-101988571D01*
X125761904Y-101940952D01*
X125714285Y-101893333D01*
X125666666Y-101798095D01*
X125666666Y-101702857D01*
X125714285Y-101607619D01*
X125761904Y-101560000D01*
X125857142Y-101512380D01*
X126095238Y-101512380D01*
X126238095Y-101560000D01*
X126571428Y-101512380D02*
X126809523Y-102512380D01*
X127000000Y-101798095D01*
X127190476Y-102512380D01*
X127428571Y-101512380D01*
X128333333Y-102512380D02*
X127761904Y-102512380D01*
X128047619Y-102512380D02*
X128047619Y-101512380D01*
X127952380Y-101655238D01*
X127857142Y-101750476D01*
X127761904Y-101798095D01*
X159821666Y-85221380D02*
X159821666Y-85935666D01*
X159774047Y-86078523D01*
X159678809Y-86173761D01*
X159535952Y-86221380D01*
X159440714Y-86221380D01*
X160297857Y-86221380D02*
X160297857Y-85221380D01*
X160678809Y-85221380D01*
X160774047Y-85269000D01*
X160821666Y-85316619D01*
X160869285Y-85411857D01*
X160869285Y-85554714D01*
X160821666Y-85649952D01*
X160774047Y-85697571D01*
X160678809Y-85745190D01*
X160297857Y-85745190D01*
X161250238Y-85316619D02*
X161297857Y-85269000D01*
X161393095Y-85221380D01*
X161631190Y-85221380D01*
X161726428Y-85269000D01*
X161774047Y-85316619D01*
X161821666Y-85411857D01*
X161821666Y-85507095D01*
X161774047Y-85649952D01*
X161202619Y-86221380D01*
X161821666Y-86221380D01*
M02*
